<svg width="60" height="60" viewBox="0 0 60 60" fill="none" xmlns="http://www.w3.org/2000/svg">
<mask id="path-1-inside-1_20:261" fill="white">
<path d="M46.0521 33.4502H45.7268V19.7723C45.7268 18.698 44.8531 17.824 43.7791 17.824H43.4543V12.5273C43.4543 12.2361 43.2182 12 42.927 12H17.073C15.5292 12 14.2732 13.2563 14.2732 14.8005V18.6668C12.8638 19.602 12 21.1953 12 22.897V29.858V42.927C12 45.7243 14.2757 48 17.073 48H38.4059C38.6971 48 38.9332 47.7639 38.9332 47.4727C38.9332 47.1814 38.6971 46.9453 38.4059 46.9453H17.073C14.8573 46.9453 13.0547 45.1427 13.0547 42.927V29.858V25.9903C13.9832 27.1936 15.4391 27.9701 17.073 27.9701H43.7791C44.2715 27.9701 44.6721 28.371 44.6721 28.8638V33.4502H41.7905C39.6198 33.4502 37.8538 35.2161 37.8538 37.3868C37.8538 39.5575 39.6198 41.3235 41.7905 41.3235H44.6721V46.0523C44.6721 46.5447 44.2715 46.9453 43.7791 46.9453H40.8668C40.5756 46.9453 40.3395 47.1814 40.3395 47.4727C40.3395 47.7639 40.5756 48 40.8668 48H43.7791C44.853 48 45.7268 47.1263 45.7268 46.0523V41.3235H46.0521C47.1262 41.3235 48 40.4496 48 39.3755V35.398C48 34.324 47.1262 33.4502 46.0521 33.4502ZM43.7791 18.8787C44.2715 18.8787 44.6721 19.2796 44.6721 19.7723V24.8604C44.4044 24.7217 44.101 24.6428 43.7793 24.6428H43.4543V18.8787H43.7791ZM43.7791 26.9154H17.073C14.8573 26.9154 13.0547 25.1128 13.0547 22.897C13.0547 21.8028 13.506 20.7652 14.2732 20.0168V22.897C14.2732 24.4412 15.5292 25.6976 17.073 25.6976H20.3623C20.6535 25.6976 20.8896 25.4615 20.8896 25.1702C20.8896 24.879 20.6535 24.6429 20.3623 24.6429H17.073C16.1108 24.6429 15.3279 23.8597 15.3279 22.897V16.9875C15.8069 17.3705 16.4134 17.6003 17.073 17.6003H36.4336C36.7248 17.6003 36.9609 17.3642 36.9609 17.073C36.9609 16.7817 36.7248 16.5456 36.4336 16.5456H17.073C16.1108 16.5456 15.3279 15.7628 15.3279 14.8005C15.3279 13.8379 16.1108 13.0547 17.073 13.0547H42.3996V14.2729H17.073C16.7818 14.2729 16.5457 14.509 16.5457 14.8002C16.5457 15.0914 16.7818 15.3275 17.073 15.3275H42.3996V16.5457H38.8945C38.6033 16.5457 38.3672 16.7818 38.3672 17.073C38.3672 17.3643 38.6033 17.6004 38.8945 17.6004H42.3996V24.6429H41.1814V22.8973C41.1814 22.6061 40.9453 22.37 40.654 22.37C38.9866 22.37 37.63 21.0134 37.63 19.346C37.63 19.0547 37.3939 18.8186 37.1027 18.8186H18.9198C18.6286 18.8186 18.3925 19.0547 18.3925 19.346C18.3925 19.6372 18.6286 19.8733 18.9198 19.8733H36.6093C36.8464 21.7014 38.2987 23.1537 40.1268 23.3908V24.643H22.8232C22.532 24.643 22.2959 24.8791 22.2959 25.1703C22.2959 25.4615 22.532 25.6976 22.8232 25.6976L43.7793 25.6976C44.2695 25.6976 44.6685 26.0946 44.6721 26.584V27.1332C44.4044 26.9944 44.1009 26.9154 43.7791 26.9154ZM46.9453 39.3755C46.9453 39.8681 46.5446 40.2688 46.0521 40.2688H45.2063C45.204 40.2688 45.2018 40.2684 45.1995 40.2684C45.1971 40.2684 45.195 40.2687 45.1926 40.2688H41.7905C40.2014 40.2688 38.9085 38.976 38.9085 37.3868C38.9085 35.7977 40.2014 34.5049 41.7905 34.5049H45.1987H45.1995C45.1995 34.5049 45.1999 34.5049 45.2002 34.5049H46.0521C46.5446 34.5049 46.9453 34.9056 46.9453 35.3981V39.3755Z"/>
</mask>
<path d="M46.0521 33.4502H45.7268V19.7723C45.7268 18.698 44.8531 17.824 43.7791 17.824H43.4543V12.5273C43.4543 12.2361 43.2182 12 42.927 12H17.073C15.5292 12 14.2732 13.2563 14.2732 14.8005V18.6668C12.8638 19.602 12 21.1953 12 22.897V29.858V42.927C12 45.7243 14.2757 48 17.073 48H38.4059C38.6971 48 38.9332 47.7639 38.9332 47.4727C38.9332 47.1814 38.6971 46.9453 38.4059 46.9453H17.073C14.8573 46.9453 13.0547 45.1427 13.0547 42.927V29.858V25.9903C13.9832 27.1936 15.4391 27.9701 17.073 27.9701H43.7791C44.2715 27.9701 44.6721 28.371 44.6721 28.8638V33.4502H41.7905C39.6198 33.4502 37.8538 35.2161 37.8538 37.3868C37.8538 39.5575 39.6198 41.3235 41.7905 41.3235H44.6721V46.0523C44.6721 46.5447 44.2715 46.9453 43.7791 46.9453H40.8668C40.5756 46.9453 40.3395 47.1814 40.3395 47.4727C40.3395 47.7639 40.5756 48 40.8668 48H43.7791C44.853 48 45.7268 47.1263 45.7268 46.0523V41.3235H46.0521C47.1262 41.3235 48 40.4496 48 39.3755V35.398C48 34.324 47.1262 33.4502 46.0521 33.4502ZM43.7791 18.8787C44.2715 18.8787 44.6721 19.2796 44.6721 19.7723V24.8604C44.4044 24.7217 44.101 24.6428 43.7793 24.6428H43.4543V18.8787H43.7791ZM43.7791 26.9154H17.073C14.8573 26.9154 13.0547 25.1128 13.0547 22.897C13.0547 21.8028 13.506 20.7652 14.2732 20.0168V22.897C14.2732 24.4412 15.5292 25.6976 17.073 25.6976H20.3623C20.6535 25.6976 20.8896 25.4615 20.8896 25.1702C20.8896 24.879 20.6535 24.6429 20.3623 24.6429H17.073C16.1108 24.6429 15.3279 23.8597 15.3279 22.897V16.9875C15.8069 17.3705 16.4134 17.6003 17.073 17.6003H36.4336C36.7248 17.6003 36.9609 17.3642 36.9609 17.073C36.9609 16.7817 36.7248 16.5456 36.4336 16.5456H17.073C16.1108 16.5456 15.3279 15.7628 15.3279 14.8005C15.3279 13.8379 16.1108 13.0547 17.073 13.0547H42.3996V14.2729H17.073C16.7818 14.2729 16.5457 14.509 16.5457 14.8002C16.5457 15.0914 16.7818 15.3275 17.073 15.3275H42.3996V16.5457H38.8945C38.6033 16.5457 38.3672 16.7818 38.3672 17.073C38.3672 17.3643 38.6033 17.6004 38.8945 17.6004H42.3996V24.6429H41.1814V22.8973C41.1814 22.6061 40.9453 22.37 40.654 22.37C38.9866 22.37 37.63 21.0134 37.63 19.346C37.63 19.0547 37.3939 18.8186 37.1027 18.8186H18.9198C18.6286 18.8186 18.3925 19.0547 18.3925 19.346C18.3925 19.6372 18.6286 19.8733 18.9198 19.8733H36.6093C36.8464 21.7014 38.2987 23.1537 40.1268 23.3908V24.643H22.8232C22.532 24.643 22.2959 24.8791 22.2959 25.1703C22.2959 25.4615 22.532 25.6976 22.8232 25.6976L43.7793 25.6976C44.2695 25.6976 44.6685 26.0946 44.6721 26.584V27.1332C44.4044 26.9944 44.1009 26.9154 43.7791 26.9154ZM46.9453 39.3755C46.9453 39.8681 46.5446 40.2688 46.0521 40.2688H45.2063C45.204 40.2688 45.2018 40.2684 45.1995 40.2684C45.1971 40.2684 45.195 40.2687 45.1926 40.2688H41.7905C40.2014 40.2688 38.9085 38.976 38.9085 37.3868C38.9085 35.7977 40.2014 34.5049 41.7905 34.5049H45.1987H45.1995C45.1995 34.5049 45.1999 34.5049 45.2002 34.5049H46.0521C46.5446 34.5049 46.9453 34.9056 46.9453 35.3981V39.3755Z" fill="black" stroke="#EE3F58" stroke-width="2" mask="url(#path-1-inside-1_20:261)"/>
<path d="M40.6268 37.387C40.6268 36.7457 41.1493 36.2231 41.7906 36.2231C42.4318 36.2231 42.9544 36.7457 42.9544 37.387C42.9544 38.0282 42.4319 38.5508 41.7906 38.5508C41.1493 38.5508 40.6268 38.0282 40.6268 37.387ZM40.6815 37.3869C40.6815 37.9989 41.1787 38.496 41.7906 38.496C42.4025 38.496 42.8997 37.9989 42.8997 37.3869C42.8997 36.7749 42.4026 36.2778 41.7906 36.2778C41.1786 36.2778 40.6815 36.7749 40.6815 37.3869Z" fill="black" stroke="#EE3F58"/>
<circle cx="30" cy="30" r="29.5" stroke="#EE3F58"/>
</svg>
