<svg width="60" height="60" viewBox="0 0 60 60" fill="none" xmlns="http://www.w3.org/2000/svg">
<circle cx="30" cy="30" r="29.5" stroke="#EE3F58"/>
<path d="M43.8564 24.9883H38.6953V14.9053C38.6953 13.3034 37.3919 12 35.79 12H18.9053C17.3034 12 16 13.3034 16 14.9053V44.0947C16 45.6966 17.3034 47 18.9053 47H35.79C37.3919 47 38.6953 45.6966 38.6953 44.0947V39.1729C38.6953 38.8898 38.4657 38.6602 38.1826 38.6602C37.8996 38.6602 37.6699 38.8898 37.6699 39.1729V44.0947C37.6699 45.1313 36.8266 45.9746 35.79 45.9746H18.9053C17.8687 45.9746 17.0254 45.1313 17.0254 44.0947V14.9053C17.0254 13.8687 17.8687 13.0254 18.9053 13.0254H35.79C36.8266 13.0254 37.6699 13.8687 37.6699 14.9053V24.9883H36.6445V14.9053C36.6445 14.434 36.2613 14.0508 35.79 14.0508H18.9053C18.434 14.0508 18.0508 14.434 18.0508 14.9053V42.1123C18.0508 42.5836 18.434 42.9668 18.9053 42.9668H35.79C36.2613 42.9668 36.6445 42.5836 36.6445 42.1123V37.293H43.8564C44.8931 37.293 45.7363 36.4497 45.7363 35.4131V26.8682C45.7363 26.4452 45.5991 26.0462 45.3409 25.7159C44.9836 25.2534 44.4423 24.9883 43.8564 24.9883ZM44.2938 26.1346L43.3061 27.9464C43.0359 28.441 42.5184 28.748 41.9555 28.748H32.5641C32.0012 28.748 31.4837 28.441 31.2137 27.947L30.2257 26.1346C30.3557 26.0567 30.5055 26.0137 30.6631 26.0137H43.8564C44.014 26.0137 44.1635 26.0567 44.2938 26.1346ZM28.7832 29.5H21.4688V28.4746H28.7832V29.5ZM35.6191 41.9414H19.0762V17.127H33.7393C34.0223 17.127 34.252 16.8973 34.252 16.6143C34.252 16.3312 34.0223 16.1016 33.7393 16.1016H19.0762V15.0762H35.6191V24.9883H30.6631C30.0772 24.9883 29.536 25.2534 29.1805 25.7135C28.9207 26.046 28.7832 26.4452 28.7832 26.8682V27.4492H21.2979C20.8265 27.4492 20.4434 27.8324 20.4434 28.3037V29.6709C20.4434 30.1422 20.8265 30.5254 21.2979 30.5254H28.7832V35.4131C28.7832 36.4497 29.6265 37.293 30.6631 37.293H35.6191V41.9414ZM43.8564 36.2676H30.6631C30.1918 36.2676 29.8086 35.8844 29.8086 35.4131V27.5117L30.3135 28.438C30.7635 29.2618 31.626 29.7734 32.5641 29.7734H41.9555C42.8935 29.7734 43.756 29.2618 44.206 28.4378L44.7109 27.5117V35.4131C44.7109 35.8844 44.3278 36.2676 43.8564 36.2676Z" fill="#EE3F58"/>
<path d="M25.5703 43.9922C25.2873 43.9922 25.0576 44.2218 25.0576 44.5049C25.0576 44.7879 25.2873 45.0176 25.5703 45.0176H29.125C29.4081 45.0176 29.6377 44.7879 29.6377 44.5049C29.6377 44.2218 29.4081 43.9922 29.125 43.9922H25.5703Z" fill="#EE3F58"/>
<path d="M43.1387 34.2168H40.7461C40.463 34.2168 40.2334 34.4464 40.2334 34.7295C40.2334 35.0125 40.463 35.2422 40.7461 35.2422H43.1387C43.4217 35.2422 43.6514 35.0125 43.6514 34.7295C43.6514 34.4464 43.4217 34.2168 43.1387 34.2168Z" fill="#EE3F58"/>
<path d="M43.1387 32.166H42.1133C41.8302 32.166 41.6006 32.3957 41.6006 32.6787C41.6006 32.9618 41.8302 33.1914 42.1133 33.1914H43.1387C43.4217 33.1914 43.6514 32.9618 43.6514 32.6787C43.6514 32.3957 43.4217 32.166 43.1387 32.166Z" fill="#EE3F58"/>
<path d="M21.1611 31.9951C20.8781 31.9951 20.6484 32.2248 20.6484 32.5078V33.875C20.6484 34.1581 20.8781 34.3877 21.1611 34.3877C21.4442 34.3877 21.6738 34.1581 21.6738 33.875V32.5078C21.6738 32.2248 21.4442 31.9951 21.1611 31.9951Z" fill="#EE3F58"/>
<path d="M23.1777 31.9951C22.8947 31.9951 22.665 32.2248 22.665 32.5078V33.875C22.665 34.1581 22.8947 34.3877 23.1777 34.3877C23.4608 34.3877 23.6904 34.1581 23.6904 33.875V32.5078C23.6904 32.2248 23.4608 31.9951 23.1777 31.9951Z" fill="#EE3F58"/>
<path d="M25.2285 31.9951C24.9455 31.9951 24.7158 32.2248 24.7158 32.5078V33.875C24.7158 34.1581 24.9455 34.3877 25.2285 34.3877C25.5116 34.3877 25.7412 34.1581 25.7412 33.875V32.5078C25.7412 32.2248 25.5116 31.9951 25.2285 31.9951Z" fill="#EE3F58"/>
<path d="M45.2236 19.7246C44.9406 19.7246 44.7109 19.9543 44.7109 20.2373C44.7109 20.5204 44.9406 20.75 45.2236 20.75C47.8432 20.75 49.9746 22.8814 49.9746 25.501C49.9746 25.784 50.2043 26.0137 50.4873 26.0137C50.7704 26.0137 51 25.784 51 25.501C51 22.3159 48.4088 19.7246 45.2236 19.7246Z" fill="#EE3F58"/>
<path d="M45.2236 21.7412C44.9406 21.7412 44.7109 21.9709 44.7109 22.2539C44.7109 22.537 44.9406 22.7666 45.2236 22.7666C46.7313 22.7666 47.958 23.9933 47.958 25.501C47.958 25.784 48.1877 26.0137 48.4707 26.0137C48.7538 26.0137 48.9834 25.784 48.9834 25.501C48.9834 23.4278 47.2968 21.7412 45.2236 21.7412Z" fill="#EE3F58"/>
<path d="M45.2236 23.7578C44.9406 23.7578 44.7109 23.9875 44.7109 24.2705C44.7109 24.5536 44.9406 24.7832 45.2236 24.7832C45.6194 24.7832 45.9414 25.1052 45.9414 25.501C45.9414 25.784 46.1711 26.0137 46.4541 26.0137C46.7372 26.0137 46.9668 25.784 46.9668 25.501C46.9668 24.5397 46.1849 23.7578 45.2236 23.7578Z" fill="#EE3F58"/>
<path d="M27.2793 31.9951C26.9962 31.9951 26.7666 32.2248 26.7666 32.5078V33.875C26.7666 34.1581 26.9962 34.3877 27.2793 34.3877C27.5623 34.3877 27.792 34.1581 27.792 33.875V32.5078C27.792 32.2248 27.5623 31.9951 27.2793 31.9951Z" fill="#EE3F58"/>
</svg>
