<svg width="60" height="60" viewBox="0 0 60 60" fill="none" xmlns="http://www.w3.org/2000/svg">
<circle cx="30" cy="30" r="29.5" stroke="#EE3F58"/>
<path d="M49.4731 20.5427C49.3788 20.1902 49.1527 19.8954 48.8365 19.7129L47.6869 19.0491C47.3708 18.8666 47.0024 18.8181 46.6497 18.9127C46.2972 19.007 46.0024 19.2332 45.8199 19.5493L45.1338 20.7374C44.8427 20.6006 44.5159 20.5704 44.2012 20.6547C43.8488 20.7493 43.554 20.9754 43.3715 21.2916L43.3281 21.3663V16.3047C43.3281 14.6891 42.014 13.375 40.3984 13.375H36.1251C36.0295 12.7137 35.4607 12.2031 34.7734 12.2031H32.7812V10.7578C32.7812 9.78857 31.9927 9 31.0234 9H26.7266C25.7573 9 24.9687 9.78857 24.9687 10.7578V12.2031H22.9766C22.2893 12.2031 21.7202 12.7137 21.6249 13.375H17.3516C15.736 13.375 14.4219 14.6891 14.4219 16.3047V46.0703C14.4219 47.6859 15.736 49 17.3516 49H35.6365C35.96 49 36.2224 48.7379 36.2224 48.4141C36.2224 48.0903 35.96 47.8281 35.6365 47.8281H17.3516C16.3823 47.8281 15.5937 47.0396 15.5937 46.0703V16.3047C15.5937 15.3354 16.3823 14.5469 17.3516 14.5469H21.6094V17.3984C21.6094 18.1522 22.2228 18.7656 22.9766 18.7656H34.7734C35.5272 18.7656 36.1406 18.1522 36.1406 17.3984V16.8516H39.8516V27.3881L33.8893 37.7149C33.6739 38.0878 33.5762 38.512 33.6071 38.9417L33.8683 42.602C33.8912 42.9221 34.07 43.2105 34.3465 43.3735C34.4991 43.4632 34.6703 43.5087 34.8424 43.5087C34.9822 43.5087 35.1223 43.4785 35.2529 43.418L38.6214 41.8558C39.0248 41.6688 39.3556 41.3663 39.5778 40.9815L39.8516 40.5076V45.5234H17.8984V16.8516H19.4609C19.7844 16.8516 20.0469 16.5894 20.0469 16.2656C20.0469 15.9418 19.7844 15.6797 19.4609 15.6797H17.7031C17.1645 15.6797 16.7266 16.1176 16.7266 16.6562V45.7188C16.7266 46.2574 17.1645 46.6953 17.7031 46.6953H40.0469C40.5852 46.6953 41.0234 46.2574 41.0234 45.7188V38.4775L42.1562 36.5156V46.0703C42.1562 47.0396 41.3677 47.8281 40.3984 47.8281H38.3705C38.0471 47.8281 37.7846 48.0903 37.7846 48.4141C37.7846 48.7375 38.0471 49 38.3705 49H40.3984C42.0137 49 43.3281 47.6856 43.3281 46.0703V34.4858L48.2714 25.9238L49.0523 24.5713C49.2348 24.2551 49.2833 23.8868 49.1887 23.5343C49.1045 23.2197 48.915 22.952 48.6507 22.768L49.3367 21.58C49.5192 21.2638 49.5677 20.8954 49.4731 20.5427ZM46.8346 20.1353C46.8883 20.0422 47.0076 20.0101 47.101 20.0638L48.2506 20.7276C48.3113 20.7627 48.3336 20.817 48.3415 20.846C48.3492 20.8753 48.3571 20.933 48.322 20.994L47.6387 22.1772L46.1516 21.3187L46.8346 20.1353ZM44.3862 21.8775C44.4213 21.8168 44.4756 21.7945 44.5046 21.7869C44.5339 21.7786 44.5915 21.771 44.6523 21.8061L47.9659 23.7192C48.0269 23.7543 48.0492 23.8083 48.0568 23.8376C48.0648 23.8666 48.0724 23.9246 48.0373 23.9854L47.5493 24.8304L43.8985 22.7225L44.3862 21.8775ZM26.1406 10.7578C26.1406 10.4346 26.4034 10.1719 26.7266 10.1719H31.0234C31.3466 10.1719 31.6094 10.4346 31.6094 10.7578V12.2031H26.1406V10.7578ZM34.9687 17.3984C34.9687 17.5062 34.8812 17.5938 34.7734 17.5938H22.9766C22.8688 17.5938 22.7812 17.5062 22.7812 17.3984V13.5703C22.7812 13.4626 22.8688 13.375 22.9766 13.375H34.7734C34.8812 13.375 34.9687 13.4626 34.9687 13.5703V17.3984ZM40.0469 15.6797H36.1406V14.5469H40.3984C41.3677 14.5469 42.1562 15.3354 42.1562 16.3047V23.3964L41.0234 25.3583V16.6562C41.0234 16.1176 40.5855 15.6797 40.0469 15.6797ZM43.3126 23.7375L46.9634 25.8454L39.7801 38.2874L36.129 36.1796L43.3126 23.7375ZM38.5631 40.3956C38.4621 40.5704 38.3116 40.7078 38.1285 40.7926V40.7929L35.017 42.2358L34.7759 38.8584C34.7618 38.6631 34.8064 38.4705 34.9044 38.3011L35.5431 37.1943L39.1942 39.3021L38.5631 40.3956Z" fill="#EE3F58"/>
<path d="M20.4742 41.6904C20.5856 41.7896 20.7248 41.8381 20.863 41.8381C21.0248 41.8381 21.1856 41.7715 21.3012 41.6412L22.463 40.3333L23.3624 41.4059C23.5428 41.6214 23.8073 41.7484 24.0881 41.7551C24.3692 41.76 24.639 41.647 24.8291 41.4404L25.9106 40.2661L27.1093 41.6229C27.3239 41.8655 27.6941 41.8884 27.9364 41.6742C28.179 41.46 28.2019 41.0898 27.9876 40.8472L26.6455 39.328C26.4627 39.1211 26.1996 39.0009 25.9237 38.9981C25.9204 38.9978 25.917 38.9978 25.9137 38.9978C25.6411 38.9978 25.3799 39.1122 25.1953 39.3127L24.1177 40.4828L23.2156 39.407C23.0331 39.1895 22.7655 39.0622 22.4811 39.0579C22.1966 39.0515 21.9259 39.1736 21.7373 39.386L20.4254 40.863C20.2102 41.105 20.2322 41.4755 20.4742 41.6904Z" fill="#EE3F58"/>
<path d="M37.7617 21.9297C37.7617 21.6059 37.4993 21.3438 37.1758 21.3438H20.5352C20.2117 21.3438 19.9492 21.6059 19.9492 21.9297C19.9492 22.2535 20.2117 22.5156 20.5352 22.5156H37.1758C37.4993 22.5156 37.7617 22.2535 37.7617 21.9297Z" fill="#EE3F58"/>
<path d="M20.6133 25.6406H27.5664C27.8899 25.6406 28.1523 25.3785 28.1523 25.0547C28.1523 24.7309 27.8899 24.4688 27.5664 24.4688H20.6133C20.2898 24.4688 20.0273 24.7309 20.0273 25.0547C20.0273 25.3785 20.2898 25.6406 20.6133 25.6406Z" fill="#EE3F58"/>
<path d="M33.6211 25.0547C33.6211 24.7309 33.3586 24.4688 33.0352 24.4688H30.3008C29.9773 24.4688 29.7148 24.7309 29.7148 25.0547C29.7148 25.3785 29.9773 25.6406 30.3008 25.6406H33.0352C33.3586 25.6406 33.6211 25.3785 33.6211 25.0547Z" fill="#EE3F58"/>
<path d="M20.6133 28.7656H26.2383C26.5618 28.7656 26.8242 28.5035 26.8242 28.1797C26.8242 27.8559 26.5618 27.5938 26.2383 27.5938H20.6133C20.2898 27.5938 20.0273 27.8559 20.0273 28.1797C20.0273 28.5035 20.2898 28.7656 20.6133 28.7656Z" fill="#EE3F58"/>
<path d="M31.3945 27.5938H28.7383C28.4148 27.5938 28.1523 27.8559 28.1523 28.1797C28.1523 28.5035 28.4148 28.7656 28.7383 28.7656H31.3945C31.718 28.7656 31.9805 28.5035 31.9805 28.1797C31.9805 27.8559 31.718 27.5938 31.3945 27.5938Z" fill="#EE3F58"/>
<path d="M20.6133 31.8906H24.6758C24.9993 31.8906 25.2617 31.6285 25.2617 31.3047C25.2617 30.9809 24.9993 30.7188 24.6758 30.7188H20.6133C20.2898 30.7188 20.0273 30.9809 20.0273 31.3047C20.0273 31.6285 20.2898 31.8906 20.6133 31.8906Z" fill="#EE3F58"/>
<path d="M31.9805 31.3047C31.9805 30.9809 31.718 30.7188 31.3945 30.7188H27.1758C26.8523 30.7188 26.5898 30.9809 26.5898 31.3047C26.5898 31.6285 26.8523 31.8906 27.1758 31.8906H31.3945C31.718 31.8906 31.9805 31.6285 31.9805 31.3047Z" fill="#EE3F58"/>
<path d="M20.6133 35.0156H24.6758C24.9993 35.0156 25.2617 34.7535 25.2617 34.4297C25.2617 34.1059 24.9993 33.8438 24.6758 33.8438H20.6133C20.2898 33.8438 20.0273 34.1059 20.0273 34.4297C20.0273 34.7535 20.2898 35.0156 20.6133 35.0156Z" fill="#EE3F58"/>
</svg>
