<svg width="60" height="60" viewBox="0 0 60 60" fill="none" xmlns="http://www.w3.org/2000/svg">
<path d="M47.7496 32.8721C47.6743 32.5553 47.3913 32.3317 47.0656 32.3317C46.1081 32.3317 44.3903 31.8549 42.9376 31.2235V28.1723C42.9376 27.0092 41.9914 26.0629 40.8283 26.0629H39.422V13.4063C39.422 12.6308 38.7912 12 38.0157 12H16.9219C16.1465 12 15.5156 12.6308 15.5156 13.4063V21.8441H13.4063C12.6308 21.8441 12 22.475 12 23.2504V43.6412C12 44.8043 12.9463 45.7506 14.1094 45.7506H36.948C37.7751 46.515 38.7553 47.2445 39.9174 47.9079C40.0254 47.9695 40.1457 48.0003 40.266 48.0003C40.3863 48.0003 40.5065 47.9694 40.6146 47.9079C45.4806 45.1301 47.1647 41.1941 47.7207 38.3814C48.3216 35.3409 47.7733 32.9715 47.7496 32.8721ZM16.9219 13.4063H38.0157V26.0629H25.8355L24.6569 23.1165C24.3478 22.3436 23.6334 21.8441 22.837 21.8441H16.9219V13.4063ZM13.4063 43.6412V42.938H17.0622C17.4506 42.938 17.7654 42.6232 17.7654 42.2349C17.7654 41.8465 17.4506 41.5317 17.0622 41.5317H13.4063V23.2504H22.837C23.085 23.2504 23.274 23.4455 23.3513 23.6388L24.7067 27.0272C24.8135 27.2942 25.0721 27.4692 25.3596 27.4692H40.8284C41.2161 27.4692 41.5315 27.7846 41.5315 28.1723V30.5032C41.2198 30.3103 40.9549 30.1144 40.7604 29.922C40.4865 29.6511 40.0456 29.6511 39.7716 29.922C38.6184 31.0624 35.0289 32.3316 33.4663 32.3316C33.1407 32.3316 32.8576 32.5552 32.7822 32.872C32.7586 32.9714 32.2102 35.3408 32.8113 38.3813C33.1548 40.1195 33.9297 42.2866 35.6196 44.3443H14.1094C13.7217 44.3443 13.4063 44.0289 13.4063 43.6412ZM46.3411 38.1086C45.6391 41.6595 43.5962 44.4748 40.2659 46.4821C36.954 44.4857 34.9148 41.6892 34.2019 38.1645C33.803 36.192 33.947 34.5055 34.0623 33.7011C35.8765 33.497 38.7417 32.4726 40.266 31.3406C41.7905 32.4729 44.6567 33.4974 46.4708 33.7012C46.5857 34.495 46.7283 36.1496 46.3411 38.1086Z" fill="#EE3F58"/>
<path d="M19.4873 16.2186H35.4482C35.8366 16.2186 36.1514 15.9038 36.1514 15.5154C36.1514 15.1271 35.8366 14.8123 35.4482 14.8123H19.4873C19.099 14.8123 18.7842 15.1271 18.7842 15.5154C18.7842 15.9038 19.099 16.2186 19.4873 16.2186Z" fill="#EE3F58"/>
<path d="M36.1514 18.3279C36.1514 17.9396 35.8366 17.6248 35.4482 17.6248H19.4873C19.099 17.6248 18.7842 17.9396 18.7842 18.3279C18.7842 18.7163 19.099 19.0311 19.4873 19.0311H35.4482C35.8365 19.0311 36.1514 18.7163 36.1514 18.3279Z" fill="#EE3F58"/>
<path d="M35.4483 20.4374H27.4678C27.0794 20.4374 26.7646 20.7522 26.7646 21.1405C26.7646 21.5288 27.0794 21.8436 27.4678 21.8436H35.4483C35.8366 21.8436 36.1514 21.5288 36.1514 21.1405C36.1514 20.7522 35.8365 20.4374 35.4483 20.4374Z" fill="#EE3F58"/>
<path d="M35.4483 23.2499H31.2998C30.9115 23.2499 30.5967 23.5647 30.5967 23.953C30.5967 24.3413 30.9115 24.6561 31.2998 24.6561H35.4483C35.8366 24.6561 36.1514 24.3413 36.1514 23.953C36.1514 23.5647 35.8365 23.2499 35.4483 23.2499Z" fill="#EE3F58"/>
<path d="M42.8919 35.0341C42.3285 35.0341 41.7988 35.2535 41.4004 35.6519L39.4598 37.5925L39.13 37.2628C38.7316 36.8644 38.202 36.645 37.6385 36.645C37.0751 36.645 36.5455 36.8644 36.1471 37.2628C35.7487 37.6612 35.5293 38.1908 35.5293 38.7542C35.5293 39.3177 35.7487 39.8473 36.1471 40.2457L37.9683 42.067C38.3795 42.4781 38.9196 42.6837 39.4597 42.6837C39.9998 42.6837 40.54 42.4781 40.9512 42.067L44.3833 38.6348C45.2057 37.8125 45.2057 36.4743 44.3833 35.652C43.9851 35.2535 43.4554 35.0341 42.8919 35.0341ZM43.389 37.6403L39.957 41.0724C39.6829 41.3465 39.2369 41.3465 38.9628 41.0724L37.1416 39.2512C37.0087 39.1185 36.9357 38.9419 36.9357 38.7542C36.9357 38.5664 37.0088 38.3899 37.1416 38.2571C37.2743 38.1243 37.4509 38.0512 37.6386 38.0512C37.8263 38.0512 38.0029 38.1244 38.1357 38.2571L38.9626 39.0841C39.0944 39.2159 39.2733 39.29 39.4598 39.29C39.6463 39.29 39.8251 39.2159 39.957 39.0841L42.3948 36.6463C42.5275 36.5134 42.7041 36.4404 42.8918 36.4404C43.0796 36.4404 43.2561 36.5135 43.3889 36.6463C43.6631 36.9203 43.6631 37.3663 43.389 37.6403Z" fill="#EE3F58"/>
<path d="M20.2256 41.5315C19.8373 41.5315 19.5225 41.8463 19.5225 42.2346C19.5225 42.623 19.8373 42.9378 20.2256 42.9378H20.2261C20.6144 42.9378 20.929 42.623 20.929 42.2346C20.929 41.8463 20.614 41.5315 20.2256 41.5315Z" fill="#EE3F58"/>
<circle cx="30" cy="30" r="29.5" stroke="#EE3F58"/>
</svg>
