<svg width="20" height="20" viewBox="0 0 20 20" fill="none" xmlns="http://www.w3.org/2000/svg">
<g clip-path="url(#clip0_7_8373)">
<path d="M16.9871 13.746V18.3147H3.01214V13.746H0.326172V19.6577C0.326172 20.3989 0.926612 21 1.67116 21H18.328C19.0719 21 19.673 20.3996 19.673 19.6577V13.746H16.9871Z" fill="black"/>
<path d="M9.7536 13.293L5.90812 8.64627C5.90812 8.64627 5.32302 8.09387 5.95749 8.09387C6.59195 8.09387 8.12441 8.09387 8.12441 8.09387C8.12441 8.09387 8.12441 7.72226 8.12441 7.14918C8.12441 5.51531 8.12441 2.5418 8.12441 1.32958C8.12441 1.32958 8.03835 1 8.53471 1C9.03508 1 11.2267 1 11.5849 1C11.9425 1 11.9345 1.27754 11.9345 1.27754C11.9345 2.45307 11.9345 5.52932 11.9345 7.10981C11.9345 7.62219 11.9345 7.95443 11.9345 7.95443C11.9345 7.95443 13.1634 7.95443 13.9347 7.95443C14.7046 7.95443 14.1248 8.53286 14.1248 8.53286C14.1248 8.53286 10.8531 12.876 10.3967 13.3317C10.0685 13.662 9.7536 13.293 9.7536 13.293Z" fill="black"/>
</g>
<defs>
<clipPath id="clip0_7_8373">
<rect width="20" height="20" fill="white"/>
</clipPath>
</defs>
</svg>
