<svg width="10" height="10" viewBox="0 0 10 10" fill="none" xmlns="http://www.w3.org/2000/svg">
<path d="M3.66662 9.66667C3.51085 9.66697 3.35989 9.61272 3.23995 9.51333C3.17245 9.45737 3.11665 9.38863 3.07574 9.31107C3.03484 9.2335 3.00965 9.14863 3.00159 9.06132C2.99354 8.974 3.0028 8.88595 3.02883 8.80221C3.05486 8.71848 3.09715 8.6407 3.15329 8.57333L6.13995 5L3.25995 1.42C3.20458 1.35181 3.16322 1.27335 3.13827 1.18912C3.11331 1.10489 3.10525 1.01657 3.11454 0.929213C3.12384 0.84186 3.1503 0.757206 3.19242 0.680115C3.23453 0.603024 3.29147 0.535016 3.35995 0.480001C3.42893 0.41931 3.50971 0.373532 3.59722 0.345539C3.68472 0.317546 3.77707 0.307944 3.86847 0.317334C3.95986 0.326724 4.04833 0.354903 4.12832 0.400105C4.20831 0.445306 4.27809 0.506553 4.33329 0.580001L7.55329 4.58C7.65134 4.69929 7.70494 4.84892 7.70494 5.00333C7.70494 5.15775 7.65134 5.30738 7.55329 5.42667L4.21995 9.42667C4.15307 9.50735 4.06812 9.57112 3.97198 9.61282C3.87584 9.65452 3.77122 9.67297 3.66662 9.66667Z" fill="black"/>
</svg>
