<svg width="10" height="10" viewBox="0 0 10 10" fill="none" xmlns="http://www.w3.org/2000/svg">
<path d="M3.66686 9.66667C3.5111 9.66697 3.36014 9.61272 3.2402 9.51333C3.17269 9.45737 3.11689 9.38863 3.07599 9.31107C3.03509 9.2335 3.00989 9.14863 3.00184 9.06132C2.99379 8.974 3.00304 8.88595 3.02907 8.80221C3.0551 8.71848 3.0974 8.6407 3.15353 8.57333L6.1402 5L3.2602 1.42C3.20482 1.35181 3.16347 1.27335 3.13851 1.18912C3.11356 1.10489 3.10549 1.01657 3.11479 0.929213C3.12408 0.84186 3.15054 0.757206 3.19266 0.680115C3.23478 0.603024 3.29171 0.535016 3.3602 0.480001C3.42917 0.41931 3.50995 0.373532 3.59746 0.345539C3.68497 0.317546 3.77732 0.307944 3.86871 0.317334C3.96011 0.326724 4.04858 0.354903 4.12856 0.400105C4.20855 0.445306 4.27833 0.506553 4.33353 0.580001L7.55353 4.58C7.65158 4.69929 7.70519 4.84892 7.70519 5.00333C7.70519 5.15775 7.65158 5.30738 7.55353 5.42667L4.2202 9.42667C4.15332 9.50735 4.06836 9.57112 3.97222 9.61282C3.87608 9.65452 3.77147 9.67297 3.66686 9.66667Z" fill="#0065B1"/>
</svg>
