<svg width="30" height="31" viewBox="0 0 30 31" fill="none" xmlns="http://www.w3.org/2000/svg">
<path d="M16.3727 11.8006H13.2285V8.66544C13.2285 8.27998 12.915 7.96792 12.5295 7.96792C12.144 7.96792 11.8305 8.27998 11.8305 8.66544V11.8006H8.68635C8.30084 11.8006 7.98733 12.1126 7.98733 12.4981C7.98733 12.8836 8.30084 13.1956 8.68635 13.1956H11.8305V16.3307C11.8305 16.7162 12.144 17.0283 12.5295 17.0283C12.915 17.0283 13.2285 16.7162 13.2285 16.3307V13.1956H16.3727C16.7582 13.1956 17.0717 12.8836 17.0717 12.4981C17.0717 12.1126 16.7582 11.8006 16.3727 11.8006Z" fill="white" stroke="white" stroke-width="0.3"/>
<path d="M28.9551 28.969L28.955 28.9689L20.8986 20.6134C22.9454 18.5145 24.209 15.6509 24.209 12.4979C24.209 6.07442 18.9696 0.85 12.5295 0.85C6.08934 0.85 0.85 6.07442 0.85 12.4979C0.85 18.9215 6.08934 24.1459 12.5295 24.1459C15.3065 24.1459 17.8594 23.1733 19.8655 21.5538L27.947 29.9357C27.9471 29.9358 27.9471 29.9358 27.9471 29.9358C28.0845 30.079 28.2681 30.15 28.4511 30.15C28.6256 30.15 28.7999 30.0851 28.9353 29.9557L28.9355 29.9555C29.2139 29.6883 29.2222 29.2466 28.9551 28.969ZM2.24805 12.4979C2.24805 6.84479 6.85982 2.24504 12.5295 2.24504C18.1991 2.24504 22.8109 6.84479 22.8109 12.4979C22.8109 18.1511 18.1991 22.7508 12.5295 22.7508C6.85982 22.7508 2.24805 18.1511 2.24805 12.4979Z" fill="white" stroke="white" stroke-width="0.3"/>
</svg>
