<svg width="60" height="60" viewBox="0 0 60 60" fill="none" xmlns="http://www.w3.org/2000/svg">
<path d="M25.0124 31.5703L25.0123 31.5703C21.7718 33.3809 19.7586 36.8084 19.7586 40.5163C19.7586 41.1958 19.8258 41.8766 19.9588 42.5402C19.9729 42.6103 19.9274 42.6791 19.8565 42.6933L19.9545 43.1823L19.8571 42.6932C19.8475 42.6951 19.8386 42.6959 19.8304 42.6959C19.7699 42.6959 19.7158 42.6525 19.7036 42.5913L19.7036 42.5913C19.5673 41.9114 19.4982 41.2133 19.4982 40.5164C19.4982 36.8339 21.4353 33.4197 24.5777 31.5221L24.8186 31.3766V31.0952V28.6702C24.8186 28.1326 25.2033 27.6808 25.713 27.579L26.1139 27.4988V27.09V21.3836C26.1139 21.3117 26.1721 21.2535 26.2439 21.2535C26.3158 21.2535 26.374 21.3117 26.374 21.3836V27.0584V27.5571H26.8726H28.3059H28.8046V27.0584V18.7043C28.8046 18.6325 28.8628 18.5743 28.9346 18.5743C29.0064 18.5743 29.0646 18.6325 29.0646 18.7043V27.0584V27.5571H29.5633H33.2104H33.7091V27.0584V23.3916V23.1803L33.5573 23.0334L32.616 22.1219C32.5676 22.075 32.539 22.0074 32.539 21.94C32.539 21.8728 32.5675 21.8052 32.6158 21.7583C32.6159 21.7582 32.6159 21.7582 32.6159 21.7582C32.6159 21.7582 32.616 21.7581 32.6161 21.758L33.5574 20.8467L33.7092 20.6997V20.4884V19.9901V19.7788L33.5574 19.6319L32.6161 18.7204C32.5676 18.6735 32.539 18.6059 32.539 18.5385C32.539 18.4712 32.5677 18.4035 32.6161 18.3565L33.5575 17.4451L33.7093 17.2982V17.0869V16.1497V15.651H33.2106H26.8729H26.3742V16.1497V18.7042C26.3742 18.7761 26.316 18.8342 26.2442 18.8342C26.1724 18.8342 26.1142 18.7761 26.1142 18.7042V15.81C26.1142 15.6584 26.1962 15.5231 26.3233 15.4487L26.5698 15.3042V15.0185V10.2021C26.5698 9.52998 27.1174 8.98238 27.7895 8.98238H32.2104C32.8825 8.98238 33.4301 9.52998 33.4301 10.2021V14.9749V15.2959L33.7224 15.4288C33.8698 15.4959 33.9695 15.6429 33.9695 15.81V17.2566C33.9695 17.3524 33.9293 17.4473 33.8608 17.5135L33.8608 17.5136L33.1723 18.1801L32.8023 18.5384L33.1723 18.8967L33.8606 19.5631C33.9293 19.6296 33.9695 19.7246 33.9695 19.8202V20.658C33.9695 20.7536 33.9294 20.8484 33.861 20.9149C33.8609 20.9149 33.8609 20.915 33.8608 20.9151L33.1723 21.5817L32.8023 21.9399L33.1723 22.2982L33.8606 22.9646C33.8607 22.9646 33.8607 22.9647 33.8607 22.9647C33.9293 23.0312 33.9695 23.1261 33.9695 23.2217V27.1107V27.4974L34.3441 27.5937C34.8259 27.7174 35.1811 28.1543 35.1811 28.6701V31.0951V31.3765L35.422 31.522C36.3786 32.0995 37.2336 32.8232 37.9679 33.6778L37.9679 33.6778C38.0147 33.7322 38.0084 33.8143 37.954 33.8611L37.9539 33.8611C37.8995 33.9079 37.8174 33.9016 37.7707 33.8473L37.7707 33.8472C36.9793 32.9262 36.0427 32.1598 34.9877 31.5703L34.9876 31.5703C34.9465 31.5473 34.921 31.5039 34.921 31.4568V28.6701C34.921 28.1991 34.5387 27.817 34.0679 27.817H25.932C25.4611 27.817 25.0789 28.1993 25.0789 28.6701V31.4568C25.0789 31.5039 25.0534 31.5473 25.0124 31.5703ZM32.6712 15.391H33.1699V14.8923V10.2021C33.1699 9.67243 32.7397 9.24242 32.2102 9.24242H27.7895C27.26 9.24242 26.8298 9.67257 26.8298 10.2021V14.8923V15.391H27.3285H32.6712Z" fill="black" stroke="#EE3F58" stroke-width="0.997361"/>
<path d="M39.4576 35.9502L39.4576 35.9502C40.1503 37.3817 40.5013 38.9168 40.5014 40.5165C40.5014 46.3065 35.7899 51.0179 29.9999 51.0179C28.0031 51.0179 26.0616 50.4552 24.3841 49.3913L24.3841 49.3912C22.7511 48.3556 21.4362 46.8937 20.5809 45.1634C20.549 45.099 20.5755 45.0211 20.6397 44.9893C20.7044 44.9574 20.7822 44.9839 20.814 45.0482L20.814 45.0482C21.6483 46.7359 22.931 48.1616 24.5233 49.1716C26.1597 50.2095 28.0537 50.7578 29.9999 50.7578C35.6474 50.7578 40.2412 46.164 40.2412 40.5165C40.2412 38.9585 39.8988 37.4591 39.2236 36.0635L39.2236 36.0634C39.1923 35.9987 39.2193 35.921 39.2839 35.8898L39.284 35.8897C39.3486 35.8584 39.4263 35.8853 39.4576 35.9502Z" fill="black" stroke="#EE3F58" stroke-width="0.997361"/>
<path d="M28.6729 11.8312C28.6729 11.7593 28.7311 11.7011 28.8029 11.7011C28.8747 11.7011 28.9329 11.7593 28.9329 11.8312V12.8127C28.9329 12.8845 28.8747 12.9427 28.8029 12.9427C28.7311 12.9427 28.6729 12.8845 28.6729 12.8127V11.8312Z" fill="black" stroke="#EE3F58" stroke-width="0.997361"/>
<path d="M31.1504 11.8312C31.1504 11.7593 31.2086 11.7011 31.2804 11.7011C31.3523 11.7011 31.4104 11.7593 31.4104 11.8312V12.8127C31.4104 12.8845 31.3523 12.9427 31.2804 12.9427C31.2086 12.9427 31.1504 12.8845 31.1504 12.8127V11.8312Z" fill="black" stroke="#EE3F58" stroke-width="0.997361"/>
<path d="M32.0369 47.4533H27.9628C27.1092 47.4533 26.4141 46.7582 26.4141 45.9047C26.4141 45.0512 27.1092 44.3561 27.9628 44.3561H32.0369C32.8905 44.3561 33.5856 45.0512 33.5856 45.9047C33.5856 46.7582 32.8905 47.4533 32.0369 47.4533ZM32.0369 44.6161H27.9628C27.2519 44.6161 26.6741 45.1937 26.6741 45.9047C26.6741 46.6158 27.2519 47.1933 27.9628 47.1933H32.0369C32.7478 47.1933 33.3256 46.6158 33.3256 45.9047C33.3256 45.1937 32.7478 44.6161 32.0369 44.6161Z" fill="black" stroke="#EE3F58" stroke-width="0.997361"/>
<path d="M30.4988 36.9959L30.1299 37.0953V37.4774V42.2162C30.1299 42.288 30.0717 42.3462 29.9998 42.3462C29.928 42.3462 29.8698 42.288 29.8698 42.2162V37.4535V37.0866L29.5195 36.9774C28.8028 36.7541 28.2825 36.084 28.2825 35.2973C28.2825 34.3276 29.0721 33.538 30.0418 33.538C31.0114 33.538 31.801 34.3276 31.801 35.2973C31.801 36.1076 31.2487 36.7939 30.4988 36.9959ZM30.0418 33.798C29.2146 33.798 28.5425 34.4701 28.5425 35.2973C28.5425 36.1244 29.2146 36.7965 30.0418 36.7965C30.8689 36.7965 31.541 36.1244 31.541 35.2973C31.541 34.4701 30.8689 33.798 30.0418 33.798Z" fill="black" stroke="#EE3F58" stroke-width="0.997361"/>
<path d="M26.421 39.9083L26.1142 39.6927L25.8219 39.9275C25.5198 40.1703 25.1381 40.3151 24.7226 40.3151C23.7529 40.3151 22.9633 39.5255 22.9633 38.5559C22.9633 37.5862 23.7529 36.7966 24.7226 36.7966C25.6922 36.7966 26.4818 37.5863 26.4818 38.5559C26.4818 38.7553 26.448 38.9467 26.3864 39.1258L26.2644 39.4805L26.5712 39.6961L27.3261 40.2265L27.3262 40.2266C27.3607 40.2509 27.3813 40.2905 27.3813 40.3329V42.2163C27.3813 42.2881 27.3232 42.3463 27.2513 42.3463C27.1795 42.3463 27.1213 42.2881 27.1213 42.2163V40.6595V40.4004L26.9094 40.2515L26.421 39.9083ZM23.2233 38.5559C23.2233 39.3831 23.8955 40.0551 24.7226 40.0551C25.5497 40.0551 26.2219 39.383 26.2219 38.5559C26.2219 37.7287 25.5497 37.0566 24.7226 37.0566C23.8954 37.0566 23.2233 37.7287 23.2233 38.5559Z" fill="black" stroke="#EE3F58" stroke-width="0.997361"/>
<path d="M33.4284 39.6961L33.7353 39.4805L33.6133 39.1258C33.5516 38.9467 33.5179 38.7553 33.5179 38.5559C33.5179 37.5862 34.3075 36.7966 35.2771 36.7966C36.2468 36.7966 37.0365 37.5862 37.0365 38.5559C37.0365 39.5255 36.2468 40.3151 35.277 40.3151C34.8615 40.3151 34.4799 40.1703 34.1778 39.9275L33.8855 39.6927L33.5787 39.9083L33.0903 40.2515L32.8783 40.4004V40.6595V42.2163C32.8783 42.2881 32.8202 42.3463 32.7483 42.3463C32.6765 42.3463 32.6183 42.2881 32.6183 42.2163V40.3329C32.6183 40.2906 32.6389 40.2509 32.6736 40.2265L32.6736 40.2265L33.4284 39.6961ZM35.2772 37.0566C34.45 37.0566 33.778 37.7287 33.778 38.5559C33.778 39.383 34.4502 40.0551 35.2772 40.0551C36.1044 40.0551 36.7765 39.383 36.7765 38.5559C36.7765 37.7286 36.1043 37.0566 35.2772 37.0566Z" fill="black" stroke="#EE3F58" stroke-width="0.997361"/>
<circle cx="30" cy="30" r="29.5" stroke="#EE3F58"/>
</svg>
