<svg width="60" height="60" viewBox="0 0 60 60" fill="none" xmlns="http://www.w3.org/2000/svg">
<mask id="path-1-inside-1_408_2" fill="white">
<path d="M30.0906 12.3617C20.3159 12.3617 12.3636 20.3031 12.3636 30.0642C12.3636 34.4266 13.9665 38.6175 16.8767 41.8651C17.1278 42.1453 17.1039 42.5757 16.8233 42.8265C16.6933 42.9428 16.5307 43 16.3689 43C16.1817 43 15.9953 42.9235 15.8606 42.7732C12.7262 39.2756 11 34.7621 11 30.0642C11 24.9719 12.9858 20.1845 16.5915 16.5838C20.1972 12.983 24.9913 11 30.0906 11C33.8872 11 37.555 12.1103 40.6974 14.211C41.0103 14.4201 41.0942 14.8431 40.8847 15.1555C40.6752 15.468 40.2517 15.5517 39.9389 15.3425C37.0217 13.3925 33.6162 12.3617 30.0906 12.3617Z"/>
<path d="M44.8871 19.1153C45.1964 18.9058 45.6149 18.9897 45.822 19.3026C47.901 22.4449 49 26.1127 49 29.9093C49 35.0087 47.0373 39.8027 43.4734 43.4085C39.9095 47.0142 35.1711 49 30.131 49C25.8144 49 21.5947 47.4873 18.2493 44.7406C17.9603 44.5034 17.9161 44.074 18.1506 43.7816C18.3852 43.4892 18.8095 43.4445 19.0986 43.6818C22.2046 46.2319 26.1227 47.6364 30.131 47.6364C39.7922 47.6364 47.6522 39.684 47.6522 29.9093C47.6522 26.3838 46.632 22.9783 44.702 20.0612C44.4949 19.7483 44.5779 19.3248 44.8871 19.1153Z"/>
<path d="M42.1665 16.8755C42.5027 17.1773 42.8268 17.5003 43.1298 17.8355C43.2285 17.9446 43.3641 18 43.5002 18C43.62 18 43.7403 17.957 43.8361 17.8698C44.0405 17.6836 44.0558 17.3663 43.8703 17.1611C43.5441 16.8004 43.1952 16.4528 42.8333 16.1278C42.6276 15.9431 42.3115 15.9607 42.1274 16.1671C41.9433 16.3735 41.9607 16.6907 42.1665 16.8755Z"/>
<path d="M31 16.4C31 16.7313 30.5522 17 30 17C29.4478 17 29 16.7313 29 16.4V14.6C29 14.2687 29.4478 14 30 14C30.5522 14 31 14.2687 31 14.6V16.4Z"/>
<path d="M29 43.6V45.4C29 45.7313 29.4478 46 30 46C30.5522 46 31 45.7313 31 45.4V43.6C31 43.2687 30.5522 43 30 43C29.4478 43 29 43.2687 29 43.6Z"/>
<path d="M16.4 29C16.7313 29 17 29.4478 17 30C17 30.5522 16.7313 31 16.4 31H14.6C14.2687 31 14 30.5522 14 30C14 29.4478 14.2687 29 14.6 29H16.4Z"/>
<path d="M43 30C43 30.5522 43.2687 31 43.6 31H45.4C45.7313 31 46 30.5522 46 30C46 29.4478 45.7313 29 45.4 29H43.6C43.2687 29 43 29.4478 43 30Z"/>
<path d="M23.0663 16.3263L23.9234 18.0213C24.0811 18.3333 23.9875 18.7323 23.7143 18.9125C23.6243 18.9718 23.526 19 23.4291 19C23.2316 19 23.0396 18.883 22.9337 18.6737L22.0766 16.9787C21.9189 16.6667 22.0125 16.2676 22.2858 16.0875C22.559 15.9074 22.9085 16.0142 23.0663 16.3263Z"/>
<path d="M37.0662 41.3262C36.9085 41.0142 36.5589 40.9075 36.2858 41.0874C36.0125 41.2676 35.9189 41.6666 36.0766 41.9786L36.9337 43.6737C37.0395 43.883 37.2316 44 37.4291 44C37.526 44 37.6243 43.9718 37.7142 43.9125C37.9875 43.7323 38.0811 43.3333 37.9234 43.0213L37.0662 41.3262Z"/>
<path d="M16.9787 37.9234C16.8759 37.9753 16.7637 38 16.6531 38C16.4276 38 16.2083 37.8975 16.0875 37.7142C15.9074 37.441 16.0143 37.0915 16.3263 36.9337L18.0213 36.0766C18.3332 35.9189 18.7323 36.0124 18.9125 36.2857C19.0926 36.559 18.9857 36.9085 18.6737 37.0663L16.9787 37.9234Z"/>
<path d="M41.6531 24C41.7637 24 41.8759 23.9753 41.9787 23.9234L43.6737 23.0663C43.9857 22.9085 44.0926 22.559 43.9125 22.2857C43.7323 22.0124 43.3333 21.9189 43.0213 22.0766L41.3263 22.9337C41.0143 23.0915 40.9074 23.441 41.0875 23.7142C41.2084 23.8975 41.4277 24 41.6531 24Z"/>
<path d="M36.9337 16.3263C37.0915 16.0142 37.441 15.9073 37.7142 16.0876C37.9875 16.2677 38.0811 16.6667 37.9234 16.9787L37.0663 18.6737C36.9605 18.883 36.7684 19 36.571 19C36.474 19 36.3758 18.9719 36.2858 18.9125C36.0125 18.7324 35.9189 18.3333 36.0766 18.0213L36.9337 16.3263Z"/>
<path d="M23.7142 41.0875C23.441 40.9074 23.0915 41.0143 22.9337 41.3263L22.0766 43.0213C21.9189 43.3333 22.0125 43.7324 22.2858 43.9125C22.3758 43.9719 22.474 44 22.571 44C22.7684 44 22.9605 43.883 23.0663 43.6737L23.9234 41.9787C24.0811 41.6667 23.9875 41.2677 23.7142 41.0875Z"/>
<path d="M43.0212 37.9234L41.3263 37.0663C41.0142 36.9085 40.9073 36.5591 41.0876 36.2858C41.2677 36.0125 41.6667 35.9188 41.9787 36.0767L43.6737 36.9337C43.9857 37.0915 44.0926 37.441 43.9125 37.7142C43.7916 37.8975 43.5724 38 43.3469 38C43.2361 38 43.124 37.9754 43.0212 37.9234Z"/>
<path d="M18.6737 22.9337L16.9787 22.0767C16.6667 21.9188 16.2677 22.0125 16.0875 22.2858C15.9074 22.5591 16.0143 22.9085 16.3263 23.0663L18.0213 23.9234C18.124 23.9754 18.2362 24 18.3469 24C18.5724 24 18.7917 23.8975 18.9126 23.7142C19.0926 23.441 18.9857 23.0915 18.6737 22.9337Z"/>
<path fill-rule="evenodd" clip-rule="evenodd" d="M34.6806 38.9063C34.58 38.9698 34.4702 39 34.3618 39C34.1412 39 33.9265 38.8747 33.8082 38.6506L30.2658 31.9381C30.1523 31.9611 30.0354 31.9737 29.9159 31.9737C28.8595 31.9737 28 31.0335 28 29.8777C28 28.9669 28.534 28.1902 29.2773 27.9018V18.6987C29.2773 18.3128 29.5632 18 29.9159 18C30.2686 18 30.5546 18.3128 30.5546 18.6987V27.9018C31.2979 28.1902 31.8319 28.9669 31.8319 29.8777C31.8319 30.3967 31.6581 30.8719 31.3715 31.2385L34.9143 37.9519C35.0907 38.286 34.986 38.7134 34.6806 38.9063ZM29.9159 29.179C29.5638 29.179 29.2773 29.4924 29.2773 29.8777C29.2773 30.2629 29.5638 30.5764 29.9159 30.5764C30.2681 30.5764 30.5546 30.2629 30.5546 29.8777C30.5546 29.4924 30.2681 29.179 29.9159 29.179Z"/>
</mask>
<path d="M30.0906 12.3617C20.3159 12.3617 12.3636 20.3031 12.3636 30.0642C12.3636 34.4266 13.9665 38.6175 16.8767 41.8651C17.1278 42.1453 17.1039 42.5757 16.8233 42.8265C16.6933 42.9428 16.5307 43 16.3689 43C16.1817 43 15.9953 42.9235 15.8606 42.7732C12.7262 39.2756 11 34.7621 11 30.0642C11 24.9719 12.9858 20.1845 16.5915 16.5838C20.1972 12.983 24.9913 11 30.0906 11C33.8872 11 37.555 12.1103 40.6974 14.211C41.0103 14.4201 41.0942 14.8431 40.8847 15.1555C40.6752 15.468 40.2517 15.5517 39.9389 15.3425C37.0217 13.3925 33.6162 12.3617 30.0906 12.3617Z" fill="black"/>
<path d="M44.8871 19.1153C45.1964 18.9058 45.6149 18.9897 45.822 19.3026C47.901 22.4449 49 26.1127 49 29.9093C49 35.0087 47.0373 39.8027 43.4734 43.4085C39.9095 47.0142 35.1711 49 30.131 49C25.8144 49 21.5947 47.4873 18.2493 44.7406C17.9603 44.5034 17.9161 44.074 18.1506 43.7816C18.3852 43.4892 18.8095 43.4445 19.0986 43.6818C22.2046 46.2319 26.1227 47.6364 30.131 47.6364C39.7922 47.6364 47.6522 39.684 47.6522 29.9093C47.6522 26.3838 46.632 22.9783 44.702 20.0612C44.4949 19.7483 44.5779 19.3248 44.8871 19.1153Z" fill="black"/>
<path d="M42.1665 16.8755C42.5027 17.1773 42.8268 17.5003 43.1298 17.8355C43.2285 17.9446 43.3641 18 43.5002 18C43.62 18 43.7403 17.957 43.8361 17.8698C44.0405 17.6836 44.0558 17.3663 43.8703 17.1611C43.5441 16.8004 43.1952 16.4528 42.8333 16.1278C42.6276 15.9431 42.3115 15.9607 42.1274 16.1671C41.9433 16.3735 41.9607 16.6907 42.1665 16.8755Z" fill="black"/>
<path d="M31 16.4C31 16.7313 30.5522 17 30 17C29.4478 17 29 16.7313 29 16.4V14.6C29 14.2687 29.4478 14 30 14C30.5522 14 31 14.2687 31 14.6V16.4Z" fill="black"/>
<path d="M29 43.6V45.4C29 45.7313 29.4478 46 30 46C30.5522 46 31 45.7313 31 45.4V43.6C31 43.2687 30.5522 43 30 43C29.4478 43 29 43.2687 29 43.6Z" fill="black"/>
<path d="M16.4 29C16.7313 29 17 29.4478 17 30C17 30.5522 16.7313 31 16.4 31H14.6C14.2687 31 14 30.5522 14 30C14 29.4478 14.2687 29 14.6 29H16.4Z" fill="black"/>
<path d="M43 30C43 30.5522 43.2687 31 43.6 31H45.4C45.7313 31 46 30.5522 46 30C46 29.4478 45.7313 29 45.4 29H43.6C43.2687 29 43 29.4478 43 30Z" fill="black"/>
<path d="M23.0663 16.3263L23.9234 18.0213C24.0811 18.3333 23.9875 18.7323 23.7143 18.9125C23.6243 18.9718 23.526 19 23.4291 19C23.2316 19 23.0396 18.883 22.9337 18.6737L22.0766 16.9787C21.9189 16.6667 22.0125 16.2676 22.2858 16.0875C22.559 15.9074 22.9085 16.0142 23.0663 16.3263Z" fill="black"/>
<path d="M37.0662 41.3262C36.9085 41.0142 36.5589 40.9075 36.2858 41.0874C36.0125 41.2676 35.9189 41.6666 36.0766 41.9786L36.9337 43.6737C37.0395 43.883 37.2316 44 37.4291 44C37.526 44 37.6243 43.9718 37.7142 43.9125C37.9875 43.7323 38.0811 43.3333 37.9234 43.0213L37.0662 41.3262Z" fill="black"/>
<path d="M16.9787 37.9234C16.8759 37.9753 16.7637 38 16.6531 38C16.4276 38 16.2083 37.8975 16.0875 37.7142C15.9074 37.441 16.0143 37.0915 16.3263 36.9337L18.0213 36.0766C18.3332 35.9189 18.7323 36.0124 18.9125 36.2857C19.0926 36.559 18.9857 36.9085 18.6737 37.0663L16.9787 37.9234Z" fill="black"/>
<path d="M41.6531 24C41.7637 24 41.8759 23.9753 41.9787 23.9234L43.6737 23.0663C43.9857 22.9085 44.0926 22.559 43.9125 22.2857C43.7323 22.0124 43.3333 21.9189 43.0213 22.0766L41.3263 22.9337C41.0143 23.0915 40.9074 23.441 41.0875 23.7142C41.2084 23.8975 41.4277 24 41.6531 24Z" fill="black"/>
<path d="M36.9337 16.3263C37.0915 16.0142 37.441 15.9073 37.7142 16.0876C37.9875 16.2677 38.0811 16.6667 37.9234 16.9787L37.0663 18.6737C36.9605 18.883 36.7684 19 36.571 19C36.474 19 36.3758 18.9719 36.2858 18.9125C36.0125 18.7324 35.9189 18.3333 36.0766 18.0213L36.9337 16.3263Z" fill="black"/>
<path d="M23.7142 41.0875C23.441 40.9074 23.0915 41.0143 22.9337 41.3263L22.0766 43.0213C21.9189 43.3333 22.0125 43.7324 22.2858 43.9125C22.3758 43.9719 22.474 44 22.571 44C22.7684 44 22.9605 43.883 23.0663 43.6737L23.9234 41.9787C24.0811 41.6667 23.9875 41.2677 23.7142 41.0875Z" fill="black"/>
<path d="M43.0212 37.9234L41.3263 37.0663C41.0142 36.9085 40.9073 36.5591 41.0876 36.2858C41.2677 36.0125 41.6667 35.9188 41.9787 36.0767L43.6737 36.9337C43.9857 37.0915 44.0926 37.441 43.9125 37.7142C43.7916 37.8975 43.5724 38 43.3469 38C43.2361 38 43.124 37.9754 43.0212 37.9234Z" fill="black"/>
<path d="M18.6737 22.9337L16.9787 22.0767C16.6667 21.9188 16.2677 22.0125 16.0875 22.2858C15.9074 22.5591 16.0143 22.9085 16.3263 23.0663L18.0213 23.9234C18.124 23.9754 18.2362 24 18.3469 24C18.5724 24 18.7917 23.8975 18.9126 23.7142C19.0926 23.441 18.9857 23.0915 18.6737 22.9337Z" fill="black"/>
<path fill-rule="evenodd" clip-rule="evenodd" d="M34.6806 38.9063C34.58 38.9698 34.4702 39 34.3618 39C34.1412 39 33.9265 38.8747 33.8082 38.6506L30.2658 31.9381C30.1523 31.9611 30.0354 31.9737 29.9159 31.9737C28.8595 31.9737 28 31.0335 28 29.8777C28 28.9669 28.534 28.1902 29.2773 27.9018V18.6987C29.2773 18.3128 29.5632 18 29.9159 18C30.2686 18 30.5546 18.3128 30.5546 18.6987V27.9018C31.2979 28.1902 31.8319 28.9669 31.8319 29.8777C31.8319 30.3967 31.6581 30.8719 31.3715 31.2385L34.9143 37.9519C35.0907 38.286 34.986 38.7134 34.6806 38.9063ZM29.9159 29.179C29.5638 29.179 29.2773 29.4924 29.2773 29.8777C29.2773 30.2629 29.5638 30.5764 29.9159 30.5764C30.2681 30.5764 30.5546 30.2629 30.5546 29.8777C30.5546 29.4924 30.2681 29.179 29.9159 29.179Z" fill="black"/>
<path d="M30.0906 12.3617C20.3159 12.3617 12.3636 20.3031 12.3636 30.0642C12.3636 34.4266 13.9665 38.6175 16.8767 41.8651C17.1278 42.1453 17.1039 42.5757 16.8233 42.8265C16.6933 42.9428 16.5307 43 16.3689 43C16.1817 43 15.9953 42.9235 15.8606 42.7732C12.7262 39.2756 11 34.7621 11 30.0642C11 24.9719 12.9858 20.1845 16.5915 16.5838C20.1972 12.983 24.9913 11 30.0906 11C33.8872 11 37.555 12.1103 40.6974 14.211C41.0103 14.4201 41.0942 14.8431 40.8847 15.1555C40.6752 15.468 40.2517 15.5517 39.9389 15.3425C37.0217 13.3925 33.6162 12.3617 30.0906 12.3617Z" stroke="#EE3F58" stroke-width="2" mask="url(#path-1-inside-1_408_2)"/>
<path d="M44.8871 19.1153C45.1964 18.9058 45.6149 18.9897 45.822 19.3026C47.901 22.4449 49 26.1127 49 29.9093C49 35.0087 47.0373 39.8027 43.4734 43.4085C39.9095 47.0142 35.1711 49 30.131 49C25.8144 49 21.5947 47.4873 18.2493 44.7406C17.9603 44.5034 17.9161 44.074 18.1506 43.7816C18.3852 43.4892 18.8095 43.4445 19.0986 43.6818C22.2046 46.2319 26.1227 47.6364 30.131 47.6364C39.7922 47.6364 47.6522 39.684 47.6522 29.9093C47.6522 26.3838 46.632 22.9783 44.702 20.0612C44.4949 19.7483 44.5779 19.3248 44.8871 19.1153Z" stroke="#EE3F58" stroke-width="2" mask="url(#path-1-inside-1_408_2)"/>
<path d="M42.1665 16.8755C42.5027 17.1773 42.8268 17.5003 43.1298 17.8355C43.2285 17.9446 43.3641 18 43.5002 18C43.62 18 43.7403 17.957 43.8361 17.8698C44.0405 17.6836 44.0558 17.3663 43.8703 17.1611C43.5441 16.8004 43.1952 16.4528 42.8333 16.1278C42.6276 15.9431 42.3115 15.9607 42.1274 16.1671C41.9433 16.3735 41.9607 16.6907 42.1665 16.8755Z" stroke="#EE3F58" stroke-width="2" mask="url(#path-1-inside-1_408_2)"/>
<path d="M31 16.4C31 16.7313 30.5522 17 30 17C29.4478 17 29 16.7313 29 16.4V14.6C29 14.2687 29.4478 14 30 14C30.5522 14 31 14.2687 31 14.6V16.4Z" stroke="#EE3F58" stroke-width="2" mask="url(#path-1-inside-1_408_2)"/>
<path d="M29 43.6V45.4C29 45.7313 29.4478 46 30 46C30.5522 46 31 45.7313 31 45.4V43.6C31 43.2687 30.5522 43 30 43C29.4478 43 29 43.2687 29 43.6Z" stroke="#EE3F58" stroke-width="2" mask="url(#path-1-inside-1_408_2)"/>
<path d="M16.4 29C16.7313 29 17 29.4478 17 30C17 30.5522 16.7313 31 16.4 31H14.6C14.2687 31 14 30.5522 14 30C14 29.4478 14.2687 29 14.6 29H16.4Z" stroke="#EE3F58" stroke-width="2" mask="url(#path-1-inside-1_408_2)"/>
<path d="M43 30C43 30.5522 43.2687 31 43.6 31H45.4C45.7313 31 46 30.5522 46 30C46 29.4478 45.7313 29 45.4 29H43.6C43.2687 29 43 29.4478 43 30Z" stroke="#EE3F58" stroke-width="2" mask="url(#path-1-inside-1_408_2)"/>
<path d="M23.0663 16.3263L23.9234 18.0213C24.0811 18.3333 23.9875 18.7323 23.7143 18.9125C23.6243 18.9718 23.526 19 23.4291 19C23.2316 19 23.0396 18.883 22.9337 18.6737L22.0766 16.9787C21.9189 16.6667 22.0125 16.2676 22.2858 16.0875C22.559 15.9074 22.9085 16.0142 23.0663 16.3263Z" stroke="#EE3F58" stroke-width="2" mask="url(#path-1-inside-1_408_2)"/>
<path d="M37.0662 41.3262C36.9085 41.0142 36.5589 40.9075 36.2858 41.0874C36.0125 41.2676 35.9189 41.6666 36.0766 41.9786L36.9337 43.6737C37.0395 43.883 37.2316 44 37.4291 44C37.526 44 37.6243 43.9718 37.7142 43.9125C37.9875 43.7323 38.0811 43.3333 37.9234 43.0213L37.0662 41.3262Z" stroke="#EE3F58" stroke-width="2" mask="url(#path-1-inside-1_408_2)"/>
<path d="M16.9787 37.9234C16.8759 37.9753 16.7637 38 16.6531 38C16.4276 38 16.2083 37.8975 16.0875 37.7142C15.9074 37.441 16.0143 37.0915 16.3263 36.9337L18.0213 36.0766C18.3332 35.9189 18.7323 36.0124 18.9125 36.2857C19.0926 36.559 18.9857 36.9085 18.6737 37.0663L16.9787 37.9234Z" stroke="#EE3F58" stroke-width="2" mask="url(#path-1-inside-1_408_2)"/>
<path d="M41.6531 24C41.7637 24 41.8759 23.9753 41.9787 23.9234L43.6737 23.0663C43.9857 22.9085 44.0926 22.559 43.9125 22.2857C43.7323 22.0124 43.3333 21.9189 43.0213 22.0766L41.3263 22.9337C41.0143 23.0915 40.9074 23.441 41.0875 23.7142C41.2084 23.8975 41.4277 24 41.6531 24Z" stroke="#EE3F58" stroke-width="2" mask="url(#path-1-inside-1_408_2)"/>
<path d="M36.9337 16.3263C37.0915 16.0142 37.441 15.9073 37.7142 16.0876C37.9875 16.2677 38.0811 16.6667 37.9234 16.9787L37.0663 18.6737C36.9605 18.883 36.7684 19 36.571 19C36.474 19 36.3758 18.9719 36.2858 18.9125C36.0125 18.7324 35.9189 18.3333 36.0766 18.0213L36.9337 16.3263Z" stroke="#EE3F58" stroke-width="2" mask="url(#path-1-inside-1_408_2)"/>
<path d="M23.7142 41.0875C23.441 40.9074 23.0915 41.0143 22.9337 41.3263L22.0766 43.0213C21.9189 43.3333 22.0125 43.7324 22.2858 43.9125C22.3758 43.9719 22.474 44 22.571 44C22.7684 44 22.9605 43.883 23.0663 43.6737L23.9234 41.9787C24.0811 41.6667 23.9875 41.2677 23.7142 41.0875Z" stroke="#EE3F58" stroke-width="2" mask="url(#path-1-inside-1_408_2)"/>
<path d="M43.0212 37.9234L41.3263 37.0663C41.0142 36.9085 40.9073 36.5591 41.0876 36.2858C41.2677 36.0125 41.6667 35.9188 41.9787 36.0767L43.6737 36.9337C43.9857 37.0915 44.0926 37.441 43.9125 37.7142C43.7916 37.8975 43.5724 38 43.3469 38C43.2361 38 43.124 37.9754 43.0212 37.9234Z" stroke="#EE3F58" stroke-width="2" mask="url(#path-1-inside-1_408_2)"/>
<path d="M18.6737 22.9337L16.9787 22.0767C16.6667 21.9188 16.2677 22.0125 16.0875 22.2858C15.9074 22.5591 16.0143 22.9085 16.3263 23.0663L18.0213 23.9234C18.124 23.9754 18.2362 24 18.3469 24C18.5724 24 18.7917 23.8975 18.9126 23.7142C19.0926 23.441 18.9857 23.0915 18.6737 22.9337Z" stroke="#EE3F58" stroke-width="2" mask="url(#path-1-inside-1_408_2)"/>
<path fill-rule="evenodd" clip-rule="evenodd" d="M34.6806 38.9063C34.58 38.9698 34.4702 39 34.3618 39C34.1412 39 33.9265 38.8747 33.8082 38.6506L30.2658 31.9381C30.1523 31.9611 30.0354 31.9737 29.9159 31.9737C28.8595 31.9737 28 31.0335 28 29.8777C28 28.9669 28.534 28.1902 29.2773 27.9018V18.6987C29.2773 18.3128 29.5632 18 29.9159 18C30.2686 18 30.5546 18.3128 30.5546 18.6987V27.9018C31.2979 28.1902 31.8319 28.9669 31.8319 29.8777C31.8319 30.3967 31.6581 30.8719 31.3715 31.2385L34.9143 37.9519C35.0907 38.286 34.986 38.7134 34.6806 38.9063ZM29.9159 29.179C29.5638 29.179 29.2773 29.4924 29.2773 29.8777C29.2773 30.2629 29.5638 30.5764 29.9159 30.5764C30.2681 30.5764 30.5546 30.2629 30.5546 29.8777C30.5546 29.4924 30.2681 29.179 29.9159 29.179Z" stroke="#EE3F58" stroke-width="2" mask="url(#path-1-inside-1_408_2)"/>
<circle cx="30" cy="30" r="29.5" stroke="#EE3F58"/>
</svg>
