<svg width="60" height="60" viewBox="0 0 60 60" fill="none" xmlns="http://www.w3.org/2000/svg">
<path d="M40.2168 14.9269L40.2167 14.9269C37.2169 12.9215 33.7146 11.8617 30.0906 11.8617C20.0405 11.8617 11.8636 20.0263 11.8636 30.0642C11.8636 34.5497 13.5119 38.8595 16.5043 42.1988L16.5044 42.1988C16.5709 42.273 16.5647 42.387 16.4901 42.4537L16.4899 42.4538C16.4553 42.4848 16.4128 42.5 16.3689 42.5C16.3176 42.5 16.2687 42.4794 16.233 42.4395L16.233 42.4395C13.1807 39.0336 11.5 34.639 11.5 30.0642C11.5 25.1048 13.4329 20.4446 16.9448 16.9376C20.4567 13.4305 25.1237 11.5 30.0906 11.5C33.7888 11.5 37.3598 12.5812 40.4195 14.6266L40.6954 14.2139L40.4195 14.6266C40.5029 14.6824 40.5248 14.7944 40.4694 14.877L40.4694 14.8771C40.4136 14.9603 40.3004 14.9828 40.2168 14.9269Z" fill="black" stroke="#EE3F58"/>
<path d="M45.1189 19.7852L45.119 19.7853C47.1036 22.7849 48.1522 26.2865 48.1522 29.9093C48.1522 39.9546 40.0738 48.1364 30.131 48.1364C26.0067 48.1364 21.9765 46.6916 18.7813 44.0682M45.1189 19.7852L19.0986 43.6818M45.1189 19.7852C45.0621 19.6993 45.0868 19.584 45.1676 19.5293C45.2446 19.4771 45.3503 19.4958 45.405 19.5785L45.822 19.3026M45.1189 19.7852L45.822 19.3026M18.7813 44.0682L19.0986 43.6818M18.7813 44.0682C18.7813 44.0682 18.7813 44.0682 18.7813 44.0682L19.0986 43.6818M18.7813 44.0682C18.7083 44.0083 18.6017 44.0183 18.5407 44.0944C18.4768 44.1741 18.4901 44.2915 18.5665 44.3542L18.5666 44.3542C21.8229 47.0277 25.9305 48.5 30.131 48.5C35.0366 48.5 39.6472 46.5683 43.1178 43.057C46.5886 39.5454 48.5 34.8779 48.5 29.9093C48.5 26.2101 47.4295 22.6383 45.405 19.5785L45.822 19.3026M19.0986 43.6818C18.8095 43.4445 18.3852 43.4892 18.1506 43.7816C17.9161 44.074 17.9603 44.5034 18.2493 44.7406C21.5947 47.4873 25.8144 49 30.131 49C35.1711 49 39.9095 47.0142 43.4734 43.4085C47.0373 39.8027 49 35.0087 49 29.9093C49 26.1127 47.901 22.4449 45.822 19.3026" fill="black" stroke="#EE3F58"/>
<path d="M43.4999 17.4992C43.1855 17.1516 42.8494 16.8167 42.5006 16.5035C42.5006 16.5035 42.5006 16.5035 42.5006 16.5035C42.4999 16.5028 42.5001 16.5029 42.5003 16.5033C42.5003 16.5033 42.5001 16.5028 42.5 16.5019L42.5 16.5008C42.5001 16.5007 42.5001 16.5006 42.5001 16.5006C42.8488 16.8138 43.1851 17.1489 43.4994 17.4965L43.4999 17.4992ZM43.4999 17.4992C43.4999 17.499 43.5 17.4988 43.5 17.4985C43.5 17.4977 43.4999 17.4972 43.4999 17.497C43.4998 17.4969 43.4997 17.4968 43.4995 17.4965L43.4999 17.4992ZM42.5 16.5005C42.5 16.5006 42.5 16.5006 42.5 16.5006C42.5 16.5006 42.5 16.5006 42.5 16.5005C42.5 16.5005 42.5 16.5005 42.5 16.5005Z" fill="black" stroke="#EE3F58"/>
<path d="M30.5 16.3598C30.4905 16.3684 30.4749 16.3805 30.4498 16.3955C30.3589 16.4501 30.2011 16.5 30 16.5C29.7989 16.5 29.6411 16.4501 29.5502 16.3955C29.5251 16.3805 29.5095 16.3684 29.5 16.3598V14.6402C29.5095 14.6316 29.5251 14.6195 29.5502 14.6045C29.6411 14.5499 29.7989 14.5 30 14.5C30.2011 14.5 30.3589 14.5499 30.4498 14.6045C30.4749 14.6195 30.4905 14.6316 30.5 14.6402V16.3598ZM30.5094 16.3502C30.5112 16.3469 30.5125 16.3453 30.5127 16.3454C30.513 16.3454 30.5121 16.3471 30.5094 16.3502ZM30.5094 14.6498C30.5121 14.6529 30.513 14.6546 30.5127 14.6546C30.5125 14.6547 30.5112 14.6531 30.5094 14.6498ZM29.4873 14.6546C29.487 14.6546 29.4879 14.6529 29.4906 14.6498C29.4888 14.6531 29.4875 14.6547 29.4873 14.6546ZM29.4873 16.3454C29.4875 16.3453 29.4888 16.3469 29.4906 16.3502C29.4879 16.3471 29.487 16.3454 29.4873 16.3454Z" fill="black" stroke="#EE3F58"/>
<path d="M29.5502 45.3955C29.5251 45.3805 29.5095 45.3684 29.5 45.3598V43.6402C29.5095 43.6316 29.5251 43.6195 29.5502 43.6045C29.6411 43.5499 29.7989 43.5 30 43.5C30.2011 43.5 30.3589 43.5499 30.4498 43.6045C30.4749 43.6195 30.4905 43.6316 30.5 43.6402V45.3598C30.4905 45.3684 30.4749 45.3805 30.4498 45.3955C30.3589 45.4501 30.2011 45.5 30 45.5C29.7989 45.5 29.6411 45.4501 29.5502 45.3955ZM29.4873 43.6546C29.487 43.6546 29.4879 43.6529 29.4906 43.6498C29.4888 43.6531 29.4875 43.6547 29.4873 43.6546ZM30.5127 43.6546C30.5125 43.6547 30.5112 43.6531 30.5094 43.6498C30.5121 43.6529 30.513 43.6546 30.5127 43.6546ZM30.5127 45.3454C30.513 45.3454 30.5121 45.3471 30.5094 45.3502C30.5112 45.3469 30.5125 45.3453 30.5127 45.3454ZM29.4906 45.3502C29.4879 45.3471 29.487 45.3454 29.4873 45.3454C29.4875 45.3453 29.4888 45.3469 29.4906 45.3502Z" fill="black" stroke="#EE3F58"/>
<path d="M16.3502 29.4906C16.3469 29.4888 16.3453 29.4875 16.3454 29.4873C16.3454 29.487 16.3471 29.4879 16.3502 29.4906ZM16.3598 29.5C16.3684 29.5095 16.3805 29.5251 16.3955 29.5502C16.4501 29.6411 16.5 29.7989 16.5 30C16.5 30.2011 16.4501 30.3589 16.3955 30.4498C16.3805 30.4749 16.3684 30.4905 16.3598 30.5H14.6402C14.6316 30.4905 14.6195 30.4749 14.6045 30.4498C14.5499 30.3589 14.5 30.2011 14.5 30C14.5 29.7989 14.5499 29.6411 14.6045 29.5502C14.6195 29.5251 14.6316 29.5095 14.6402 29.5H16.3598ZM14.6498 29.4906C14.6529 29.4879 14.6546 29.487 14.6546 29.4873C14.6547 29.4875 14.6531 29.4888 14.6498 29.4906ZM14.6546 30.5127C14.6546 30.513 14.6529 30.5121 14.6498 30.5094C14.6531 30.5112 14.6547 30.5125 14.6546 30.5127ZM16.3454 30.5127C16.3453 30.5125 16.3469 30.5112 16.3502 30.5094C16.3471 30.5121 16.3454 30.513 16.3454 30.5127Z" fill="black" stroke="#EE3F58"/>
<path d="M43.6402 30.5C43.6316 30.4905 43.6195 30.4749 43.6045 30.4498C43.5499 30.3589 43.5 30.2011 43.5 30C43.5 29.7989 43.5499 29.6411 43.6045 29.5502C43.6195 29.5251 43.6316 29.5095 43.6402 29.5H45.3598C45.3684 29.5095 45.3805 29.5251 45.3955 29.5502C45.4501 29.6411 45.5 29.7989 45.5 30C45.5 30.2011 45.4501 30.3589 45.3955 30.4498C45.3805 30.4749 45.3684 30.4905 45.3598 30.5H43.6402ZM43.6546 30.5127C43.6546 30.513 43.6529 30.5121 43.6498 30.5094C43.6531 30.5112 43.6547 30.5125 43.6546 30.5127ZM45.3454 30.5127C45.3453 30.5125 45.3469 30.5112 45.3502 30.5094C45.3471 30.5121 45.3454 30.513 45.3454 30.5127ZM45.3454 29.4873C45.3454 29.487 45.3471 29.4879 45.3502 29.4906C45.3469 29.4888 45.3453 29.4875 45.3454 29.4873ZM43.6546 29.4873C43.6547 29.4875 43.6531 29.4888 43.6498 29.4906C43.6529 29.4879 43.6546 29.487 43.6546 29.4873Z" fill="black" stroke="#EE3F58"/>
<path d="M23.4772 18.2469L23.4772 18.2469L22.6201 16.5519L22.6201 16.5518C22.5986 16.5095 22.5759 16.5013 22.5731 16.5005C22.5719 16.5001 22.5712 16.5 22.5711 16.5C22.571 16.5 22.5709 16.5 22.571 16.5C22.571 16.5 22.571 16.5 22.571 16.5L22.5705 16.5001L22.5691 16.5006C22.5678 16.5011 22.5651 16.5023 22.561 16.5049L23.4772 18.2469ZM23.4772 18.2469C23.4996 18.2913 23.5064 18.348 23.4937 18.4022C23.4808 18.4568 23.4547 18.4848 23.4391 18.4951L23.7143 18.9125M23.4772 18.2469L22.5228 16.7531M23.7143 18.9125C23.9875 18.7323 24.0811 18.3333 23.9234 18.0213L23.7143 18.9125ZM23.7143 18.9125L23.4392 18.495C23.4339 18.4985 23.4307 18.4995 23.4299 18.4998C23.4294 18.4999 23.4292 18.5 23.4291 18.5C23.4282 18.4999 23.4244 18.4993 23.418 18.4951C23.41 18.4899 23.3945 18.4769 23.3799 18.4481C23.3799 18.4481 23.3799 18.4481 23.3799 18.448L22.5228 16.7531L22.5228 16.7531M22.5228 16.7531C22.5004 16.7086 22.4936 16.652 22.5063 16.5979M22.5228 16.7531L22.5063 16.5979M23.4291 18.5C23.4291 18.5 23.4291 18.5 23.4291 18.5C23.4291 18.5 23.4291 18.5 23.4291 18.5ZM23.4291 18.5C23.4292 18.5 23.4293 18.5 23.4293 18.5C23.4293 18.5 23.4292 18.5 23.4291 18.5ZM22.5063 16.5979C22.5191 16.5433 22.5452 16.5153 22.5609 16.505L22.5063 16.5979Z" fill="black" stroke="#EE3F58"/>
<path d="M36.62 41.5518L36.62 41.5518C36.5986 41.5095 36.576 41.5014 36.5731 41.5005C36.5718 41.5001 36.5711 41.5 36.571 41.5C36.5709 41.5 36.5709 41.5 36.5709 41.5C36.5709 41.5 36.5709 41.5 36.5709 41.5L36.5704 41.5001L36.569 41.5006C36.5677 41.5011 36.565 41.5023 36.5608 41.505L36.2858 41.0874M36.62 41.5518L37.4298 43.4998C37.4289 43.5001 37.4288 43.5 37.4291 43.5C37.4301 43.5 37.4263 43.5005 37.418 43.4951C37.4099 43.4899 37.3945 43.4769 37.3799 43.4481C37.3799 43.4481 37.3799 43.4481 37.3799 43.448L36.5228 41.753L36.5228 41.753C36.5004 41.7086 36.4936 41.652 36.5063 41.5978C36.5192 41.5431 36.5453 41.5152 36.561 41.5049L36.2858 41.0874M36.62 41.5518L37.4772 43.2469C37.4772 43.2469 37.4772 43.2469 37.4772 43.2469C37.4996 43.2913 37.5064 43.3479 37.4937 43.4021C37.4809 43.4566 37.4548 43.4846 37.4392 43.495L36.62 41.5518ZM36.2858 41.0874C36.5589 40.9075 36.9085 41.0142 37.0662 41.3262L36.2858 41.0874Z" fill="black" stroke="#EE3F58"/>
<path d="M16.505 37.4391L16.505 37.439C16.5022 37.4349 16.501 37.4322 16.5006 37.4309L16.5001 37.4294L16.5 37.4291C16.5 37.4291 16.5 37.4291 16.5 37.429C16.5 37.4288 16.5001 37.4282 16.5005 37.4269C16.5013 37.4241 16.5095 37.4013 16.5519 37.3799C16.5519 37.3799 16.5519 37.3799 16.5519 37.3799L18.2468 36.5228C18.2468 36.5228 18.2468 36.5228 18.2469 36.5228C18.2469 36.5228 18.2469 36.5228 18.2469 36.5228C18.2913 36.5004 18.3479 36.4936 18.4021 36.5063C18.4569 36.5192 18.4848 36.5453 18.495 36.5609C18.4978 36.565 18.499 36.5678 18.4994 36.5691L18.4999 36.5705L18.5 36.5709C18.5 36.5708 18.5 36.5709 18.5 36.571C18.5 36.5711 18.4999 36.5718 18.4995 36.573C18.4987 36.5759 18.4905 36.5986 18.4481 36.6201C18.4481 36.6201 18.4481 36.6201 18.4481 36.6201L16.7532 37.4771C16.7532 37.4771 16.7531 37.4771 16.7531 37.4771C16.7531 37.4771 16.7531 37.4772 16.7531 37.4772C16.7242 37.4917 16.6898 37.5 16.6531 37.5C16.5686 37.5 16.5193 37.4608 16.505 37.4391Z" fill="black" stroke="#EE3F58"/>
<path d="M41.7532 23.4771L41.7531 23.4772C41.7242 23.4917 41.6898 23.5 41.6531 23.5C41.5688 23.5 41.5194 23.4609 41.505 23.439L41.7532 23.4771ZM41.7532 23.4771L43.4481 22.6201C43.4481 22.6201 43.4481 22.6201 43.4481 22.6201C43.4905 22.5986 43.4987 22.5759 43.4995 22.573C43.4999 22.5718 43.5 22.5711 43.5 22.571C43.5 22.5709 43.5 22.5708 43.5 22.5709L43.4999 22.5705L43.4994 22.5691C43.499 22.5678 43.4978 22.565 43.495 22.5609C43.4848 22.5453 43.4568 22.5192 43.4022 22.5063C43.348 22.4936 43.2914 22.5004 43.2469 22.5228C43.2469 22.5228 43.2469 22.5228 43.2469 22.5228C43.2469 22.5228 43.2468 22.5228 43.2468 22.5229L41.5519 23.3799C41.5519 23.3799 41.5519 23.3799 41.5519 23.3799C41.5095 23.4013 41.5013 23.4241 41.5005 23.4269C41.5001 23.4282 41.5 23.4288 41.5 23.429C41.5 23.4291 41.5 23.4291 41.5 23.4291L41.5001 23.4294L41.5006 23.4309C41.501 23.4321 41.5022 23.4349 41.5049 23.439L41.7532 23.4771Z" fill="black" stroke="#EE3F58"/>
<path d="M37.439 16.505L37.4389 16.505C37.4348 16.5022 37.432 16.501 37.4308 16.5005L37.4293 16.5001L37.429 16.5C37.429 16.5 37.429 16.5 37.429 16.5M37.439 16.505L37.429 16.5M37.439 16.505C37.4546 16.5153 37.4808 16.5433 37.4937 16.5979C37.5064 16.6521 37.4996 16.7087 37.4772 16.7531C37.4772 16.7531 37.4772 16.7532 37.4772 16.7532M37.439 16.505L37.4772 16.7532M37.429 16.5C37.429 16.5 37.429 16.5 37.429 16.5C37.4288 16.5 37.4282 16.5001 37.4269 16.5005C37.4241 16.5013 37.4014 16.5095 37.3799 16.5519L37.3799 16.552L36.5228 18.247L36.5228 18.247C36.5004 18.2914 36.4936 18.348 36.5063 18.4021C36.5192 18.4568 36.5453 18.4847 36.561 18.495L36.5611 18.4951C36.5664 18.4986 36.5694 18.4996 36.5701 18.4998L36.5708 18.5M37.429 16.5L36.5708 18.5M36.5708 18.5C36.5708 18.5 36.5708 18.5 36.5708 18.5C36.5708 18.5 36.5709 18.5 36.571 18.5M36.5708 18.5L37.9234 16.9787C38.0811 16.6667 37.9875 16.2677 37.7142 16.0876C37.441 15.9073 37.0915 16.0142 36.9337 16.3263L36.0766 18.0213C35.9189 18.3333 36.0125 18.7324 36.2858 18.9125C36.3758 18.9719 36.474 19 36.571 19C36.7684 19 36.9605 18.883 37.0663 18.6737L36.6201 18.4481M36.5708 18.5C36.5708 18.5 36.5709 18.5 36.571 18.5M36.5708 18.5L36.571 18.5M36.571 18.5C36.5718 18.4999 36.5755 18.4993 36.582 18.4951C36.5901 18.4899 36.6055 18.4769 36.6201 18.4481M36.6201 18.4481C36.6202 18.4481 36.6202 18.4481 36.6202 18.448L37.4772 16.7532M36.6201 18.4481L37.4772 16.7532" fill="black" stroke="#EE3F58"/>
<path d="M22.5228 43.2469L22.5228 43.2469C22.5004 43.2913 22.4936 43.348 22.5063 43.4021C22.5192 43.4568 22.5453 43.4847 22.561 43.495L22.5611 43.4951C22.5664 43.4986 22.5694 43.4996 22.5701 43.4998L22.5709 43.5L22.571 43.5C22.5699 43.5 22.5738 43.5005 22.582 43.4951C22.5901 43.4899 22.6055 43.4769 22.6201 43.4481L22.5228 43.2469ZM22.5228 43.2469L23.3799 41.5519M22.5228 43.2469L23.3799 41.5519M23.4291 41.5C23.4291 41.5 23.4291 41.5 23.4291 41.5L23.4294 41.5001L23.4308 41.5005C23.4321 41.501 23.4349 41.5022 23.439 41.505C23.4546 41.5153 23.4808 41.5432 23.4937 41.5979C23.5064 41.6521 23.4996 41.7087 23.4772 41.7531C23.4772 41.7531 23.4772 41.7531 23.4772 41.7531L22.6202 43.448L23.4291 41.5ZM23.4291 41.5C23.429 41.5 23.429 41.5 23.429 41.5C23.4289 41.5 23.4282 41.5001 23.4269 41.5005C23.4241 41.5013 23.4014 41.5095 23.3799 41.5519M23.4291 41.5L23.3799 41.5519M23.3799 41.5519C23.3799 41.5519 23.3799 41.5519 23.3799 41.5519M23.3799 41.5519L23.3799 41.5519" fill="black" stroke="#EE3F58"/>
<path d="M43.2469 37.4772L43.247 37.4772C43.2756 37.4917 43.3098 37.5 43.3469 37.5C43.4312 37.5 43.4806 37.4609 43.495 37.439L43.2469 37.4772ZM43.2469 37.4772L41.5519 36.6201M43.2469 37.4772L41.5519 36.6201M41.7531 36.5229L41.753 36.5228C41.7087 36.5004 41.6521 36.4936 41.598 36.5063C41.5433 36.5192 41.5153 36.5453 41.505 36.561L41.505 36.5611C41.5022 36.5652 41.501 36.568 41.5005 36.5693L41.5001 36.5707L41.5 36.571C41.5 36.571 41.5 36.571 41.5 36.571M41.7531 36.5229L41.5 36.571M41.7531 36.5229L43.4481 37.3799C43.4481 37.3799 43.4481 37.3799 43.4481 37.3799M41.7531 36.5229L43.4481 37.3799M41.5 36.571C41.5 36.571 41.5 36.5711 41.5 36.5711C41.5 36.5712 41.5001 36.5719 41.5005 36.5731C41.5013 36.5759 41.5095 36.5987 41.5519 36.6201M41.5 36.571L41.5519 36.6201M41.5519 36.6201C41.5519 36.6201 41.5519 36.6201 41.5519 36.6201M41.5519 36.6201L41.5519 36.6201M43.4481 37.3799C43.4905 37.4014 43.4987 37.4241 43.4995 37.427M43.4481 37.3799L43.4995 37.427M43.4995 37.427C43.4999 37.4282 43.5 37.4289 43.5 37.429M43.4995 37.427L43.5 37.429M43.5 37.429C43.5 37.429 43.5 37.4291 43.5 37.4291M43.5 37.429L43.5 37.4291M43.5 37.4291L43.5 37.4291M43.5 37.4291L43.5 37.4291M43.5 37.4291L43.4999 37.4295L43.4995 37.4309C43.499 37.4322 43.4978 37.4349 43.4951 37.439L43.5 37.4291Z" fill="black" stroke="#EE3F58"/>
<path d="M16.7531 22.5229L16.753 22.5228C16.7086 22.5004 16.652 22.4936 16.5979 22.5063C16.5433 22.5192 16.5153 22.5453 16.505 22.561C16.5022 22.5651 16.501 22.5679 16.5005 22.5692L16.5001 22.5706L16.5 22.5709C16.5 22.5709 16.5 22.5709 16.5 22.571M16.7531 22.5229L16.5 22.571M16.7531 22.5229L18.4481 23.3799C18.4481 23.3799 18.4481 23.3799 18.4481 23.3799C18.4905 23.4014 18.4987 23.4241 18.4995 23.427C18.4999 23.4282 18.5 23.4289 18.5 23.4291C18.5 23.4291 18.5 23.4291 18.5 23.4291C18.5 23.4292 18.5 23.4292 18.5 23.4292L18.4999 23.4295L18.4994 23.431C18.499 23.4322 18.4978 23.435 18.4951 23.4391C18.4806 23.4609 18.4312 23.5 18.3469 23.5C18.3098 23.5 18.2757 23.4917 18.247 23.4772L18.2469 23.4772M16.7531 22.5229L18.2469 23.4772M16.5 22.571C16.5 22.571 16.5 22.571 16.5 22.571C16.5 22.5712 16.5001 22.5718 16.5005 22.5731C16.5013 22.5759 16.5095 22.5987 16.5519 22.6201M16.5 22.571L16.5519 22.6201M16.5519 22.6201C16.5519 22.6201 16.5519 22.6201 16.5519 22.6201M16.5519 22.6201L16.5519 22.6201M16.5519 22.6201L18.2469 23.4772M16.5519 22.6201L18.2469 23.4772" fill="black" stroke="#EE3F58"/>
<path d="M30.7782 31.1855L30.9776 30.9304C31.1958 30.6515 31.3319 30.2846 31.3319 29.8777C31.3319 29.1582 30.911 28.5764 30.3737 28.3679L30.0546 28.2441V27.9018V18.6987C30.0546 18.6297 30.0292 18.5756 29.9985 18.542C29.9684 18.5091 29.9388 18.5 29.9159 18.5C29.893 18.5 29.8634 18.5091 29.8334 18.542C29.8027 18.5756 29.7773 18.6297 29.7773 18.6987V27.9018V28.2441L29.4581 28.3679C28.9209 28.5764 28.5 29.1582 28.5 29.8777C28.5 30.8006 29.1769 31.4737 29.9159 31.4737C30 31.4737 30.0836 31.4648 30.1667 31.448L30.5334 31.3738L30.708 31.7047L34.2504 38.4171C34.2861 38.4849 34.3351 38.5 34.3618 38.5C34.3757 38.5 34.393 38.4965 34.4136 38.4836L30.7782 31.1855ZM30.7782 31.1855L30.9293 31.4718L34.4721 38.1852L34.9143 37.9519M30.7782 31.1855L34.9143 37.9519M34.9143 37.9519L34.4721 38.1853C34.5355 38.3053 34.4826 38.4398 34.4137 38.4835L34.9143 37.9519ZM29.9159 28.679C29.2463 28.679 28.7773 29.2595 28.7773 29.8777C28.7773 30.4958 29.2463 31.0764 29.9159 31.0764C30.5855 31.0764 31.0546 30.4958 31.0546 29.8777C31.0546 29.2595 30.5855 28.679 29.9159 28.679Z" fill="black" stroke="#EE3F58"/>
<circle cx="30" cy="30" r="29.5" stroke="#EE3F58"/>
</svg>
