<svg width="121" height="50" viewBox="0 0 121 50" fill="none" xmlns="http://www.w3.org/2000/svg">
<path d="M57.189 24.083V38.3789H52.7236V3.07439H64.5666C65.9802 3.0444 67.3857 3.29904 68.7019 3.82362C70.0181 4.3482 71.219 5.13233 72.2353 6.13075C73.2619 7.06856 74.0789 8.21869 74.6314 9.50383C75.1839 10.789 75.4592 12.1793 75.4387 13.5815C75.4681 14.9912 75.1971 16.3906 74.6442 17.684C74.0912 18.9773 73.2695 20.1339 72.2353 21.0745C70.1644 23.0802 67.6082 24.0821 64.5666 24.0802H57.189V24.083ZM57.189 7.4209V19.7449H64.6775C65.4985 19.7697 66.3155 19.6201 67.0762 19.3058C67.837 18.9914 68.5248 18.5193 69.0957 17.9196C69.6636 17.3588 70.115 16.6881 70.4232 15.9471C70.7315 15.2061 70.8903 14.4099 70.8903 13.6055C70.8903 12.801 70.7315 12.0048 70.4232 11.2638C70.115 10.5228 69.6636 9.85208 69.0957 9.29134C68.532 8.67896 67.8466 8.19527 67.0849 7.87231C66.3232 7.54936 65.5026 7.39453 64.6775 7.41809H57.189V7.4209Z" fill="#5F6368"/>
<path d="M85.7286 13.4351C89.0291 13.4351 91.6344 14.3308 93.5444 16.1224C95.4544 17.914 96.4085 20.3703 96.4067 23.4915V38.3789H92.1354V35.0268H91.9413C90.0923 37.7874 87.6331 39.1677 84.5637 39.1677C81.9437 39.1677 79.7517 38.3789 77.9877 36.8014C77.1412 36.0774 76.4644 35.1707 76.0067 34.1473C75.5489 33.1239 75.3218 32.0097 75.3418 30.8859C75.3418 28.3863 76.2718 26.3985 78.132 24.9225C79.9921 23.4464 82.4753 22.7065 85.5816 22.7027C88.2331 22.7027 90.4168 23.1957 92.1327 24.1816V23.145C92.1377 22.3788 91.9748 21.6211 91.6558 20.9268C91.3368 20.2326 90.8697 19.6191 90.2883 19.1309C89.1074 18.0488 87.5685 17.4584 85.9782 17.4773C83.4839 17.4773 81.5101 18.5459 80.0568 20.683L76.1239 18.1675C78.2873 15.0125 81.4888 13.4351 85.7286 13.4351ZM79.9514 30.9845C79.9484 31.5617 80.0812 32.1312 80.3389 32.6457C80.5965 33.1602 80.9714 33.6047 81.4324 33.9423C82.42 34.7313 83.6458 35.1492 84.9021 35.1254C86.7864 35.1222 88.5926 34.3604 89.925 33.007C91.4042 31.5929 92.1438 29.9338 92.1438 28.0295C90.7515 26.9028 88.81 26.3394 86.3194 26.3394C84.5055 26.3394 82.993 26.7835 81.7819 27.6718C80.5588 28.5732 79.9514 29.669 79.9514 30.9845Z" fill="#5F6368"/>
<path d="M120.925 14.2241L106.014 49.0272H101.405L106.938 36.8496L97.1333 14.2241H101.987L109.073 31.5763H109.17L116.063 14.2241H120.925Z" fill="#5F6368"/>
<path d="M39.1446 21.0017C39.1463 19.6195 39.0312 18.2398 38.8007 16.8777H19.9685V24.689H30.7547C30.534 25.9366 30.0668 27.1259 29.3814 28.1851C28.6959 29.2444 27.8064 30.1517 26.7664 30.8524V35.9229H33.2037C36.9729 32.3933 39.1446 27.1735 39.1446 21.0017Z" fill="#4285F4"/>
<path d="M19.9685 40.821C25.3574 40.821 29.8949 39.0238 33.2037 35.9252L26.7664 30.8548C24.9747 32.0886 22.6671 32.7928 19.9685 32.7928C14.7598 32.7928 10.3388 29.2266 8.75794 24.4209H2.12646V29.6463C3.78854 33.0054 6.33715 35.8292 9.48777 37.8025C12.6384 39.7758 16.267 40.8209 19.9685 40.821Z" fill="#34A853"/>
<path d="M8.75786 24.4215C7.92209 21.9033 7.92209 19.1762 8.75786 16.658V11.4326H2.12638C0.72818 14.2584 0 17.3772 0 20.5397C0 23.7023 0.72818 26.8211 2.12638 29.6469L8.75786 24.4215Z" fill="#FBBC04"/>
<path d="M19.9685 8.28591C22.8163 8.23866 25.5681 9.33148 27.629 11.3282L33.3285 5.53941C29.7144 2.09171 24.9265 0.198864 19.9685 0.257678C16.267 0.25785 12.6384 1.30291 9.48777 3.27619C6.33716 5.24946 3.78854 8.07329 2.12646 11.4324L8.75794 16.6578C10.3388 11.8521 14.7598 8.28591 19.9685 8.28591Z" fill="#EA4335"/>
</svg>
