<svg width="60" height="60" viewBox="0 0 60 60" fill="none" xmlns="http://www.w3.org/2000/svg">
<path d="M47.4356 26.8754L46.9468 26.5098C46.338 26.0541 46.122 25.2476 46.4212 24.5486L46.6618 23.9876C47.1506 22.8462 47.075 21.5749 46.4542 20.4999C45.8333 19.4246 44.7704 18.7233 43.5374 18.5763L42.9315 18.5039C42.1763 18.4137 41.5857 17.8231 41.4955 17.0682L41.4234 16.462C41.2761 15.2293 40.5748 14.1662 39.4998 13.5454C38.4245 12.9245 37.1532 12.8488 36.0121 13.3379L35.4508 13.5782C34.7518 13.8777 33.9453 13.6614 33.4896 13.0526L33.124 12.5641C32.38 11.57 31.2416 11 29.9998 11C28.7581 11 27.6196 11.57 26.8757 12.5641L26.5099 13.0526C26.0541 13.6617 25.2479 13.8777 24.5486 13.5782L23.9876 13.3379C22.8462 12.8491 21.5749 12.9245 20.4999 13.5454C19.4246 14.1662 18.7233 15.2293 18.5763 16.462L18.5039 17.0679C18.4137 17.8231 17.8231 18.4137 17.0679 18.5039L16.462 18.5763C15.2293 18.7233 14.1662 19.4246 13.5455 20.4999C12.9245 21.5749 12.8491 22.8462 13.3379 23.9876L13.5782 24.5486C13.8777 25.2476 13.6614 26.0541 13.0526 26.5098L12.5641 26.8754C11.5703 27.6194 11 28.7581 11 29.9995C11 31.2413 11.5703 32.38 12.5641 33.124L13.0529 33.4895C13.6617 33.9453 13.8777 34.7518 13.5785 35.4508L13.3379 36.0118C12.8491 37.1532 12.9247 38.4245 13.5455 39.4995C14.1664 40.5748 15.2293 41.2761 16.4623 41.4231L17.0682 41.4955C17.8234 41.5857 18.414 42.1763 18.5042 42.9312L18.5763 43.5374C18.7236 44.7701 19.4249 45.8332 20.4999 46.4539C21.5752 47.0746 22.8465 47.1503 23.9876 46.6615L24.5489 46.4212C25.2479 46.1217 26.0544 46.338 26.5101 46.9468L26.8757 47.4353C27.6196 48.4294 28.7584 48.9997 30.0001 48.9997C31.2416 48.9997 32.3803 48.4294 33.1243 47.4353L33.4898 46.9468C33.9456 46.338 34.7518 46.1217 35.4514 46.4215L36.0124 46.6615C37.1535 47.1503 38.4248 47.0749 39.5001 46.4542C40.5751 45.8332 41.2764 44.7701 41.4236 43.5374L41.4958 42.9315C41.586 42.1763 42.1766 41.5857 42.9318 41.4955L43.5377 41.4233C44.7704 41.2761 45.8338 40.5748 46.4545 39.4998C47.0752 38.4245 47.1509 37.1532 46.6618 36.0118L46.4218 35.4511C46.1223 34.7518 46.3383 33.9453 46.9474 33.4895L47.4359 33.124C48.43 32.38 49 31.2413 49 29.9998C48.9997 28.7581 48.4294 27.6194 47.4356 26.8754ZM46.5462 31.9356L46.0576 32.3012C44.8983 33.1686 44.4866 34.7043 45.0571 36.0356L45.2972 36.5963C45.6002 37.3034 45.5532 38.0911 45.1688 38.7573C44.784 39.4238 44.1254 39.8581 43.3614 39.9494L42.7555 40.0216C41.3175 40.1932 40.1935 41.3175 40.0219 42.7555L39.9494 43.3614C39.8581 44.1253 39.4238 44.784 38.7576 45.1687C38.0914 45.5532 37.3037 45.6001 36.5966 45.2972L36.0356 45.0568C34.7043 44.4866 33.1689 44.8983 32.3012 46.0576L31.9356 46.5461C31.4746 47.1619 30.769 47.5153 29.9998 47.5153C29.2304 47.5153 28.5248 47.1619 28.0638 46.5461L27.6982 46.0576C27.092 45.2473 26.1596 44.8023 25.1989 44.8023C24.7846 44.8023 24.3651 44.8852 23.9641 45.0568L23.4031 45.2972C22.6957 45.6001 21.9083 45.5532 21.2418 45.1687C20.5756 44.784 20.1413 44.1253 20.05 43.3614L19.9778 42.7555C19.8059 41.3175 18.6819 40.1935 17.2439 40.0219L16.638 39.9494C15.874 39.8581 15.2154 39.4238 14.8306 38.7576C14.4462 38.0914 14.3992 37.3037 14.7022 36.5966L14.9425 36.0356C15.5128 34.7046 15.1011 33.1689 13.9421 32.3012L13.4533 31.9356C12.8375 31.4746 12.4844 30.769 12.4844 29.9995C12.4844 29.2304 12.8375 28.5248 13.4535 28.0638L13.9421 27.6982C15.1014 26.8305 15.5131 25.2948 14.9425 23.9638L14.7025 23.4028C14.3995 22.6957 14.4465 21.908 14.8309 21.2418C15.2156 20.5756 15.8743 20.1413 16.6383 20.05L17.2442 19.9775C18.6822 19.8059 19.8062 18.6819 19.9778 17.2439L20.0503 16.638C20.1416 15.874 20.5759 15.2154 21.2421 14.8306C21.9083 14.4459 22.696 14.3992 23.4031 14.7022L23.9641 14.9423C25.2951 15.5125 26.8308 15.1011 27.6985 13.9418L28.0641 13.4533C28.5251 12.8375 29.2307 12.4841 29.9998 12.4841C30.769 12.4841 31.4746 12.8375 31.9356 13.4533L32.3015 13.9421C33.1689 15.1014 34.7049 15.5128 36.0356 14.9425L36.5966 14.7022C37.3037 14.3992 38.0914 14.4462 38.7576 14.8306C39.4238 15.2154 39.8584 15.874 39.9494 16.638L40.0219 17.2439C40.1935 18.6819 41.3178 19.8059 42.7555 19.9775L43.3614 20.05C44.1254 20.1413 44.784 20.5756 45.1688 21.2418C45.5535 21.908 45.6002 22.6957 45.2975 23.4028L45.0571 23.9638C44.4869 25.2951 44.8983 26.8305 46.0576 27.6982L46.5462 28.0638C47.1622 28.5248 47.5153 29.2304 47.5153 29.9998C47.5153 30.769 47.1622 31.4746 46.5462 31.9356Z" fill="#EE3F58"/>
<path d="M29.9997 15.3138C27.7607 15.3138 25.6107 15.805 23.6097 16.7736C23.2406 16.9522 23.0864 17.396 23.2647 17.7648C23.4433 18.1338 23.8874 18.2881 24.2562 18.1095C26.0539 17.2395 27.9862 16.7982 29.9997 16.7982C37.2792 16.7982 43.2015 22.7206 43.2015 30.0003C43.2015 37.2798 37.2792 43.2022 29.9997 43.2022C22.7199 43.2022 16.7976 37.2798 16.7976 30.0003C16.7976 27.0186 17.7673 24.2052 19.6022 21.8642C19.855 21.5415 19.7985 21.075 19.4758 20.8219C19.1531 20.5691 18.6866 20.6259 18.4338 20.9483C16.3925 23.5535 15.3135 26.6834 15.3135 30.0003C15.3135 38.0982 21.9018 44.6865 29.9997 44.6865C38.0976 44.6865 44.6859 38.0982 44.6859 30.0003C44.6859 21.9022 38.0976 15.3138 29.9997 15.3138Z" fill="#EE3F58"/>
<path d="M19.1484 26.2213L18.5831 26.942C18.33 27.2647 18.3865 27.7312 18.7089 27.984C19.0316 28.2371 19.4981 28.1809 19.7509 27.8582L20.0614 27.4627V32.3713H19.5645C19.1545 32.3713 18.8223 32.7036 18.8223 33.1135C18.8223 33.5235 19.1545 33.8557 19.5645 33.8557H22.0172C22.4268 33.8557 22.7594 33.5235 22.7594 33.1135C22.7594 32.7036 22.4268 32.3713 22.0172 32.3713H21.5458V26.6794C21.5458 26.2694 21.2132 25.9372 20.8036 25.9372H19.7323C19.5045 25.9372 19.289 26.0419 19.1484 26.2213Z" fill="#EE3F58"/>
<path d="M25.1124 33.8557H25.498C26.7238 33.8557 27.7208 32.8587 27.7208 31.6329V28.0353C27.7208 26.8096 26.7235 25.8123 25.498 25.8123H25.1124C23.8867 25.8123 22.8896 26.8096 22.8896 28.0353V31.6329C22.8896 32.8587 23.8867 33.8557 25.1124 33.8557ZM24.374 28.0353C24.374 27.628 24.7054 27.2966 25.1124 27.2966H25.498C25.9051 27.2966 26.2364 27.628 26.2364 28.0353V31.6329C26.2364 32.04 25.9051 32.3713 25.498 32.3713H25.1124C24.7054 32.3713 24.374 32.04 24.374 31.6329V28.0353Z" fill="#EE3F58"/>
<path d="M31.0937 33.8557C32.3195 33.8557 33.3165 32.8587 33.3165 31.6329V28.0353C33.3165 26.8096 32.3192 25.8123 31.0937 25.8123H30.7081C29.4824 25.8123 28.4854 26.8096 28.4854 28.0353V31.6329C28.4854 32.8587 29.4824 33.8557 30.7081 33.8557H31.0937ZM29.9697 31.6329V28.0353C29.9697 27.628 30.3011 27.2966 30.7081 27.2966H31.0937C31.5008 27.2966 31.8322 27.628 31.8322 28.0353V31.6329C31.8322 32.04 31.5008 32.3713 31.0937 32.3713H30.7081C30.3011 32.3713 29.9697 32.0403 29.9697 31.6329Z" fill="#EE3F58"/>
<path d="M40.8956 25.7221C40.5642 25.4812 40.1 25.5546 39.8588 25.8859L35.143 32.3711C34.9018 32.7028 34.9752 33.1669 35.3068 33.4078C35.4385 33.5035 35.5913 33.5499 35.7426 33.5499C35.9719 33.5499 36.1983 33.4438 36.3436 33.244L41.0594 26.7589C41.3006 26.4275 41.227 25.9633 40.8956 25.7221Z" fill="#EE3F58"/>
<path d="M23.3149 22.8957C23.488 22.8957 23.6619 22.8354 23.8025 22.7128C25.5182 21.2145 27.719 20.3894 29.9997 20.3894C32.1335 20.3894 34.1458 21.0846 35.8192 22.3997C36.1416 22.6531 36.6081 22.5971 36.8614 22.2747C37.1145 21.9526 37.0586 21.4859 36.7365 21.2328C34.7987 19.7098 32.4692 18.905 29.9997 18.905C27.3601 18.905 24.8123 19.8603 22.8264 21.5946C22.5176 21.8642 22.4857 22.333 22.7554 22.6417C22.9021 22.8099 23.1079 22.8957 23.3149 22.8957Z" fill="#EE3F58"/>
<path d="M23.1782 38.3998C25.1154 39.9224 27.4452 40.7272 29.9147 40.7272C31.6281 40.7272 33.2684 40.341 34.7905 39.5797C35.1569 39.3965 35.3054 38.9506 35.1221 38.5839C34.9386 38.2174 34.493 38.069 34.1263 38.2522C32.8124 38.9097 31.3953 39.2428 29.9147 39.2428C27.7812 39.2428 25.7686 38.5479 24.0952 37.2326C23.7731 36.9795 23.3064 37.0354 23.0533 37.3575C22.7999 37.6799 22.8558 38.1464 23.1782 38.3998Z" fill="#EE3F58"/>
<path d="M37.2886 37.1303C37.1245 36.8844 36.8172 36.7568 36.527 36.8148C36.2191 36.8766 35.9767 37.134 35.9359 37.4457C35.8959 37.7484 36.053 38.0531 36.322 38.1969C36.5922 38.3415 36.932 38.3018 37.1625 38.0997C37.4397 37.8559 37.4889 37.4367 37.2886 37.1303Z" fill="#EE3F58"/>
<path d="M36.028 25.5803C35.0649 25.5803 34.2812 26.3637 34.2812 27.3268C34.2812 28.2899 35.0649 29.0735 36.028 29.0735C36.9908 29.0735 37.7745 28.2899 37.7745 27.3268C37.7745 26.3637 36.9908 25.5803 36.028 25.5803ZM36.028 27.5892C35.8833 27.5892 35.7656 27.4715 35.7656 27.3268C35.7656 27.1821 35.8833 27.0644 36.028 27.0644C36.1727 27.0644 36.2901 27.1821 36.2901 27.3268C36.2901 27.4715 36.1727 27.5892 36.028 27.5892Z" fill="#EE3F58"/>
<path d="M38.4004 31.85C38.4004 32.8131 39.184 33.5968 40.1469 33.5968C41.11 33.5968 41.8936 32.8131 41.8936 31.85C41.8936 30.8869 41.11 30.1033 40.1469 30.1033C39.184 30.1033 38.4004 30.8869 38.4004 31.85ZM40.4092 31.85C40.4092 31.9947 40.2918 32.1124 40.1471 32.1124C40.0025 32.1124 39.8848 31.9947 39.8848 31.85C39.8848 31.7054 40.0025 31.5876 40.1471 31.5876C40.2918 31.5876 40.4092 31.7054 40.4092 31.85Z" fill="#EE3F58"/>
<path d="M20.6096 19.4205C20.729 19.7072 21.0207 19.8922 21.3309 19.8777C21.6371 19.8632 21.9061 19.6539 22.0006 19.3634C22.096 19.07 21.9922 18.7348 21.7464 18.5478C21.4956 18.3571 21.1454 18.3461 20.8827 18.5197C20.5899 18.7131 20.4774 19.0978 20.6096 19.4205Z" fill="#EE3F58"/>
<circle cx="30" cy="30" r="29.5" stroke="#EE3F58"/>
</svg>
