<svg width="108" height="67" viewBox="0 0 108 67" fill="none" xmlns="http://www.w3.org/2000/svg">
<path d="M54.1957 57.7342C60.6673 51.638 64.7546 42.9292 64.7546 33.3495C64.7546 23.5956 60.6673 14.8868 54.1957 8.96482C48.4053 3.73953 40.9118 0.430176 32.5668 0.430176C14.6847 0.430176 0.20874 15.2352 0.20874 33.3495C0.20874 51.638 14.6847 66.443 32.5668 66.443C40.9118 66.2688 48.4053 62.9595 54.1957 57.7342Z" fill="#3362AB"/>
<path d="M54.1956 57.7347C60.6672 51.6385 64.7545 42.9297 64.7545 33.35C64.7545 23.5961 60.6672 14.8873 54.1956 8.96533" fill="#3362AB"/>
<path d="M54.1956 57.7347C60.6672 51.6385 64.7545 42.9297 64.7545 33.35C64.7545 23.5961 60.6672 14.8873 54.1956 8.96533" stroke="#3362AB" stroke-width="0.3097"/>
<path d="M75.8246 0.256348C67.4796 0.256348 59.8158 3.56569 54.1957 8.79097C53.0036 9.83603 51.9818 11.0553 50.9599 12.2745H57.4315C58.2831 13.3196 59.1346 14.5388 59.8158 15.758H48.4053C47.7241 16.8031 47.0429 18.0223 46.532 19.2416H61.6892C62.2001 20.4608 62.711 21.5058 63.0517 22.7251H45.1695C44.8289 23.9443 44.4883 24.9894 44.1477 26.2086H63.9032C64.4141 28.4729 64.5844 30.7372 64.5844 33.1757C64.5844 36.8334 64.0735 40.3169 62.8813 43.6262H44.9992C45.3398 44.8455 45.8507 46.0647 46.3617 47.1098H61.5189C61.0079 48.329 60.3268 49.5482 59.6455 50.5933H48.235C48.9163 51.8125 49.7678 53.0317 50.6193 54.0768H57.091C56.0691 55.296 55.0472 56.5153 53.8551 57.5603C59.6455 62.7856 67.139 66.095 75.484 66.095C93.3661 66.095 107.672 51.29 107.672 33.0015C108.183 15.0613 93.7067 0.256348 75.8246 0.256348Z" fill="#C9191B"/>
<path d="M28.4793 41.3622H24.392L26.7762 28.4732L21.3265 41.3622H17.7501L17.0689 28.6474L14.6845 41.3622H11.1082L14.1736 24.6414H20.475L20.8155 35.0919L25.2435 24.6414H31.7151L28.4793 41.3622Z" fill="white"/>
<path d="M73.44 41.3619C72.4181 41.7103 71.3963 41.8845 70.5448 41.8845C68.5012 41.8845 67.309 40.8394 67.309 38.9235C67.309 38.5751 67.309 38.0526 67.4793 37.7043L67.6496 36.3108L67.8199 35.2658L69.6933 24.8152H73.6103L73.0994 27.9504H75.143L74.6321 31.2597H72.5885L71.5667 37.0075C71.5667 37.1817 71.5667 37.5301 71.5667 37.5301C71.5667 38.2268 72.0776 38.5751 72.9291 38.5751C73.44 38.5751 73.7806 38.5751 73.9509 38.4009L73.44 41.3619Z" fill="white"/>
<path d="M85.0211 27.9505C84.6805 27.7764 84.6804 27.7764 84.5101 27.7764C84.3398 27.7764 84.1695 27.7764 84.1695 27.7764C83.9992 27.7764 83.8289 27.7764 83.6586 27.7764C82.2962 27.7764 81.4447 28.2989 80.0822 30.0406L80.4228 27.9505H77.187L74.8027 41.5363H78.8901C80.2525 33.1758 80.9337 31.7824 82.8071 31.7824C82.9774 31.7824 83.1477 31.7824 83.318 31.7824L83.8289 31.9566L85.0211 27.9505Z" fill="white"/>
<path d="M57.4314 32.1304C57.4314 33.8722 58.4532 35.0914 60.4969 35.9623C62.2 36.659 62.3702 36.8332 62.3702 37.5299C62.3702 38.4007 61.689 38.7491 59.9859 38.7491C58.7938 38.7491 57.6017 38.5749 56.4095 38.2266L55.8986 41.3617H56.0689L56.7501 41.5359C56.9205 41.5359 57.4314 41.7101 57.772 41.7101C58.7938 41.7101 59.475 41.8843 59.9859 41.8843C64.2436 41.8843 66.2873 40.4909 66.2873 37.3557C66.2873 35.4398 65.4357 34.3947 63.3921 33.5238C61.689 32.8271 61.5187 32.6529 61.5187 31.9562C61.5187 31.2595 62.1999 30.9111 63.5624 30.9111C64.4139 30.9111 65.4358 30.9112 66.4576 31.0853L66.9685 27.9502C65.9467 27.776 64.4139 27.6018 63.3921 27.6018C58.9641 27.6018 57.4314 29.6919 57.4314 32.1304Z" fill="white"/>
<path d="M38.6979 35.4397C38.187 35.4397 38.0167 35.4397 37.8464 35.4397C35.6324 35.4397 34.4403 36.1364 34.4403 37.5299C34.4403 38.4007 34.9512 38.9233 35.8027 38.9233C37.3355 38.7491 38.5276 37.3557 38.6979 35.4397ZM41.5931 41.3617H38.187L38.3573 39.9683C37.3355 41.0134 35.973 41.5359 34.0997 41.5359C31.8857 41.5359 30.5233 39.9683 30.5233 37.8782C30.5233 34.5689 33.0779 32.6529 37.5058 32.6529C38.0167 32.6529 38.5276 32.6529 39.2089 32.8271C39.3792 32.3046 39.3791 32.1304 39.3791 31.9562C39.3791 31.0853 38.6979 30.737 36.8245 30.737C35.6324 30.737 34.4403 30.9112 33.5887 31.0853L33.0778 31.2595L32.7372 31.4337L33.2482 28.2985C35.2918 27.776 36.4839 27.6018 38.0167 27.6018C41.4228 27.6018 43.2962 28.9952 43.2962 31.6079C43.2962 32.3046 43.2962 32.8271 42.9555 34.2205L42.104 39.0975L41.9337 39.9683L41.7634 40.665V41.1876L41.5931 41.3617Z" fill="white"/>
<path d="M52.6631 33.0016C52.6631 32.6533 52.6631 32.4791 52.6631 32.3049C52.6631 31.2599 51.9819 30.5632 50.7897 30.5632C49.4273 30.5632 48.5758 31.4341 48.2351 33.0016H52.6631ZM54.7067 41.1879C53.3443 41.5363 51.9819 41.7105 50.6194 41.7105C46.1915 41.7105 43.8072 39.6203 43.8072 35.6143C43.8072 30.9115 46.7024 27.428 50.7897 27.428C54.0255 27.428 56.2395 29.3439 56.2395 32.3049C56.2395 33.35 56.0692 34.2209 55.7286 35.6143H47.7243C47.7243 35.7885 47.7243 35.9626 47.7243 35.9626C47.7243 37.5302 48.9163 38.4011 51.3006 38.4011C52.6631 38.4011 54.0255 38.0527 55.5583 37.5302L54.7067 41.1879Z" fill="white"/>
<path d="M93.3658 33.5238C93.3658 32.1304 92.8549 30.737 91.1518 30.737C89.1081 30.737 87.9159 33.1755 87.9159 35.4397C87.9159 37.3557 88.7675 38.5749 90.3003 38.5749C91.1518 38.5749 93.0251 37.3557 93.3658 35.2656C93.3658 34.743 93.3658 34.0463 93.3658 33.5238ZM97.6234 35.2656C96.9422 39.7941 93.8767 41.8843 89.7893 41.8843C85.1911 41.8843 83.488 39.0975 83.488 35.6139C83.488 30.737 86.5535 27.6018 91.3221 27.6018C95.5797 27.6018 97.6234 30.2145 97.6234 33.698C97.7937 34.3947 97.7937 34.3947 97.6234 35.2656Z" fill="white"/>
</svg>
