<svg width="176" height="84" viewBox="0 0 176 84" fill="none" xmlns="http://www.w3.org/2000/svg">
<path d="M31.6157 49.4655C30.9345 48.943 30.0829 48.5946 29.2314 48.4204C28.3799 48.0721 27.5283 48.0721 26.6768 48.0721C26.1659 48.0721 25.655 48.0721 25.1441 48.2463C24.6332 48.4204 24.2925 48.5946 23.9519 48.7688C23.6113 48.943 23.2707 49.2913 23.1004 49.6397C22.9301 49.988 22.7598 50.3364 22.7598 50.6847C22.7598 51.0331 22.7598 51.3814 22.9301 51.5556C23.1004 51.7298 23.2707 52.0781 23.6113 52.2523C23.9519 52.4265 24.2925 52.6007 24.8035 52.7748C25.3144 52.949 25.8253 52.949 26.3362 53.1232L27.5283 53.2974C28.2096 53.4715 28.8908 53.4715 29.572 53.8199C30.2532 53.9941 30.7642 54.3424 31.2751 54.6908C31.786 55.0391 32.2969 55.5617 32.4672 56.0842C32.8078 56.6067 32.9781 57.3034 32.9781 58.1743C32.9781 59.0452 32.8078 59.9161 32.4672 60.6128C32.1266 61.3095 31.6157 61.832 30.9345 62.3545C30.2532 62.8771 29.572 63.2254 28.7205 63.3996C27.869 63.5738 27.0174 63.7479 25.9956 63.7479C25.4847 63.7479 24.8035 63.7479 24.1222 63.5738C23.441 63.3996 22.9301 63.3996 22.2489 63.0512C21.5676 62.8771 21.0567 62.5287 20.5458 62.3545C20.0349 62.0062 19.524 61.6578 19.0131 61.3095L20.5458 59.0452C20.8864 59.3935 21.227 59.5677 21.5676 59.7419C21.9083 59.9161 22.4192 60.2644 22.9301 60.4386C23.441 60.6128 23.9519 60.7869 24.4628 60.7869C24.9738 60.9611 25.4847 60.9611 25.9956 60.9611C26.5065 60.9611 27.0174 60.9611 27.5283 60.7869C28.0393 60.6128 28.3799 60.4386 28.7205 60.2644C29.0611 60.0902 29.4017 59.7419 29.572 59.3935C29.7423 59.0452 29.9126 58.6968 29.9126 58.3485C29.9126 57.6518 29.572 57.1292 28.8908 56.7809C28.2096 56.4325 27.1877 56.0842 25.9956 55.91L25.1441 55.7358C24.4628 55.5617 23.9519 55.5617 23.2707 55.2133C22.5895 55.0391 22.0786 54.6908 21.5676 54.3424C21.0567 53.9941 20.7161 53.4715 20.3755 52.949C20.0349 52.4265 19.8646 51.7298 19.8646 50.8589C19.8646 49.988 20.0349 49.1171 20.3755 48.5946C20.7161 47.8979 21.227 47.3754 21.9083 46.8528C22.5895 46.3303 23.2707 45.982 24.1222 45.8078C24.9738 45.6336 25.8253 45.4594 26.6768 45.4594C27.869 45.4594 29.0611 45.6336 30.0829 45.982C31.1048 46.3303 31.9563 46.8528 32.9781 47.3754L31.6157 49.4655ZM41.1528 50.8589C42.0043 50.8589 42.6856 51.0331 43.3668 51.3814C44.048 51.7298 44.5589 52.0781 45.0698 52.6007C45.5807 53.1232 45.9214 53.8199 46.262 54.5166C46.6026 55.2133 46.6026 56.0842 46.6026 57.1292C46.6026 57.3034 46.6026 57.4776 46.6026 57.6518C46.6026 57.8259 46.6026 58.0001 46.6026 58.1743H37.917C37.917 58.6968 38.0873 59.2194 38.4279 59.5677C38.5982 59.9161 38.9388 60.2644 39.2794 60.4386C39.6201 60.6128 39.9607 60.7869 40.3013 60.9611C40.6419 61.1353 41.1528 61.1353 41.4934 61.1353C42.0043 61.1353 42.6856 60.9611 43.1965 60.7869C43.7074 60.6128 44.3886 60.2644 44.8995 59.9161L46.262 61.832C45.5807 62.5287 44.7292 62.8771 44.048 63.2254C43.1965 63.3996 42.3449 63.5738 41.4934 63.5738C40.6419 63.5738 39.7904 63.3996 39.1091 63.0512C38.4279 62.7029 37.7467 62.3545 37.2358 61.832C36.7249 61.3095 36.2139 60.6128 36.0436 59.9161C35.703 59.2194 35.5327 58.3485 35.5327 57.3034C35.5327 56.4325 35.703 55.5617 36.0436 54.6908C36.3842 53.9941 36.7249 53.2974 37.2358 52.6007C37.7467 52.0781 38.4279 51.5556 39.1091 51.3814C39.4497 51.0331 40.131 50.8589 41.1528 50.8589ZM40.9825 53.2974C40.4716 53.2974 40.131 53.2974 39.7904 53.4715C39.4497 53.6457 39.1091 53.8199 38.9388 54.1682C38.5982 54.5166 38.4279 54.6908 38.2576 55.0391C38.0873 55.3875 37.917 55.7358 37.917 56.2584H44.048C43.8777 55.3875 43.5371 54.5166 43.0262 53.9941C42.5152 53.4715 41.834 53.2974 40.9825 53.2974ZM54.6069 50.8589C55.4585 50.8589 56.31 51.0331 56.9912 51.3814C57.6725 51.7298 58.3537 52.2523 58.8646 52.7748L57.1615 54.5166C56.8209 54.1682 56.31 53.8199 55.7991 53.6457C55.2882 53.4715 54.7773 53.2974 54.2663 53.2974C53.7554 53.2974 53.2445 53.4715 52.9039 53.6457C52.393 53.8199 52.0524 54.1682 51.8821 54.5166C51.5414 54.865 51.3711 55.2133 51.2008 55.7358C51.0305 56.2584 50.8602 56.7809 50.8602 57.3034C50.8602 57.8259 51.0305 58.3485 51.2008 58.871C51.3711 59.3935 51.5414 59.7419 51.8821 60.0902C52.2227 60.4386 52.5633 60.6128 52.9039 60.9611C53.2445 61.1353 53.7554 61.3095 54.2663 61.3095C54.7773 61.3095 55.2882 61.1353 55.7991 60.9611C56.31 60.7869 56.6506 60.4386 57.1615 60.0902L58.6943 61.832C58.1834 62.5287 57.5021 62.8771 56.8209 63.2254C56.1397 63.5738 55.2882 63.7479 54.4366 63.7479C53.5851 63.7479 52.7336 63.5738 51.8821 63.2254C51.2008 62.8771 50.5196 62.5287 50.0087 61.832C49.4978 61.3095 48.9869 60.6128 48.8166 59.7419C48.4759 59.0452 48.3056 58.1743 48.3056 57.3034C48.3056 56.4325 48.4759 55.5617 48.8166 54.865C49.1572 54.1682 49.4978 53.4715 50.0087 52.7748C50.5196 52.2523 51.2008 51.7298 51.8821 51.3814C52.9039 51.0331 53.7554 50.8589 54.6069 50.8589ZM72.3187 58.1743C72.3187 59.0452 72.1484 59.9161 71.8078 60.6128C71.4672 61.3095 71.1266 61.832 70.6157 62.3545C70.1048 62.8771 69.5939 63.0512 68.9126 63.3996C68.2314 63.5738 67.5502 63.7479 66.869 63.7479C66.1877 63.7479 65.5065 63.5738 64.8253 63.3996C64.1441 63.2254 63.6332 62.8771 63.1222 62.3545C62.6113 62.0062 62.2707 61.3095 61.9301 60.6128C61.5895 59.9161 61.4192 59.0452 61.4192 58.1743V51.2073H63.9738V57.8259C63.9738 58.3485 63.9738 58.871 64.1441 59.2194C64.3144 59.5677 64.4847 59.9161 64.8253 60.2644C65.1659 60.4386 65.3362 60.6128 65.6768 60.7869C66.0174 60.9611 66.358 60.9611 66.869 60.9611C67.2096 60.9611 67.7205 60.9611 68.0611 60.7869C68.4017 60.6128 68.7423 60.4386 68.9126 60.2644C69.2532 60.0902 69.4235 59.7419 69.5939 59.2194C69.7642 58.871 69.7642 58.3485 69.7642 57.8259V51.2073H72.3187V58.1743ZM81.6856 50.8589C82.0262 50.8589 82.3668 50.8589 82.7074 50.8589C83.048 50.8589 83.3886 51.0331 83.5589 51.0331L82.8777 53.6457C82.5371 53.4715 82.3668 53.4715 81.8559 53.2974C81.5153 53.2974 81.1746 53.1232 80.834 53.1232C80.4934 53.1232 79.9825 53.1232 79.6419 53.2974C79.3013 53.4715 78.9607 53.6457 78.7904 53.9941C78.6201 54.3424 78.2794 54.6908 78.2794 55.0391C78.1091 55.3875 78.1091 55.91 78.1091 56.4325V63.0512H75.5546V51.0331H78.1091V52.4265C78.4497 51.904 78.9607 51.3814 79.6419 51.2073C80.1528 51.0331 80.834 50.8589 81.6856 50.8589ZM90.2008 50.8589C91.0524 50.8589 91.7336 51.0331 92.4148 51.3814C93.096 51.7298 93.6069 52.0781 94.1179 52.6007C94.6288 53.1232 94.9694 53.8199 95.31 54.5166C95.6506 55.2133 95.6506 56.0842 95.6506 57.1292C95.6506 57.3034 95.6506 57.4776 95.6506 57.6518C95.6506 57.8259 95.6506 58.0001 95.6506 58.1743H87.1353C87.1353 58.6968 87.3056 59.2194 87.6463 59.5677C87.8166 59.9161 88.1572 60.2644 88.4978 60.4386C88.8384 60.6128 89.179 60.7869 89.5196 60.9611C89.8602 61.1353 90.3711 61.1353 90.7118 61.1353C91.2227 61.1353 91.9039 60.9611 92.4148 60.7869C92.9257 60.6128 93.6069 60.2644 94.1179 59.9161L95.31 61.832C94.6288 62.5287 93.7773 62.8771 93.096 63.2254C92.2445 63.3996 91.393 63.5738 90.5415 63.5738C89.6899 63.5738 88.8384 63.3996 88.1572 63.0512C87.4759 62.7029 86.7947 62.3545 86.2838 61.832C85.7729 61.3095 85.262 60.6128 85.0917 59.9161C84.7511 59.2194 84.5808 58.3485 84.5808 57.3034C84.5808 56.4325 84.7511 55.5617 85.0917 54.6908C85.4323 53.9941 85.7729 53.2974 86.2838 52.6007C86.7947 52.0781 87.4759 51.5556 88.1572 51.3814C88.4978 51.0331 89.3493 50.8589 90.2008 50.8589ZM90.2008 53.2974C89.6899 53.2974 89.3493 53.2974 89.0087 53.4715C88.6681 53.6457 88.3275 53.8199 88.1572 54.1682C87.8166 54.5166 87.6463 54.6908 87.476 55.0391C87.3056 55.3875 87.1353 55.7358 87.1353 56.2584H93.2663C93.096 55.3875 92.7554 54.5166 92.2445 53.9941C91.7336 53.4715 91.0524 53.2974 90.2008 53.2974ZM106.891 45.2853C107.572 45.2853 108.424 45.2853 109.105 45.4594C109.786 45.6336 110.467 45.8078 111.148 46.1561C111.83 46.5045 112.341 46.8528 112.851 47.3754C113.362 47.8979 113.703 48.4204 114.044 48.943L111.659 50.5105C111.148 49.6397 110.467 49.1171 109.616 48.5946C108.764 48.0721 107.913 47.8979 106.891 47.8979C106.039 47.8979 105.188 48.0721 104.507 48.4204C103.825 48.7688 103.144 49.1171 102.633 49.8138C102.122 50.3364 101.611 51.0331 101.441 51.904C101.1 52.7748 100.93 53.4715 100.93 54.5166C100.93 55.3875 101.1 56.2584 101.441 57.1292C101.782 58.0001 102.122 58.5227 102.633 59.2194C103.144 59.7419 103.825 60.2644 104.507 60.4386C105.188 60.7869 106.039 60.9611 106.891 60.9611C107.913 60.9611 108.764 60.7869 109.616 60.2644C110.467 59.7419 111.148 59.2194 111.659 58.3485L113.873 60.0902C113.533 60.6128 113.022 61.1353 112.511 61.6578C112 62.1804 111.489 62.5287 110.808 62.7029C110.127 63.0512 109.616 63.2254 108.934 63.3996C108.253 63.5738 107.572 63.5738 106.72 63.5738C105.358 63.5738 104.166 63.3996 103.144 62.8771C102.122 62.3545 101.1 61.832 100.249 60.9611C99.3973 60.0902 98.8864 59.2194 98.3755 58.0001C97.8646 56.9551 97.6943 55.7358 97.6943 54.3424C97.6943 52.949 97.8646 51.7298 98.3755 50.6847C98.8864 49.6397 99.3973 48.5946 100.249 47.7237C101.1 46.8528 101.952 46.3303 103.144 45.8078C104.336 45.6336 105.528 45.2853 106.891 45.2853ZM122.048 50.8589C122.9 50.8589 123.751 51.0331 124.603 51.3814C125.454 51.7298 125.965 52.0781 126.646 52.7748C127.157 53.2974 127.668 53.9941 128.009 54.865C128.349 55.5617 128.52 56.4325 128.52 57.3034C128.52 58.1743 128.349 59.0452 128.009 59.7419C127.668 60.4386 127.327 61.1353 126.646 61.832C126.135 62.3545 125.454 62.8771 124.603 63.2254C123.751 63.5738 123.07 63.7479 122.048 63.7479C121.196 63.7479 120.345 63.5738 119.493 63.2254C118.642 62.8771 118.131 62.5287 117.45 61.832C116.939 61.3095 116.428 60.6128 116.087 59.7419C115.747 59.0452 115.576 58.1743 115.576 57.3034C115.576 56.4325 115.747 55.5617 116.087 54.865C116.428 54.1682 116.769 53.4715 117.45 52.7748C117.961 52.2523 118.642 51.7298 119.493 51.3814C120.345 51.0331 121.196 50.8589 122.048 50.8589ZM122.048 53.2974C121.537 53.2974 121.026 53.4715 120.515 53.6457C120.004 53.8199 119.664 54.1682 119.323 54.5166C118.983 54.865 118.812 55.2133 118.472 55.7358C118.301 56.2584 118.131 56.7809 118.131 57.3034C118.131 57.8259 118.301 58.3485 118.472 58.871C118.642 59.3935 118.983 59.7419 119.323 60.0902C119.664 60.4386 120.004 60.6128 120.515 60.9611C121.026 61.1353 121.537 61.3095 122.048 61.3095C122.559 61.3095 123.07 61.1353 123.581 60.9611C124.092 60.7869 124.432 60.4386 124.773 60.0902C125.114 59.7419 125.284 59.3935 125.624 58.871C125.795 58.3485 125.965 57.8259 125.965 57.3034C125.965 56.7809 125.795 56.2584 125.624 55.7358C125.454 55.2133 125.114 54.865 124.773 54.5166C124.432 54.1682 124.092 53.9941 123.581 53.6457C123.07 53.4715 122.559 53.2974 122.048 53.2974ZM136.183 50.8589C137.035 50.8589 137.716 51.0331 138.397 51.3814C139.079 51.7298 139.589 52.0781 139.93 52.6007V45.1111H142.485V63.2254H139.93V61.832C139.589 62.3545 139.079 62.8771 138.397 63.0512C137.716 63.3996 137.035 63.5738 136.183 63.5738C135.332 63.5738 134.651 63.3996 133.799 63.0512C133.118 62.7029 132.437 62.3545 131.926 61.6578C131.415 61.1353 130.904 60.4386 130.734 59.5677C130.393 58.871 130.223 58.0001 130.223 56.9551C130.223 56.0842 130.393 55.2133 130.734 54.3424C131.074 53.6457 131.415 52.949 131.926 52.2523C132.437 51.7298 133.118 51.2073 133.799 50.8589C134.48 51.0331 135.332 50.8589 136.183 50.8589ZM136.354 53.2974C135.843 53.2974 135.332 53.4715 134.821 53.6457C134.31 53.8199 133.969 54.1682 133.629 54.5166C133.288 54.865 133.118 55.2133 132.948 55.7358C132.777 56.2584 132.777 56.7809 132.777 57.3034C132.777 57.8259 132.777 58.3485 132.948 58.871C133.118 59.3935 133.288 59.7419 133.629 60.0902C133.969 60.4386 134.31 60.7869 134.821 60.9611C135.332 61.1353 135.672 61.3095 136.354 61.3095C136.865 61.3095 137.376 61.1353 137.886 60.9611C138.397 60.7869 138.738 60.4386 139.079 60.0902C139.419 59.7419 139.589 59.3935 139.76 58.871C139.93 58.3485 140.1 57.8259 140.1 57.3034C140.1 56.7809 139.93 56.2584 139.76 55.7358C139.589 55.2133 139.419 54.865 139.079 54.5166C138.738 54.1682 138.397 53.8199 137.886 53.6457C137.376 53.4715 137.035 53.2974 136.354 53.2974ZM151 50.8589C151.852 50.8589 152.533 51.0331 153.214 51.3814C153.895 51.7298 154.406 52.0781 154.917 52.6007C155.428 53.1232 155.769 53.8199 156.109 54.5166C156.45 55.2133 156.45 56.0842 156.45 57.1292C156.45 57.3034 156.45 57.4776 156.45 57.6518C156.45 57.8259 156.45 58.0001 156.45 58.1743H147.764C147.764 58.6968 147.934 59.2194 148.275 59.5677C148.445 59.9161 148.786 60.2644 149.127 60.4386C149.467 60.6128 149.808 60.7869 150.148 60.9611C150.489 61.1353 151 61.1353 151.341 61.1353C151.852 61.1353 152.533 60.9611 153.044 60.7869C153.555 60.6128 154.236 60.2644 154.747 59.9161L155.939 61.832C155.258 62.5287 154.406 62.8771 153.725 63.2254C152.873 63.3996 152.022 63.5738 151.17 63.5738C150.319 63.5738 149.467 63.3996 148.786 63.0512C148.105 62.7029 147.424 62.3545 146.913 61.832C146.402 61.3095 145.891 60.6128 145.72 59.9161C145.38 59.2194 145.21 58.3485 145.21 57.3034C145.21 56.4325 145.38 55.5617 145.72 54.6908C146.061 53.9941 146.402 53.2974 146.913 52.6007C147.424 52.0781 148.105 51.5556 148.786 51.3814C149.297 51.0331 150.148 50.8589 151 50.8589ZM157.642 63.2254V62.7029H157.812V62.5287H157.131V62.7029H157.301L157.642 63.2254ZM158.834 63.2254V62.5287H158.664L158.493 63.0512L158.323 62.5287H158.153V63.2254H158.323V62.7029L158.493 63.2254H158.664L158.834 62.7029V63.2254ZM150.83 53.2974C150.319 53.2974 149.978 53.2974 149.638 53.4715C149.297 53.6457 148.956 53.8199 148.786 54.1682C148.445 54.5166 148.275 54.6908 148.105 55.0391C147.934 55.3875 147.764 55.7358 147.764 56.2584H153.895C153.725 55.3875 153.384 54.5166 152.873 53.9941C152.362 53.4715 151.681 53.2974 150.83 53.2974Z" fill="#F59E1F"/>
<path d="M40.1311 38.4927H37.2359V23.5135L32.1268 36.5767H29.0613L23.7818 23.5135V38.3185H20.8866V20.2042H25.3145L30.4237 33.2674L35.5329 20.2042H39.9608V38.4927H40.1311ZM55.2883 38.4927H52.5634V36.9251C52.2228 37.4476 51.5416 37.9701 51.0307 38.3185C50.3495 38.6669 49.6683 38.841 48.8167 38.841C47.9652 38.841 47.1137 38.6669 46.4324 38.3185C45.7512 37.9701 45.07 37.6218 44.5591 36.9251C44.0482 36.4026 43.5373 35.7059 43.1966 34.835C42.856 33.9641 42.6857 33.0932 42.6857 32.2223C42.6857 31.3514 42.856 30.3064 43.1966 29.6097C43.5373 28.7388 43.8779 28.0421 44.5591 27.5196C45.07 26.997 45.7512 26.4745 46.4324 26.1262C47.1137 25.7778 47.9652 25.6036 48.8167 25.6036C49.6683 25.6036 50.5198 25.7778 51.0307 26.1262C51.7119 26.4745 52.2228 26.8229 52.5634 27.5196V25.952H55.2883V38.4927ZM49.1573 28.2163C48.6464 28.2163 48.1355 28.3905 47.6246 28.5646C47.1137 28.7388 46.7731 29.0872 46.4324 29.4355C46.0918 29.7839 45.9215 30.1322 45.7512 30.6547C45.5809 31.1773 45.5809 31.6998 45.5809 32.2223C45.5809 32.7449 45.5809 33.2674 45.7512 33.7899C45.9215 34.3124 46.0918 34.6608 46.4324 35.0092C46.7731 35.3575 47.1137 35.7059 47.6246 35.88C48.1355 36.0542 48.6464 36.2284 49.1573 36.2284C49.6683 36.2284 50.1792 36.0542 50.6901 35.88C51.201 35.7059 51.5416 35.3575 51.8822 35.0092C52.2228 34.6608 52.3931 34.3124 52.5634 33.7899C52.7338 33.2674 52.9041 32.7449 52.9041 32.2223C52.9041 31.6998 52.7338 31.1773 52.5634 30.6547C52.3931 30.1322 52.0525 29.7839 51.8822 29.4355C51.5416 29.0872 51.201 28.7388 50.6901 28.5646C50.1792 28.2163 49.6683 28.2163 49.1573 28.2163ZM67.5503 29.0872C67.38 28.913 67.2097 28.913 66.8691 28.7388C66.5285 28.5646 66.3582 28.5646 66.0176 28.3905C65.677 28.2163 65.3364 28.2163 64.9958 28.2163C64.6552 28.2163 64.3145 28.0421 63.8036 28.0421C63.1224 28.0421 62.4412 28.2163 62.1006 28.3905C61.76 28.7388 61.4193 29.0872 61.4193 29.4355C61.4193 29.6097 61.4193 29.7839 61.5896 29.958C61.76 30.1322 61.76 30.3064 62.1006 30.3064C62.2709 30.4806 62.4412 30.4806 62.7818 30.4806C62.9521 30.4806 63.2927 30.6547 63.6333 30.6547L64.8255 30.8289C66.1879 31.0031 67.2097 31.3514 67.891 32.0482C68.5722 32.5707 69.0831 33.4416 69.0831 34.4866C69.0831 35.0091 68.9128 35.7059 68.7425 36.0542C68.5722 36.5767 68.0613 36.9251 67.7206 37.2734C67.2097 37.6218 66.6988 37.9701 66.0176 38.1443C65.3364 38.3185 64.4848 38.4927 63.6333 38.4927C63.2927 38.4927 62.9521 38.4927 62.6115 38.4927C62.2709 38.4927 61.76 38.3185 61.249 38.3185C60.7381 38.1443 60.2272 37.9701 59.8866 37.796C59.3757 37.6218 58.8648 37.2734 58.5241 36.9251L59.7163 34.835C59.8866 35.0092 60.2272 35.1833 60.3975 35.3575C60.7381 35.5317 60.9084 35.7059 61.249 35.7059C61.5896 35.88 61.9303 35.88 62.2709 36.0542C62.6115 36.0542 63.1224 36.2284 63.6333 36.2284C64.4848 36.2284 65.1661 36.0542 65.677 35.88C66.1879 35.5317 66.3582 35.1833 66.3582 34.835C66.3582 34.4866 66.1879 34.1383 65.8473 33.9641C65.5067 33.7899 64.9958 33.6157 64.3145 33.4416L63.1224 33.2674C61.76 33.0932 60.7381 32.7449 60.0569 32.0482C59.3757 31.3514 59.0351 30.6547 59.0351 29.6097C59.0351 28.913 59.2054 28.3905 59.3757 27.8679C59.546 27.3454 59.8866 26.997 60.3975 26.6487C60.9084 26.3003 61.4193 26.1262 61.9303 25.7778C62.6115 25.6036 63.2927 25.4295 63.9739 25.4295C64.9958 25.4295 65.8473 25.6036 66.6988 25.7778C67.5503 25.952 68.2316 26.3003 68.9128 26.8229L67.5503 29.0872ZM80.153 28.3905H75.5547V33.7899C75.5547 34.1383 75.5547 34.4866 75.725 34.835C75.8953 35.1833 75.8953 35.3575 76.0656 35.5317C76.2359 35.7059 76.4062 35.88 76.7469 35.88C76.9172 35.88 77.2578 36.0542 77.4281 36.0542C77.7687 36.0542 78.2796 36.0542 78.6202 35.88C79.1311 35.7059 79.4717 35.5317 79.8124 35.3575L80.8342 37.4476C80.3233 37.796 79.8123 38.1443 79.1311 38.3185C78.4499 38.4927 77.7687 38.6669 77.0875 38.6669C75.725 38.6669 74.7032 38.3185 73.8517 37.4476C73.0001 36.5767 72.6595 35.3575 72.6595 33.7899V28.2163H70.2752V25.7778H72.6595V21.9459H75.3844V25.7778H79.9827V28.3905H80.153ZM88.3276 25.6036C89.1792 25.6036 90.0307 25.7778 90.7119 26.1262C91.3931 26.4745 92.0744 26.8229 92.5853 27.5196C93.0962 28.0421 93.4368 28.7388 93.7774 29.6097C94.118 30.4806 94.2883 31.3514 94.2883 32.2223C94.2883 32.3965 94.2883 32.5707 94.2883 32.7449C94.2883 32.919 94.2883 33.0932 94.2883 33.2674H85.2621C85.2621 33.7899 85.4324 34.3124 85.773 34.6608C85.9434 35.0091 86.284 35.3575 86.6246 35.7059C86.9652 35.88 87.3058 36.2284 87.6464 36.2284C87.987 36.4026 88.4979 36.4026 88.8386 36.4026C89.5198 36.4026 90.0307 36.2284 90.7119 36.0542C91.3931 35.88 91.9041 35.5317 92.415 35.0092L93.7774 36.9251C93.0962 37.6218 92.2447 37.9701 91.3931 38.3185C90.5416 38.4927 89.6901 38.6669 88.6683 38.6669C87.8167 38.6669 86.9652 38.4927 86.1137 38.1443C85.4324 37.796 84.7512 37.4476 84.07 36.7509C83.5591 36.2284 83.0482 35.5317 82.7076 34.6608C82.3669 33.7899 82.1966 32.919 82.1966 32.0482C82.1966 31.0031 82.3669 30.1322 82.7076 29.4355C83.0482 28.5646 83.3888 27.8679 83.8997 27.3454C84.4106 26.8229 85.0918 26.3003 85.773 25.952C86.6246 25.7778 87.4761 25.6036 88.3276 25.6036ZM88.3276 28.0421C87.8167 28.0421 87.4761 28.0421 87.1355 28.2163C86.7949 28.3905 86.4543 28.5646 86.1137 28.913C85.7731 29.2613 85.6028 29.4355 85.4324 29.958C85.2621 30.3064 85.0918 30.8289 85.0918 31.1773H91.3931C91.2228 30.1322 90.8822 29.4355 90.3713 28.913C89.8604 28.2163 89.1792 28.0421 88.3276 28.0421ZM103.315 25.6036C103.655 25.6036 104.166 25.6036 104.336 25.6036C104.677 25.6036 105.018 25.7778 105.358 25.952L104.677 28.5646C104.336 28.3905 103.996 28.3905 103.655 28.2163C103.315 28.2163 102.974 28.0421 102.633 28.0421C102.293 28.0421 101.782 28.0421 101.441 28.2163C101.101 28.3905 100.76 28.5646 100.59 28.913C100.419 29.2613 100.079 29.6097 99.9084 29.958C99.7381 30.3064 99.7381 30.8289 99.7381 31.3514V38.1443H97.0132V25.6036H99.5678V26.997C99.9084 26.4745 100.419 25.952 101.101 25.6036C101.952 25.7778 102.633 25.6036 103.315 25.6036ZM112.511 25.6036C113.363 25.6036 114.214 25.7778 115.066 26.1262C115.917 26.4745 116.598 26.997 117.109 27.6937L115.406 29.6097C114.895 29.2613 114.555 28.913 114.044 28.5646C113.533 28.3905 113.022 28.2163 112.511 28.2163C112 28.2163 111.489 28.3905 111.149 28.5646C110.638 28.7388 110.297 29.0872 109.956 29.4355C109.616 29.7839 109.446 30.1322 109.275 30.6547C109.105 31.1773 108.935 31.6998 108.935 32.2223C108.935 32.7449 109.105 33.2674 109.275 33.7899C109.446 34.3124 109.786 34.6608 109.956 35.0092C110.297 35.3575 110.638 35.7059 111.149 35.88C111.66 36.0542 112 36.2284 112.511 36.2284C113.022 36.2284 113.703 36.0542 114.214 35.88C114.725 35.7059 115.236 35.3575 115.577 35.0092L117.28 36.9251C116.769 37.6218 116.087 38.1443 115.236 38.4927C114.384 38.841 113.533 39.0152 112.681 39.0152C111.66 39.0152 110.808 38.841 110.127 38.4927C109.275 38.1443 108.594 37.6218 108.083 37.0993C107.572 36.5767 107.061 35.88 106.721 35.0092C106.38 34.1383 106.21 33.2674 106.21 32.3965C106.21 31.5256 106.38 30.6547 106.721 29.7839C107.061 28.913 107.402 28.2163 108.083 27.6937C108.594 27.1712 109.275 26.6487 110.127 26.3003C110.638 25.7778 111.489 25.6036 112.511 25.6036ZM131.245 38.4927H128.52V36.9251C128.179 37.4476 127.498 37.9701 126.987 38.3185C126.306 38.6669 125.625 38.841 124.773 38.841C123.922 38.841 123.07 38.6669 122.389 38.3185C121.708 37.9701 121.026 37.6218 120.515 36.9251C120.004 36.4026 119.494 35.7059 119.153 34.835C118.812 33.9641 118.642 33.0932 118.642 32.2223C118.642 31.3514 118.812 30.3064 119.153 29.6097C119.494 28.7388 119.834 28.0421 120.515 27.5196C121.026 26.997 121.708 26.4745 122.389 26.1262C123.07 25.7778 123.922 25.6036 124.773 25.6036C125.625 25.6036 126.476 25.7778 126.987 26.1262C127.668 26.4745 128.179 26.8229 128.52 27.5196V25.952H131.245V38.4927ZM125.114 28.2163C124.603 28.2163 124.092 28.3905 123.581 28.5646C123.07 28.7388 122.729 29.0872 122.389 29.4355C122.048 29.7839 121.878 30.1322 121.708 30.6547C121.537 31.1773 121.537 31.6998 121.537 32.2223C121.537 32.7449 121.708 33.2674 121.708 33.7899C121.878 34.3124 122.048 34.6608 122.389 35.0092C122.729 35.3575 123.07 35.7059 123.581 35.88C124.092 36.0542 124.603 36.2284 125.114 36.2284C125.625 36.2284 126.135 36.0542 126.646 35.88C127.157 35.7059 127.498 35.3575 127.839 35.0092C128.179 34.6608 128.349 34.3124 128.52 33.7899C128.69 33.2674 128.86 32.7449 128.86 32.2223C128.86 31.6998 128.69 31.1773 128.52 30.6547C128.349 30.1322 128.009 29.7839 127.839 29.4355C127.498 29.0872 127.157 28.7388 126.646 28.5646C126.135 28.2163 125.625 28.2163 125.114 28.2163ZM141.293 25.6036C141.633 25.6036 142.144 25.6036 142.315 25.6036C142.655 25.6036 142.996 25.7778 143.336 25.952L142.655 28.5646C142.315 28.3905 141.974 28.3905 141.633 28.2163C141.293 28.2163 140.952 28.0421 140.611 28.0421C140.271 28.0421 139.76 28.0421 139.419 28.2163C139.079 28.3905 138.738 28.5646 138.568 28.913C138.397 29.2613 138.057 29.6097 137.887 29.958C137.716 30.3064 137.716 30.8289 137.716 31.3514V38.1443H134.991V25.6036H137.546V26.997C137.887 26.4745 138.397 25.952 139.079 25.6036C139.93 25.7778 140.611 25.6036 141.293 25.6036ZM150.149 25.6036C151 25.6036 151.852 25.7778 152.363 26.1262C153.044 26.4745 153.555 26.8229 153.895 27.5196V19.6816H156.62V38.4927H153.895V36.9251C153.555 37.4476 152.873 37.9701 152.363 38.3185C151.681 38.6669 151 38.841 150.149 38.841C149.297 38.841 148.446 38.6669 147.764 38.3185C147.083 37.9701 146.402 37.6218 145.891 36.9251C145.38 36.4026 144.869 35.7059 144.529 34.835C144.188 33.9641 144.018 33.0932 144.018 32.2223C144.018 31.3514 144.188 30.3064 144.529 29.6097C144.869 28.7388 145.21 28.0421 145.891 27.5196C146.402 26.997 147.083 26.4745 147.764 26.1262C148.446 25.7778 149.297 25.6036 150.149 25.6036ZM159.686 37.2734C159.856 37.2734 159.856 37.2734 160.026 37.2734C160.197 37.2734 160.197 37.4476 160.197 37.4476L160.367 37.6218C160.367 37.796 160.367 37.796 160.367 37.9701C160.367 38.1443 160.367 38.1443 160.367 38.3185C160.367 38.4927 160.197 38.4927 160.197 38.4927L160.026 38.6669C159.856 38.6669 159.856 38.6669 159.686 38.6669C159.515 38.6669 159.515 38.6669 159.345 38.6669C159.175 38.6669 159.175 38.4927 159.175 38.4927L159.004 38.3185C159.004 38.1443 159.004 38.1443 159.004 37.9701C159.004 37.796 159.004 37.796 159.004 37.6218C159.004 37.4476 159.175 37.4476 159.175 37.4476L159.345 37.2734C159.515 37.2734 159.515 37.2734 159.686 37.2734ZM159.686 38.6669H159.856C159.856 38.6669 160.026 38.6669 160.026 38.4927L160.197 38.3185V38.1443V37.9701C160.197 37.9701 160.197 37.796 160.026 37.796L159.856 37.6218H159.686H159.515C159.515 37.6218 159.345 37.6218 159.345 37.796L159.175 37.9701V38.1443V38.3185C159.175 38.3185 159.175 38.4927 159.345 38.4927L159.515 38.6669H159.686ZM159.686 37.6218C159.856 37.6218 159.856 37.6218 159.856 37.6218V37.796V37.9701H159.686L159.856 38.3185H159.686L159.515 37.9701V38.3185H159.345V37.6218H159.686ZM159.515 37.796V37.9701H159.686C159.686 37.9701 159.686 37.9701 159.856 37.9701C159.856 37.9701 159.856 37.9701 159.686 37.9701H159.515V37.796ZM150.489 28.2163C149.978 28.2163 149.467 28.3905 148.956 28.5646C148.446 28.7388 148.105 29.0872 147.764 29.4355C147.424 29.7839 147.253 30.1322 147.083 30.6547C146.742 31.1773 146.742 31.6998 146.742 32.2223C146.742 32.7449 146.913 33.2674 146.913 33.7899C147.083 34.3124 147.253 34.6608 147.594 35.0092C147.935 35.3575 148.275 35.7059 148.786 35.88C149.297 36.0542 149.808 36.2284 150.319 36.2284C150.83 36.2284 151.341 36.0542 151.852 35.88C152.363 35.7059 152.703 35.3575 153.044 35.0092C153.384 34.6608 153.555 34.3124 153.725 33.7899C153.895 33.2674 154.066 32.7449 154.066 32.2223C154.066 31.6998 153.895 31.1773 153.725 30.6547C153.555 30.1322 153.214 29.7839 153.044 29.4355C152.703 29.0872 152.363 28.7388 151.852 28.5646C151.511 28.2163 151 28.2163 150.489 28.2163Z" fill="#E41522"/>
</svg>
