<svg width="111" height="68" viewBox="0 0 111 68" fill="none" xmlns="http://www.w3.org/2000/svg">
<path d="M110.969 33.9644C110.969 52.6012 96.1529 67.9287 77.7598 67.9287C59.5371 67.9287 44.5502 52.6012 44.5502 33.9644C44.5502 15.3275 59.3668 0 77.5895 0C96.1529 0 110.969 15.3275 110.969 33.9644Z" fill="#F9B50B"/>
<path d="M66.5197 34.1385C66.5197 31.7001 66.179 29.2616 65.8384 26.9973H45.4018C45.5721 25.7781 45.9127 24.733 46.2533 23.3396H64.476C64.1354 22.1204 63.6245 20.9012 63.1135 19.6819H47.6157C48.1266 18.4627 48.8079 17.4176 49.4891 16.0242H61.2402C60.559 14.805 59.7074 13.5857 58.6856 12.3665H52.214C53.2358 11.1473 54.2576 10.1022 55.6201 8.88299C49.8297 3.30935 41.9956 0 33.31 0C15.2576 0.522529 0.270752 15.3275 0.270752 33.9644C0.270752 52.6012 15.0873 67.9287 33.4804 67.9287C42.1659 67.9287 49.8297 64.4452 55.7904 59.0458C56.9825 58.0007 58.0044 56.7815 59.1965 55.3881H52.3843C51.5328 54.343 50.6812 53.1238 50 51.9045H61.5808C62.262 50.8595 62.9432 49.6402 63.4541 48.2468H47.9563C47.4454 47.2018 46.9345 45.9825 46.5939 44.5891H64.8166C65.8384 41.454 66.5197 37.9704 66.5197 34.1385Z" fill="#C8191C"/>
<path d="M45.2313 42.6733L45.7422 39.5381C45.5719 39.5381 45.2313 39.7123 44.8907 39.7123C43.6986 39.7123 43.5283 39.0156 43.6986 38.6672L44.7204 32.3969H46.5938L47.1047 28.9134H45.4016L45.7422 26.8232H42.1658C42.1658 26.8232 40.1221 38.6672 40.1221 40.0606C40.1221 42.1507 41.3143 43.1958 43.0173 43.1958C44.0392 43.1958 44.8907 42.8475 45.2313 42.6733Z" fill="white"/>
<path d="M46.4238 36.9255C46.4238 41.9766 49.8299 43.1959 52.5548 43.1959C55.1093 43.1959 56.3015 42.6733 56.3015 42.6733L56.9827 39.1898C56.9827 39.1898 55.1093 40.0607 53.236 40.0607C49.319 40.0607 50.0002 37.0997 50.0002 37.0997H57.153C57.153 37.0997 57.6639 34.8354 57.6639 33.7903C57.6639 31.526 56.4718 28.565 52.5548 28.565C49.1487 28.3909 46.4238 32.3969 46.4238 36.9255ZM52.5548 31.7002C54.4281 31.7002 54.0875 33.9645 54.0875 34.1387H50.1705C50.3408 33.9645 50.6814 31.7002 52.5548 31.7002Z" fill="white"/>
<path d="M74.8648 42.6728L75.546 38.6668C75.546 38.6668 73.8429 39.5377 72.4805 39.5377C70.0962 39.5377 68.9041 37.6217 68.9041 35.3574C68.9041 31.003 70.9477 28.7388 73.5023 28.7388C75.2054 28.7388 76.7381 29.7838 76.7381 29.7838L77.249 25.9519C77.249 25.9519 75.2054 25.0811 73.1617 25.0811C69.0744 25.0811 65.1573 28.7388 65.1573 35.5316C65.1573 40.0602 67.201 43.0212 71.4586 43.0212C72.9914 43.1954 74.8648 42.6728 74.8648 42.6728Z" fill="white"/>
<path d="M25.9868 28.3906C23.6026 28.3906 21.7292 29.0873 21.7292 29.0873L21.2183 32.2225C21.2183 32.2225 22.751 31.5258 25.1353 31.5258C26.3275 31.5258 27.3493 31.7 27.3493 32.745C27.3493 33.4417 27.179 33.6159 27.179 33.6159H25.6462C22.5807 33.6159 19.3449 34.8351 19.3449 39.0154C19.3449 42.3247 21.3886 43.0214 22.751 43.0214C25.1353 43.0214 26.3274 41.4538 26.4978 41.4538L26.3275 42.8472H29.2226L30.5851 32.9192C30.5851 28.5648 27.179 28.3906 25.9868 28.3906ZM26.6681 36.4027C26.6681 36.9252 26.3275 39.8862 24.2838 39.8862C23.2619 39.8862 22.9213 39.0154 22.9213 38.4928C22.9213 37.622 23.4323 36.4027 26.1571 36.4027C26.4978 36.4027 26.6681 36.4027 26.6681 36.4027Z" fill="white"/>
<path d="M33.9913 43.0218C34.8429 43.0218 39.2708 43.196 39.2708 38.319C39.2708 33.7904 35.0132 34.6613 35.0132 32.9196C35.0132 32.0487 35.6944 31.7003 36.8865 31.7003C37.3975 31.7003 39.2708 31.8745 39.2708 31.8745L39.7817 28.5651C39.7817 28.5651 38.5896 28.2168 36.3756 28.2168C33.821 28.2168 31.0961 29.2619 31.0961 32.9196C31.0961 37.0998 35.5241 36.7514 35.5241 38.319C35.5241 39.3641 34.332 39.5383 33.4804 39.5383C31.9477 39.5383 30.2446 39.0157 30.2446 39.0157L29.7337 42.3251C30.0743 42.6734 31.0961 43.0218 33.9913 43.0218Z" fill="white"/>
<path d="M104.157 25.604L103.476 30.4809C103.476 30.4809 102.114 28.7392 100.07 28.7392C96.8343 28.7392 94.1094 32.7452 94.1094 37.448C94.1094 40.409 95.4718 43.37 98.5373 43.37C100.581 43.37 101.943 41.9766 101.943 41.9766L101.773 43.1958H105.35L107.904 25.9524L104.157 25.604ZM102.454 35.0095C102.454 36.9255 101.603 39.5381 99.5592 39.5381C98.367 39.5381 97.6858 38.4931 97.6858 36.5771C97.6858 33.6161 98.8779 31.8744 100.581 31.8744C101.773 32.0485 102.454 32.9194 102.454 35.0095Z" fill="white"/>
<path d="M6.74248 42.8475L8.78615 29.9584L9.12676 42.8475H11.511L16.1093 29.9584L14.2359 42.8475H17.9827L20.8779 25.604H15.0875L11.511 36.2288L11.3407 25.604H6.23156L3.33636 42.8475H6.74248Z" fill="white"/>
<path d="M61.2402 42.8473C62.262 36.9253 62.4323 32.0484 64.9869 32.9192C65.3275 30.655 65.8385 29.6099 66.1791 28.739H65.4978C63.9651 28.739 62.6027 30.8291 62.6027 30.8291L62.9433 28.9132H59.5372L57.3232 42.8473H61.2402Z" fill="white"/>
<path d="M83.0392 28.3906C80.6549 28.3906 78.7816 29.0873 78.7816 29.0873L78.2706 32.2225C78.2706 32.2225 79.8034 31.5258 82.1877 31.5258C83.3798 31.5258 84.4017 31.7 84.4017 32.745C84.4017 33.4417 84.2313 33.6159 84.2313 33.6159H82.6986C79.6331 33.6159 76.3973 34.8351 76.3973 39.0154C76.3973 42.3247 78.4409 43.0214 79.8034 43.0214C82.1877 43.0214 83.3798 41.4538 83.5501 41.4538L83.3798 42.8472H86.6156L87.9781 32.9192C87.9781 28.5648 84.2313 28.3906 83.0392 28.3906ZM83.8907 36.4027C83.8907 36.9252 83.5501 39.8862 81.5065 39.8862C80.4846 39.8862 80.144 39.0154 80.144 38.4928C80.144 37.622 80.6549 36.4027 83.3798 36.4027C83.7204 36.4027 83.7204 36.4027 83.8907 36.4027Z" fill="white"/>
<path d="M90.7032 42.8473C91.725 36.9253 91.8953 32.0484 94.4499 32.9192C94.7905 30.655 95.3014 29.6099 95.642 28.739H94.9608C93.428 28.739 92.0656 30.8291 92.0656 30.8291L92.4062 28.9132H89.0001L86.7861 42.8473H90.7032Z" fill="white"/>
</svg>
