<svg width="92" height="28" viewBox="0 0 92 28" fill="none" xmlns="http://www.w3.org/2000/svg">
<path d="M82.6026 0.410156H65.0612C66.083 6.33216 71.7031 11.9058 77.8341 11.9058H91.7992C91.9695 11.3833 91.9694 10.5124 91.9694 9.98986C91.9694 4.76457 87.7118 0.410156 82.6026 0.410156Z" fill="url(#paint0_linear_20:366)"/>
<path d="M66.5941 12.9512V27.4078H75.1094V19.744H82.6029C86.6902 19.744 90.2667 16.7831 91.4588 12.9512H66.5941Z" fill="#4FAD50"/>
<path d="M36.6201 0.410156V27.2334H44.1136C44.1136 27.2334 45.9869 27.2333 47.0088 25.3174C52.1179 15.041 53.6507 11.9058 53.6507 11.9058H54.6725V27.2334H63.1878V0.410156H55.6943C55.6943 0.410156 53.821 0.584343 52.7991 2.32611C48.5415 11.2091 46.1572 15.7377 46.1572 15.7377H45.1354V0.410156H36.6201Z" fill="#4FAD50"/>
<path d="M0.855957 27.4078V0.584717H9.37125C9.37125 0.584717 11.7556 0.584711 13.118 4.41659C16.5241 14.5188 16.8648 15.9122 16.8648 15.9122C16.8648 15.9122 17.546 13.4737 20.6115 4.41659C21.9739 0.584711 24.3582 0.584717 24.3582 0.584717H32.8735V27.4078H24.3582V12.9512H23.3364L18.5678 27.4078H14.8211L10.0525 12.9512H9.03067V27.4078H0.855957Z" fill="#4FAD50"/>
<defs>
<linearGradient id="paint0_linear_20:366" x1="65.0308" y1="6.24037" x2="91.9091" y2="6.24037" gradientUnits="userSpaceOnUse">
<stop stop-color="#27B1E6"/>
<stop offset="1" stop-color="#148ACA"/>
</linearGradient>
</defs>
</svg>
