<svg width="184" height="60" viewBox="0 0 184 60" fill="none" xmlns="http://www.w3.org/2000/svg">
<path fill-rule="evenodd" clip-rule="evenodd" d="M0 0H183.93V59.2199H0V0Z" fill="#CC1626"/>
<path fill-rule="evenodd" clip-rule="evenodd" d="M64.178 27.5927C64.8518 27.5927 65.513 27.4107 66.0851 27.0466C67.2167 26.3444 67.8397 25.1221 67.8397 23.7698C67.8397 22.3784 67.1786 21.1041 65.9834 20.4149C65.4367 20.0899 64.8137 19.9208 64.178 19.9208C63.5296 19.9208 62.9066 20.0899 62.3471 20.4279C61.1774 21.1301 60.529 22.3914 60.529 23.7698C60.529 25.1091 61.1393 26.3314 62.2581 27.0336C62.8303 27.4107 63.4914 27.5927 64.178 27.5927ZM47.6749 22.3004V16.1369H50.917C51.7434 16.1369 52.4554 16.449 53.0403 17.0471V17.0601C53.6506 17.6453 53.9303 18.3604 53.9303 19.2056C53.9303 20.0639 53.6252 20.779 53.0403 21.3902C52.4554 21.9883 51.7434 22.3004 50.917 22.3004H50.3322H47.6749ZM47.6749 25.3822H50.3322H50.917C51.718 25.3822 52.5063 25.2131 53.2564 24.888C53.9684 24.563 54.6169 24.1339 55.1763 23.5617C55.723 23.0026 56.1553 22.3394 56.4604 21.6112C56.791 20.844 56.9436 20.0378 56.9436 19.2056C56.9436 18.3864 56.791 17.5802 56.4604 16.826C56.1553 16.0979 55.723 15.4347 55.1763 14.8756C54.6169 14.3164 53.9684 13.8743 53.2564 13.5492C52.5063 13.2242 51.718 13.0681 50.917 13.0681H44.6743V30.1283H47.6749V25.3822ZM68.0304 28.672C66.9878 29.8033 65.5003 30.4144 63.9491 30.4144C60.3256 30.4144 57.681 27.4237 57.681 23.7698C57.681 20.1289 60.3129 17.0991 63.9491 17.0991C65.5003 17.0991 66.9878 17.7233 68.0304 18.8676V17.2422H70.8657V30.2584H68.0304V28.672ZM82.9315 28.4639C82.0288 29.5822 80.6175 30.1153 79.1935 30.1153C75.481 30.1153 73.6247 27.4887 73.6247 23.8738V17.2552H76.4854V23.7178C76.4854 25.8763 77.3372 27.2936 79.5622 27.2936C81.9525 27.2936 82.957 25.5252 82.957 23.2366V17.2552H85.7795V28.4509C85.7795 32.3519 83.4147 35.0436 79.5368 35.0436C77.5152 35.0436 75.5954 34.3804 74.0443 33.0541L73.879 32.924L75.5318 31.1166L75.6717 31.1946C76.8923 31.9488 78.0874 32.3519 79.5368 32.3519C81.6601 32.3519 82.9315 31.1816 82.9315 28.9841V28.4639Z" fill="white"/>
<path fill-rule="evenodd" clip-rule="evenodd" d="M131.436 20.7661L131.525 20.5841C131.538 20.5711 131.538 20.5451 131.551 20.5321V20.5191L131.64 20.35H131.653L131.678 20.298L131.703 20.272L131.729 20.207H131.742C131.767 20.155 131.792 20.116 131.818 20.077L131.831 20.051C131.843 20.038 131.856 20.012 131.869 19.986L131.881 19.973L131.932 19.9079V19.8949C131.983 19.8169 132.034 19.7519 132.085 19.6869V19.6739C132.11 19.6479 132.123 19.6349 132.136 19.6089H132.148C133.344 18.0095 135.187 17.0732 137.158 17.0732H137.425C140.985 17.1513 143.553 20.116 143.553 23.7179C143.553 27.3718 140.921 30.3885 137.285 30.3885C135.886 30.3885 134.513 29.7774 133.598 28.6981V34.8356H130.763V23.4318H130.775C130.801 22.6256 130.979 21.8324 131.297 21.0782L131.309 21.0522L131.322 21.0002L131.347 20.9612L131.373 20.8962L131.398 20.8312L131.436 20.7661ZM88.6276 13.0422H91.6408V30.1025H88.6276V13.0422ZM95.7475 21.5984L102.702 30.1545H98.7354L92.035 21.5984L98.7354 13.0422H102.702L95.7475 21.5984ZM105.258 24.5761C105.36 26.6176 106.962 27.6709 108.894 27.6709C110.242 27.6709 111.59 27.2938 112.759 26.5916L112.886 26.5136L114.476 28.243L114.298 28.386C112.734 29.6083 110.89 30.3625 108.894 30.3625C105.08 30.3625 102.321 27.6318 102.321 23.7179C102.321 19.8949 104.965 17.0472 108.742 17.0472C111.31 17.0472 113.37 18.3085 114.387 20.7141C114.819 21.7544 114.946 23.3538 114.616 24.4331L114.565 24.5761H105.258ZM119.282 24.5761C119.383 26.6176 120.985 27.6709 122.918 27.6709C124.278 27.6709 125.626 27.2938 126.783 26.5916L126.923 26.5136L128.499 28.243L128.334 28.386C126.758 29.6083 124.914 30.3625 122.918 30.3625C119.104 30.3625 116.357 27.6318 116.357 23.7179C116.357 19.8949 118.989 17.0472 122.778 17.0472C125.334 17.0472 127.393 18.3085 128.41 20.7141C128.855 21.7544 128.97 23.3538 128.639 24.4331L128.601 24.5761H119.282ZM148.168 24.5761C148.27 26.6176 149.872 27.6709 151.805 27.6709C153.152 27.6709 154.513 27.2938 155.67 26.5916L155.81 26.5006L157.386 28.243L157.208 28.386C155.644 29.6083 153.801 30.3625 151.805 30.3625C147.99 30.3625 145.244 27.6318 145.244 23.7179C145.244 19.8949 147.876 17.0472 151.665 17.0472C154.22 17.0472 156.28 18.3085 157.297 20.7141C157.742 21.7544 157.857 23.3538 157.526 24.4331L157.488 24.5761H148.168ZM133.572 23.7179C133.572 29.0102 140.705 28.5681 140.705 23.7179C140.705 18.8677 133.572 18.4256 133.572 23.7179ZM105.423 22.2615H111.958C111.92 22.0405 111.831 21.8194 111.742 21.6114C111.183 20.4021 110.077 19.7389 108.767 19.7389C107.343 19.7389 105.995 20.5321 105.512 21.9624C105.474 22.0535 105.449 22.1575 105.423 22.2615ZM119.447 22.2615H125.995C125.944 22.0405 125.868 21.8194 125.766 21.6114C125.206 20.4021 124.1 19.7389 122.803 19.7389C121.367 19.7389 120.019 20.5321 119.536 21.9624C119.51 22.0535 119.472 22.1575 119.447 22.2615ZM148.334 22.2615H154.882C154.831 22.0405 154.754 21.8194 154.653 21.6114C154.093 20.4021 152.987 19.7389 151.69 19.7389C150.254 19.7389 148.906 20.5321 148.423 21.9494C148.385 22.0535 148.359 22.1575 148.334 22.2615ZM162.65 18.9457C163.782 17.6584 165.371 17.0862 167.087 17.0862H167.748L167.761 19.986H166.528C163.807 19.986 162.675 21.8844 162.675 24.4851V30.2065H159.738V17.2293H162.65V18.9457Z" fill="#FFCC00"/>
<path fill-rule="evenodd" clip-rule="evenodd" d="M48.7429 41.0772H45.488V46.2525H44.6743V40.297H49.5693V46.2525H48.7429V41.0772ZM55.367 41.0772H52.9259C52.9259 42.2605 52.9132 43.8079 52.6207 44.9522C52.4809 45.4853 52.2393 46.0574 51.6926 46.2525C51.4892 46.3305 51.2857 46.3435 51.0823 46.3435C50.8916 46.3435 50.6119 46.3045 50.4339 46.2525L50.3067 46.2135L50.4593 45.4203L50.6119 45.4593C50.7009 45.4853 50.8916 45.5373 50.9933 45.5373C51.0823 45.5373 51.184 45.5243 51.273 45.4983C51.6544 45.3943 51.7943 44.9002 51.8706 44.5621C52.1376 43.4438 52.1376 41.8964 52.1376 40.7391V40.297H56.1934V46.2525H55.367V41.0772ZM61.7241 42.6506V42.5986C61.7241 41.5063 61.0757 41.0122 60.0459 41.0122C59.4356 41.0122 58.9016 41.1682 58.3676 41.4413L58.2277 41.5193L57.9226 40.7651L58.0497 40.7001C58.7109 40.388 59.3339 40.206 60.0713 40.206C60.7451 40.206 61.4444 40.362 61.9276 40.8692C62.3726 41.3243 62.5378 41.9354 62.5378 42.5726V46.2525H61.7241V45.5633C61.2156 46.1095 60.5163 46.3825 59.7534 46.3825C58.5837 46.3825 57.4649 45.7584 57.4649 44.432C57.4649 42.9887 58.7999 42.4426 60.0331 42.4426C60.6307 42.4426 61.1647 42.5076 61.7241 42.6506ZM65.5511 41.0772H63.4787V40.297H68.45V41.0772H66.3648V46.2525H65.5511V41.0772ZM69.9757 43.6388C70.1155 44.7311 70.8784 45.5763 71.9973 45.5763C72.7347 45.5763 73.2941 45.2773 73.79 44.7311L73.8917 44.6271L74.4765 45.1602L74.3748 45.2773C73.701 46.0054 72.9763 46.3825 71.9718 46.3825C70.2681 46.3825 69.1111 44.9392 69.1111 43.2618C69.1111 41.6364 70.23 40.154 71.8828 40.154C73.612 40.154 74.5782 41.6233 74.5782 43.2748C74.5782 43.3528 74.5655 43.4308 74.5655 43.5088L74.5401 43.6388H69.9757ZM70.4461 39.6469V38.4636H71.4887V39.6469H70.4461ZM72.2261 39.6469V38.4636H73.256V39.6469H72.2261ZM77.4135 42.8977L75.0614 40.297H76.1294L79.0918 43.6649V40.297H79.9182V43.6649L82.8807 40.297H83.9487L81.5965 42.8977L84.0504 46.2525H83.0332L81.0498 43.5088L79.9182 44.7701V46.2525H79.0918V44.7701L77.9602 43.5088L75.9768 46.2525H74.9724L77.4135 42.8977ZM85.7286 42.8066H89.1234V40.297H89.9498V46.2525H89.1234V43.5998H85.7286V46.2525H84.9149V40.297H85.7286V42.8066ZM95.4805 42.6506V42.5986C95.4805 41.5063 94.8193 41.0122 93.8022 41.0122C93.1919 41.0122 92.6579 41.1682 92.1239 41.4413L91.9841 41.5193L91.6789 40.7651L91.8061 40.7001C92.4672 40.388 93.0902 40.206 93.8276 40.206C94.5015 40.206 95.1881 40.362 95.6839 40.8692C96.1289 41.3243 96.2942 41.9354 96.2942 42.5726V46.2525H95.4805V45.5633C94.9592 46.1095 94.2726 46.3825 93.5098 46.3825C92.3274 46.3825 91.2212 45.7584 91.2212 44.432C91.2212 42.9887 92.5562 42.4426 93.7895 42.4426C94.3871 42.4426 94.9083 42.5076 95.4805 42.6506ZM99.104 43.9379C98.2776 43.7039 97.6165 43.0667 97.6165 42.1305C97.6165 40.8692 98.6718 40.297 99.7906 40.297H102.422V46.2525H101.596V44.068H99.9813L98.3412 46.2525H97.3113L99.104 43.9379ZM111.488 41.0772H108.233V46.2525H107.406V40.297H112.301V46.2525H111.488V41.0772ZM118.112 41.0772H115.671C115.671 42.2605 115.658 43.8079 115.353 44.9522C115.213 45.4853 114.984 46.0574 114.425 46.2525C114.234 46.3305 114.031 46.3435 113.827 46.3435C113.636 46.3435 113.357 46.3045 113.179 46.2525L113.052 46.2135L113.204 45.4203L113.357 45.4593C113.446 45.4853 113.636 45.5373 113.738 45.5373C113.827 45.5373 113.929 45.5243 114.018 45.4983C114.387 45.3943 114.526 44.9002 114.615 44.5621C114.87 43.4438 114.87 41.8964 114.87 40.7391V40.297H118.926V46.2525H118.112V41.0772ZM124.469 42.6506V42.5986C124.469 41.5063 123.808 41.0122 122.791 41.0122C122.18 41.0122 121.646 41.1682 121.112 41.4413L120.973 41.5193L120.667 40.7651L120.795 40.7001C121.456 40.388 122.079 40.206 122.816 40.206C123.49 40.206 124.177 40.362 124.672 40.8692C125.117 41.3243 125.27 41.9354 125.27 42.5726V46.2525H124.469V45.5633C123.948 46.1095 123.248 46.3825 122.486 46.3825C121.316 46.3825 120.21 45.7584 120.21 44.432C120.21 42.9887 121.545 42.4426 122.778 42.4426C123.376 42.4426 123.897 42.5076 124.469 42.6506ZM128.296 41.0772H126.211V40.297H131.182V41.0772H129.11V46.2525H128.296V41.0772ZM135.607 45.9014C135.213 46.2005 134.818 46.3825 134.284 46.3825C132.581 46.3825 131.881 44.7961 131.881 43.2488C131.881 41.7144 132.581 40.154 134.284 40.154C134.831 40.154 135.213 40.336 135.607 40.6481V38.1775H136.42V40.6481C136.802 40.336 137.196 40.154 137.743 40.154C139.446 40.154 140.146 41.7274 140.146 43.2748C140.146 44.8091 139.434 46.3825 137.743 46.3825C137.158 46.3825 136.815 46.2265 136.42 45.9144V48.0339H135.607V45.9014ZM144.125 46.3825C142.422 46.3825 141.137 44.9912 141.137 43.2748C141.137 41.5583 142.447 40.154 144.138 40.154C145.842 40.154 147.126 41.5583 147.126 43.2748C147.126 44.9782 145.816 46.3825 144.125 46.3825ZM149.3 41.2593C149.834 40.5831 150.521 40.154 151.436 40.154C153.114 40.154 154.271 41.6103 154.271 43.2748C154.271 44.9262 153.101 46.3825 151.436 46.3825C150.546 46.3825 149.834 45.9924 149.3 45.3293V48.0339H148.474V40.297H149.3V41.2593ZM158.53 43.4438L160.717 40.297H161.404V46.2525H160.59V41.8314L158.505 44.7701L156.445 41.8444V46.2525H155.644V40.297H156.344L158.53 43.4438ZM166.947 42.6506V42.5986C166.947 41.5063 166.286 41.0122 165.269 41.0122C164.659 41.0122 164.125 41.1682 163.591 41.4413L163.451 41.5193L163.146 40.7651L163.273 40.7001C163.934 40.388 164.557 40.206 165.294 40.206C165.968 40.206 166.655 40.362 167.151 40.8692C167.596 41.3243 167.761 41.9354 167.761 42.5726V46.2525H166.947V45.5633C166.426 46.1095 165.739 46.3825 164.977 46.3825C163.794 46.3825 162.688 45.7584 162.688 44.432C162.688 42.9887 164.023 42.4426 165.256 42.4426C165.854 42.4426 166.375 42.5076 166.947 42.6506ZM61.7368 43.4568C61.1647 43.3138 60.6053 43.2357 59.995 43.2357C59.2321 43.2357 58.3294 43.4958 58.3294 44.432C58.3294 45.2643 59.0541 45.5763 59.7789 45.5763C60.6943 45.5763 61.7368 45.0302 61.7368 43.9769V43.4568ZM69.9884 42.8587H73.701C73.5738 41.8314 72.9763 40.9472 71.8701 40.9472C70.8021 40.9472 70.1155 41.8574 69.9884 42.8587ZM95.4932 43.4568C94.9083 43.3138 94.3489 43.2357 93.7513 43.2357C92.9885 43.2357 92.0858 43.4958 92.0858 44.432C92.0858 45.2643 92.8105 45.5763 93.5352 45.5763C94.4506 45.5763 95.4932 45.0302 95.4932 43.9769V43.4568ZM101.596 43.2878V41.0772H99.8669C99.1803 41.0772 98.481 41.3633 98.481 42.1565C98.481 42.9497 99.2058 43.2878 99.8923 43.2878H101.596ZM124.482 43.4568C123.897 43.3138 123.337 43.2357 122.74 43.2357C121.977 43.2357 121.074 43.4958 121.074 44.432C121.074 45.2643 121.799 45.5763 122.524 45.5763C123.439 45.5763 124.482 45.0302 124.482 43.9769V43.4568ZM135.607 44.9782V41.5583C135.251 41.1942 134.857 40.9732 134.335 40.9732C133.064 40.9732 132.733 42.1955 132.733 43.2878C132.733 44.432 133.026 45.5633 134.335 45.5633C134.857 45.5633 135.251 45.3553 135.607 44.9782ZM136.42 41.5583V44.9782C136.776 45.3553 137.171 45.5633 137.692 45.5633C139.001 45.5633 139.281 44.406 139.281 43.2748C139.281 42.1825 138.951 40.9732 137.692 40.9732C137.171 40.9732 136.776 41.1942 136.42 41.5583ZM144.138 45.5763C145.359 45.5763 146.261 44.4711 146.261 43.2748C146.261 42.0525 145.346 40.9602 144.125 40.9602C142.905 40.9602 142.002 42.0525 142.002 43.2748C142.002 44.5101 142.905 45.5763 144.138 45.5763ZM151.385 45.5633C152.669 45.5633 153.407 44.5361 153.407 43.2748C153.407 42.0525 152.618 40.9732 151.385 40.9732C150.152 40.9732 149.262 42.0655 149.262 43.2878C149.262 44.4971 150.165 45.5633 151.385 45.5633ZM166.96 43.4568C166.375 43.3138 165.816 43.2357 165.218 43.2357C164.455 43.2357 163.553 43.4958 163.553 44.432C163.553 45.2643 164.277 45.5763 165.002 45.5763C165.917 45.5763 166.96 45.0302 166.96 43.9769V43.4568Z" fill="white"/>
<path fill-rule="evenodd" clip-rule="evenodd" d="M24.5731 30.1934L32.9518 21.6242L24.5731 13.0681C26.6582 13.0681 28.7433 13.0681 30.8285 13.0681L39.2072 21.6242L30.8285 30.1934C28.7433 30.1934 26.6582 30.1934 24.5731 30.1934ZM13.5498 30.1934L21.9285 21.6242L13.5498 13.0681C15.6349 13.0681 17.7201 13.0681 19.8052 13.0681L28.1839 21.6242L19.8052 30.1934C17.7201 30.1934 15.6349 30.1934 13.5498 30.1934Z" fill="white"/>
</svg>
