<svg width="150" height="45" viewBox="0 0 150 45" fill="none" xmlns="http://www.w3.org/2000/svg">
<path fill-rule="evenodd" clip-rule="evenodd" d="M5.77632 17.0843C5.45914 17.8953 5.30054 18.7603 5.08909 19.6254C4.56045 22.2205 4.13754 24.9778 3.55604 27.573C2.39303 27.573 1.17717 27.573 0.0141602 27.573C1.33576 18.8144 3.76749 10.2721 4.82477 0.864728C5.98777 0.864728 7.15078 0.864728 8.26092 0.864728C8.10233 1.72977 7.89088 2.54075 7.78515 3.4058C7.78515 3.45986 7.67942 3.51393 7.67942 3.62206C9.26534 1.51351 11.6971 0.0537502 15.5561 0.486272C19.3623 0.864729 21.424 3.94645 21.5826 7.56882C21.9527 14.4892 18.3579 20.7607 10.957 20.2201C8.52524 20.0579 6.67501 19.1388 5.77632 17.0843ZM10.7455 3.94645C7.62656 5.56841 4.61331 13.0294 8.15519 16.2193C10.4812 18.3278 14.1288 17.1924 15.6619 15.2461C17.4064 13.0294 18.9923 6.64971 16.3491 4.37897C15.4504 3.62206 14.0231 3.35173 12.7015 3.51393C11.7499 3.56799 11.2742 3.67612 10.7455 3.94645Z" fill="#030000"/>
<path fill-rule="evenodd" clip-rule="evenodd" d="M37.9175 19.8419C36.8073 19.8419 35.6972 19.8419 34.5342 19.8419C34.6928 18.7606 34.9042 17.7334 35.1157 16.7062C34.1113 18.22 32.3668 19.9501 29.8293 20.2204C26.1817 20.5989 22.8513 18.7066 22.5341 15.6248C22.4284 14.5976 22.4812 12.9216 23.327 11.624C25.4416 8.2179 30.9394 8.00164 36.3844 8.16384C38.0232 2.0004 29.2478 2.9195 26.2346 4.91992C26.3931 3.73048 26.6575 2.59511 26.8161 1.40567C32.261 -0.324416 39.6091 0.108108 40.032 6.10936C40.1906 8.48823 39.5034 10.813 39.0805 13.0838C38.6576 15.3005 38.2347 17.4631 37.9175 19.8419ZM26.3931 14.922C26.4989 16.4899 28.1905 17.3549 29.565 17.3549C33.3183 17.409 35.1157 14.057 35.6972 10.759C31.4681 10.5427 26.1288 11.0834 26.3931 14.922Z" fill="#030000"/>
<path fill-rule="evenodd" clip-rule="evenodd" d="M46.0587 0.919189C46.8516 5.94726 47.8032 10.8131 48.5433 15.9493C51.3451 11.0294 53.9354 5.8932 56.6843 0.919189C57.953 0.919189 59.2218 0.919189 60.5434 0.919189C57.1601 7.19076 53.1953 14.0571 49.3891 20.653C48.2261 22.7075 47.0631 25.4648 45.3714 26.8165C43.8912 28.0059 41.0366 28.2762 38.6577 27.7896C38.7106 26.7083 39.0806 25.8974 39.1335 24.8701C39.6093 24.8161 40.1908 25.1404 40.7723 25.1404C43.3626 25.1404 44.7899 22.7075 45.7415 20.8152C44.6313 14.2733 43.4155 7.78548 42.3053 1.18952C42.1996 1.08139 42.2525 1.02732 42.3053 0.919189C43.5741 0.919189 44.8428 0.919189 46.0587 0.919189Z" fill="#030000"/>
<path fill-rule="evenodd" clip-rule="evenodd" d="M62.0764 30.9251C61.2834 35.5206 60.279 39.8459 59.486 44.4414C57.0014 44.4414 54.5168 44.4414 51.9794 44.4414C53.1424 38.8186 54.1468 33.2499 55.2569 27.6812C56.3671 22.1665 57.6887 16.6518 58.323 10.8128C60.3319 10.6506 63.0279 10.6506 65.0367 10.8128C64.9839 12.1103 64.6667 13.1916 64.5609 14.4351C66.5169 12.4347 68.6315 9.78553 73.1249 10.2181C77.4069 10.6506 79.7857 14.327 80.1029 18.9766C80.6844 26.9783 76.8782 34.8178 70.0059 35.3584C65.724 35.6828 63.7151 33.6824 62.0764 30.9251ZM65.0896 18.9766C63.3451 21.5177 62.7636 26.3836 64.9839 28.2759C66.3583 29.4653 68.8958 28.8706 70.0588 27.8974C71.539 26.6539 72.5962 24.275 72.5434 21.3014C72.4905 18.5982 71.3275 16.3274 68.5257 16.7059C66.887 16.9222 65.8825 17.7872 65.0896 18.9766Z" fill="#009651"/>
<path fill-rule="evenodd" clip-rule="evenodd" d="M100.667 34.8718C98.7112 34.8178 96.4909 34.98 94.6935 34.7637C94.905 33.6824 94.905 32.3308 95.0636 31.2495C94.4821 31.8442 94.0591 32.7092 93.3191 33.4121C90.8873 35.6828 85.4423 36.1694 82.7463 33.8986C79.8388 31.4116 80.3146 25.4645 82.7463 22.9234C85.5481 19.9498 90.8345 19.1929 96.2794 19.7876C96.8081 17.5169 95.3279 16.1112 93.4777 15.8409C90.7816 15.4624 87.1869 16.6518 85.6009 17.625C85.9181 15.6787 86.0239 13.5701 86.3939 11.6238C88.297 10.9209 90.0944 10.3803 92.3675 10.2721C98.6583 9.83962 102.993 12.0022 103.416 17.5169C103.628 20.4364 102.782 23.4641 102.147 26.3295C101.566 29.1409 101.143 32.0064 100.667 34.8718ZM93.1076 24.0588C90.8345 24.1128 88.3499 24.8698 87.8212 26.5998C87.3983 28.1137 88.4556 29.5194 89.5657 29.7356C93.0547 30.4925 95.4336 26.9783 95.6979 24.1669C94.905 24.0047 93.742 24.0588 93.1076 24.0588Z" fill="#009651"/>
<path fill-rule="evenodd" clip-rule="evenodd" d="M123.716 11.6236C123.346 13.57 122.659 15.1919 122.288 17.1383C120.438 16.4895 118.218 15.5163 115.31 15.8407C114.147 16.0029 112.984 16.5976 112.984 17.7871C113.037 19.2468 115.205 19.7875 116.526 20.3282C118.377 21.1391 120.597 22.2204 121.496 23.8424C123.029 26.6538 121.496 30.7628 119.857 32.4928C118.482 33.9526 115.892 35.142 113.249 35.3583C109.813 35.6286 106.218 34.9798 103.257 34.1689C103.68 32.1685 104.156 30.3302 104.685 28.492C106.641 29.303 108.861 30.0599 111.874 29.7896C113.302 29.6274 114.888 29.1408 114.676 27.4107C114.517 26.005 112.456 25.5184 110.923 24.8696C108.068 23.6802 105.954 22.1664 105.954 18.2196C105.954 10.1098 116.949 8.75818 123.716 11.6236Z" fill="#009651"/>
<path fill-rule="evenodd" clip-rule="evenodd" d="M142.429 11.6236C142.007 13.5159 141.425 15.3 140.896 17.1382C139.152 16.4354 136.879 15.5163 133.971 15.8407C132.808 15.9488 131.645 16.5435 131.645 17.787C131.698 19.3008 134.341 20.1118 135.557 20.6525C138.042 21.7338 140.421 22.9232 140.738 25.8427C141.055 28.7082 139.892 31.033 138.253 32.6009C136.72 34.1147 134.447 35.142 131.909 35.3582C128.42 35.6285 125.037 34.9798 121.918 34.1688C122.235 32.1143 122.87 30.4383 123.24 28.4919C124.667 28.9245 126.042 29.6273 127.733 29.7895C130.112 30.0058 133.337 29.8436 133.284 27.735C133.231 25.4643 128.632 24.9777 126.835 23.5179C124.879 21.95 123.663 18.1114 125.196 14.9756C127.733 10.1097 136.456 9.02844 142.429 11.6236Z" fill="#009651"/>
<path d="M145.231 14.1104H144.28L144.333 13.7319H146.658L146.606 14.1104H145.654L145.125 17.084H144.703L145.231 14.1104Z" fill="#009651"/>
<path d="M149.143 17.084L149.354 15.2998C149.407 14.9754 149.46 14.4888 149.513 14.1645C149.354 14.4888 149.196 14.9214 148.984 15.2458L148.033 17.084H147.716L147.451 15.2998C147.398 14.9214 147.345 14.5429 147.345 14.1645C147.293 14.4888 147.187 14.9754 147.081 15.2998L146.658 17.084H146.288L147.134 13.7319H147.663L147.927 15.6242C147.98 15.8945 147.98 16.2189 147.98 16.4893C148.086 16.2189 148.244 15.9486 148.35 15.6783L149.354 13.7319H149.883L149.46 17.084H149.143Z" fill="#009651"/>
</svg>
