<svg width="132" height="34" viewBox="0 0 132 34" fill="none" xmlns="http://www.w3.org/2000/svg">
<path d="M50.5678 14.5188C50.2272 17.1315 48.1835 17.1315 46.3101 17.1315H45.2883L46.1398 12.0803C46.1398 11.732 46.4804 11.5578 46.821 11.5578H47.332C48.6944 11.5578 49.8866 11.5578 50.5678 12.2545C50.5678 12.9512 50.5678 13.6479 50.5678 14.5188ZM49.7162 7.55176H42.3931C41.8822 7.55176 41.5416 7.90011 41.3713 8.42264L38.4761 27.582C38.4761 27.9304 38.6464 28.2787 39.1573 28.2787H42.5634C43.0743 28.2787 43.4149 27.9304 43.5852 27.4079L44.4368 22.1826C44.4368 21.66 44.9477 21.3117 45.4586 21.3117H47.8429C52.6114 21.3117 55.3363 18.8732 56.1878 14.1705C56.5284 12.0803 56.1878 10.5128 55.3363 9.29352C53.9739 8.24846 52.1005 7.55176 49.7162 7.55176Z" fill="#263577"/>
<path d="M66.5764 21.4856C66.2358 23.5757 64.7031 24.9691 62.6594 24.9691C61.6376 24.9691 60.7861 24.6207 60.2752 23.924C59.7642 23.2273 59.5939 22.3565 59.7642 21.4856C60.1048 19.3955 61.6376 18.002 63.6813 18.002C64.7031 18.002 65.5546 18.3504 66.0655 19.0471C66.4062 19.5696 66.7467 20.4405 66.5764 21.4856ZM71.345 14.5185H67.9389C67.5983 14.5185 67.428 14.6927 67.2577 15.041L67.0874 16.0861L66.9171 15.7378C66.2358 14.6927 64.5328 14.1702 62.8297 14.1702C58.9127 14.1702 55.6769 17.1312 54.9957 21.3114C54.6551 23.4015 55.166 25.3175 56.3581 26.7109C57.3799 27.9301 58.9127 28.4526 60.7861 28.4526C63.8516 28.4526 65.5546 26.3625 65.5546 26.3625L65.3843 27.4076C65.3843 27.7559 65.5546 28.1043 66.0655 28.1043H69.131C69.6419 28.1043 69.9826 27.7559 70.1529 27.2334L72.0262 15.041C72.0262 14.8669 71.8559 14.5185 71.345 14.5185Z" fill="#263577"/>
<path d="M89.9083 14.5186H86.3319C85.9913 14.5186 85.6506 14.6927 85.4803 15.0411L80.7118 22.3565L78.6681 15.3894C78.4978 14.8669 78.1572 14.6927 77.6463 14.6927H74.2402C73.8995 14.6927 73.559 15.0411 73.7293 15.5636L77.6463 27.0593L74.0698 32.2845C73.7292 32.6329 74.0699 33.3296 74.5808 33.3296H78.1572C78.4978 33.3296 78.8384 33.1554 79.0087 32.8071L90.5895 15.5636C90.7598 15.0411 90.4192 14.5186 89.9083 14.5186Z" fill="#263577"/>
<path d="M102.341 14.5188C102 17.1315 99.9563 17.1315 98.0829 17.1315H97.0611L97.9126 12.0803C97.9126 11.732 98.2532 11.5578 98.5939 11.5578H99.1047C100.467 11.5578 101.659 11.5578 102.341 12.2545C102.511 12.9512 102.511 13.6479 102.341 14.5188ZM101.489 7.55176H94.1659C93.655 7.55176 93.3144 7.90011 93.1441 8.42264L90.2488 27.582C90.2488 27.9304 90.4192 28.2787 90.9301 28.2787H94.6768C95.0174 28.2787 95.358 28.1046 95.358 27.582L96.2095 22.1826C96.2095 21.66 96.7205 21.3117 97.2314 21.3117H99.6156C104.384 21.3117 107.109 18.8732 107.961 14.1705C108.301 12.0803 107.961 10.5128 107.109 9.29352C105.917 8.24846 104.044 7.55176 101.489 7.55176Z" fill="#2199D6"/>
<path d="M118.52 21.4856C118.179 23.5757 116.646 24.9691 114.603 24.9691C113.581 24.9691 112.729 24.6207 112.218 23.924C111.707 23.2273 111.537 22.3565 111.707 21.4856C112.048 19.3955 113.581 18.002 115.625 18.002C116.646 18.002 117.498 18.3504 118.009 19.0471C118.349 19.5696 118.69 20.4405 118.52 21.4856ZM123.288 14.5185H119.882C119.542 14.5185 119.371 14.6927 119.201 15.041L119.031 16.0861L118.86 15.7378C118.179 14.6927 116.476 14.1702 114.773 14.1702C110.856 14.1702 107.62 17.1312 106.939 21.3114C106.598 23.4015 107.109 25.3175 108.301 26.7109C109.323 27.9301 110.856 28.4526 112.729 28.4526C115.795 28.4526 117.498 26.3625 117.498 26.3625L117.328 27.4076C117.328 27.7559 117.498 28.1043 118.009 28.1043H121.074C121.585 28.1043 121.926 27.7559 122.096 27.2334L123.969 15.041C123.969 14.8669 123.629 14.5185 123.288 14.5185Z" fill="#2199D6"/>
<path d="M127.376 8.07429L124.31 27.582C124.31 27.9304 124.48 28.2787 124.991 28.2787H128.057C128.568 28.2787 128.908 27.9304 129.079 27.4079L131.974 8.24847C131.974 7.90011 131.803 7.55176 131.293 7.55176H127.886C127.716 7.55176 127.546 7.90011 127.376 8.07429Z" fill="#2199D6"/>
<path d="M8.16178 31.9362L8.67268 28.2785H7.48054H1.51984L5.60719 1.6295C5.60719 1.6295 5.60718 1.45532 5.77748 1.45532H5.9478H15.9958C19.2317 1.45532 21.6159 2.15203 22.8081 3.54544C23.319 4.24215 23.6596 4.93885 23.8299 5.63556C24.0002 6.50644 24.0002 7.37732 23.8299 8.59655V9.29326L24.3408 9.64162C24.8518 9.81579 25.1924 10.1641 25.533 10.5125C26.0439 11.035 26.3845 11.7317 26.3845 12.6026C26.5548 13.4735 26.5548 14.5186 26.2142 15.7378C25.8736 17.1312 25.533 18.1763 25.0221 19.2213C24.5111 20.0922 23.8299 20.7889 23.1487 21.4856C22.4675 22.0081 21.4456 22.3565 20.5941 22.7048C19.5723 22.879 18.5504 23.0532 17.3583 23.0532H16.5068C15.9958 23.0532 15.4849 23.2274 14.974 23.5757C14.6334 23.9241 14.2928 24.4466 14.1225 24.9691V25.3175L13.1006 31.762V31.9362V32.1104C13.1006 32.1104 13.1006 32.1104 12.9303 32.1104H8.16178V31.9362Z" fill="#263577"/>
<path d="M25.0217 8.59619C25.0217 8.77037 25.0217 8.94455 24.8514 9.11873C23.4889 16.0858 19.061 18.3501 13.2706 18.3501H10.3754C9.69416 18.3501 9.01296 18.8726 9.01296 19.5693L7.48019 29.3232L7.13959 32.11C7.13959 32.6325 7.48019 32.9809 7.8208 32.9809H13.1003C13.7815 32.9809 14.2924 32.4584 14.2924 31.9358V31.5875L15.3143 25.3171V24.9688C15.4846 24.2721 15.9955 23.9237 16.5064 23.9237H17.3579C22.4671 23.9237 26.3841 21.8336 27.406 15.7374C27.9169 13.1248 27.5763 11.0347 26.3841 9.64125C26.0435 9.2929 25.5326 8.94454 25.0217 8.59619Z" fill="#2199D6"/>
<path d="M23.6594 8.07429C23.4891 8.07429 23.3188 7.90011 22.9782 7.90011C22.8079 7.90011 22.4672 7.72593 22.2969 7.72593C21.4454 7.55176 20.5939 7.55176 19.7424 7.55176H11.9083C11.738 7.55176 11.5677 7.55176 11.3974 7.72593C11.0568 7.90011 10.7162 8.24846 10.7162 8.59681L9.01312 19.3957V19.7441C9.18343 19.0474 9.69432 18.5249 10.3755 18.5249H13.2708C19.0612 18.5249 23.4891 16.0864 24.8515 9.29352C24.8515 9.11934 24.8515 8.94517 25.0218 8.77099C24.6812 8.59682 24.3406 8.42264 24 8.24847C23.8297 8.07429 23.6594 8.07429 23.6594 8.07429Z" fill="#252C5E"/>
<path d="M10.7161 8.59644C10.7161 8.24808 11.0567 7.89973 11.3974 7.72555C11.5677 7.72555 11.738 7.55138 11.9083 7.55138H19.7423C20.5939 7.55138 21.6157 7.55138 22.2969 7.72555C22.4672 7.72555 22.8079 7.72556 22.9782 7.89973C23.1485 7.89973 23.3188 8.07391 23.6594 8.07391C23.8297 8.07391 23.8297 8.07391 24 8.24809C24.3406 8.42227 24.6812 8.59644 25.0218 8.77062C25.3624 6.15797 25.0218 4.41621 23.6594 2.84862C22.1266 1.10686 19.4017 0.410156 15.9956 0.410156H5.94758C5.26636 0.410156 4.58513 0.93268 4.58513 1.62938L0.497803 28.4525C0.497803 28.9751 0.838414 29.4976 1.34933 29.4976H7.48032L9.01309 19.3954L10.7161 8.59644Z" fill="#263577"/>
</svg>
