<svg width="72" height="74" viewBox="0 0 72 74" fill="none" xmlns="http://www.w3.org/2000/svg">
<path d="M56.0783 46.1565C57.2704 46.679 57.7814 48.4208 57.7814 49.2916C57.9517 50.685 57.6111 51.3817 57.1001 51.3817C56.5892 51.3817 55.908 50.8592 55.2267 49.64C54.5455 48.4208 54.2049 47.2015 54.5455 46.5048C55.0564 46.1565 55.5673 45.9823 56.0783 46.1565Z" fill="#F28A1A"/>
<path d="M49.0961 51.5566C49.7773 51.5566 50.6289 51.905 51.4804 52.6017C52.8428 53.8209 53.3537 55.2143 52.6725 56.2594C52.3319 56.7819 51.4804 57.1303 50.7992 57.1303C49.9476 57.1303 49.0961 56.7819 48.5852 56.2594C47.2227 55.0402 46.8821 53.2984 47.7337 52.2533C47.904 51.905 48.4149 51.5566 49.0961 51.5566Z" fill="#F28A1A"/>
<path d="M32.9169 65.3161C15.2051 65.3161 0.899414 50.6853 0.899414 32.7451C0.899414 14.805 15.2051 0 32.9169 0C50.6287 0 64.9344 14.6308 64.9344 32.7451C64.9344 38.8413 63.2313 44.5891 60.5064 49.4661C60.3361 49.6402 60.1658 49.6402 60.1658 49.2919C58.9737 41.2798 54.2051 36.9254 47.3929 35.532C46.7117 35.3578 46.7117 35.0094 47.5632 35.0094C49.7772 34.8352 52.6724 34.8353 54.3754 35.1836C54.5457 34.3127 54.5457 33.4418 54.5457 32.7451C54.5457 20.9011 45.0086 11.1473 33.4278 11.1473C21.847 11.1473 12.3099 20.9011 12.3099 32.7451C12.3099 44.5891 21.847 54.343 33.4278 54.343H34.4496C34.109 52.427 33.9387 50.5111 34.109 48.421C34.109 47.0276 34.4496 46.8534 34.9606 47.8985C37.8558 53.1238 42.1134 57.6523 50.2881 59.5683C56.93 61.1359 63.5719 62.8776 70.8951 72.109C71.5763 72.9799 70.5545 73.8507 69.8732 73.154C62.5501 66.5353 55.9082 64.271 49.7772 64.271C42.1134 64.4452 37.5152 65.3161 32.9169 65.3161Z" fill="#F28A1A"/>
</svg>
