<svg width="245" height="31" viewBox="0 0 245 31" fill="none" xmlns="http://www.w3.org/2000/svg">
<path d="M3.27871 1.12691C2.25687 1.64944 1.40536 2.52033 1.06475 3.39121C0.894448 3.91374 0.724121 8.61649 0.724121 17.1511V30.0402H6.68482V21.8539H14.5189L16.5626 25.8599L18.6062 29.866H22.0123C23.8857 29.866 25.4184 29.866 25.4184 29.6918C25.4184 29.5176 24.3966 27.4275 23.0342 24.9891L20.6499 20.4605L21.3311 20.1121C24.7372 17.8478 26.27 13.1451 25.4184 7.91978C24.9075 4.78461 23.3748 2.52032 20.9905 1.47527C19.628 0.952737 19.4577 0.778564 11.794 0.778564C5.83329 0.778564 3.95993 0.778559 3.27871 1.12691ZM18.0953 7.0489C18.4359 7.22308 18.9469 7.74561 19.1172 8.26814C19.6281 9.48737 19.628 12.4484 19.2874 13.3192C18.2656 15.4094 16.9032 15.9319 11.1128 15.9319H6.85514V6.70055H12.1346C15.0298 6.70055 17.7547 6.87473 18.0953 7.0489ZM34.104 0.952738C31.5495 1.82362 29.6761 3.56538 28.9949 6.17802C28.3137 8.26814 27.6325 12.9709 27.6325 15.4094C27.6325 17.6737 28.3136 22.2022 28.8246 24.1182C29.8464 27.2533 31.3792 28.9951 34.2744 29.6918C35.6368 30.0402 36.829 30.0402 41.2569 30.0402C46.1958 30.0402 46.7067 29.866 48.0691 29.3435C51.6455 27.7759 53.1783 23.4215 53.1783 15.4094C53.1783 6.87473 51.4752 2.6945 47.7285 1.30109C46.3661 0.778563 45.8552 0.778564 40.4054 0.778564C37.5102 0.778564 34.615 0.952738 34.104 0.952738ZM46.0254 7.39726C47.7285 9.83572 47.7285 21.6797 46.0254 23.4215C45.5145 23.944 35.6368 23.944 35.2962 23.4215C34.1041 21.8539 33.5931 13.3193 34.6149 9.3132C34.9556 7.74561 35.1259 7.22308 35.6368 7.0489C35.9774 6.87473 38.3617 6.87473 41.0866 6.87473C45.1739 6.87473 45.8551 6.87473 46.0254 7.39726ZM58.9687 1.30109C58.4578 1.64944 57.7766 2.34614 57.4359 2.86867C56.925 3.73955 56.925 4.26209 56.7547 14.7127C56.7547 22.0281 56.7547 26.0341 56.925 26.7308C57.4359 28.2984 58.4578 29.5176 59.9905 29.866C61.5233 30.2143 72.9337 30.2143 74.9774 29.866C78.8944 29.1693 80.9381 26.905 81.2787 22.5506C81.449 20.1121 81.1084 18.3704 80.0866 16.6286L79.4054 15.4094L80.4272 13.4934C81.2787 11.7517 81.449 11.5775 81.449 8.96484C81.449 6.87472 81.2787 6.00385 80.9381 4.95879C80.2569 3.3912 79.2351 2.34615 77.7023 1.47527L76.3398 0.778564H68.3355C59.9905 0.778564 59.9905 0.778563 58.9687 1.30109ZM74.8071 7.0489C75.1477 7.39726 75.318 9.13901 75.1477 10.0099C74.9774 10.5324 74.6368 11.055 74.2962 11.5775C73.615 12.2742 73.615 12.2742 68.3355 12.2742H63.056V6.70055H68.8464C71.9119 6.87473 74.6368 7.0489 74.8071 7.0489ZM73.615 18.7187C74.6368 19.0671 75.1477 20.2863 75.1477 21.6797C75.1477 22.5506 74.9774 23.0731 74.6368 23.2473C74.2962 23.5956 72.7635 23.5956 68.5058 23.5956H62.7154V18.022L67.8245 18.1962C70.7197 18.3704 73.2744 18.5445 73.615 18.7187ZM89.794 1.30109C87.2394 2.34615 86.0473 4.08791 85.0254 7.91978C84.5145 9.83572 84.5145 10.8808 84.5145 15.4094C84.5145 20.1121 84.5145 20.6346 85.1957 23.0731C86.0473 26.0341 86.7285 27.2533 88.2612 28.4726C90.1346 29.866 90.6455 29.866 97.1171 29.866C103.589 29.866 104.27 29.6918 105.973 28.4726C107.506 27.4275 108.187 26.0341 109.039 23.0731C109.72 20.6346 109.72 20.1121 109.72 15.4094C109.72 11.055 109.72 10.0099 109.209 7.91978C108.187 3.91373 106.995 2.17197 104.44 1.30109C103.078 0.778563 102.567 0.778564 97.1171 0.778564C91.6674 0.778564 90.9862 0.778563 89.794 1.30109ZM102.056 7.0489C102.737 7.39726 103.078 8.09397 103.589 11.055C104.27 14.7127 103.589 21.5055 102.567 23.0731C102.226 23.7698 102.226 23.7698 97.1171 23.7698C91.1564 23.7698 91.497 23.944 90.8158 20.4605C89.794 15.5835 90.6455 7.57143 92.008 7.0489C92.8595 6.70055 101.375 6.70055 102.056 7.0489Z" fill="#2F69B1"/>
<path d="M114.658 1.47558L113.807 2.34646V28.2987L114.488 28.9954C115.169 29.6921 115.51 29.6921 116.702 29.6921C117.894 29.6921 118.235 29.518 118.746 29.1696C119.597 28.1246 119.768 27.0795 119.768 22.5509V18.1965H123.514L125.388 19.9383C129.134 23.2476 130.497 24.9894 130.497 26.9053C130.497 27.9504 130.667 28.2987 131.348 28.9954C132.2 29.8663 132.37 29.8663 133.562 29.8663C134.584 29.8663 134.925 29.6921 135.606 29.1696C136.458 28.4729 136.458 28.2987 136.458 26.3828C136.458 24.8152 136.287 24.1185 135.606 22.7251C134.755 20.8092 132.03 17.674 130.497 16.2806L129.475 15.4097L131.178 13.8421C133.222 11.9262 135.095 9.48769 135.947 7.57175C136.458 6.5267 136.628 5.65582 136.628 4.26241C136.628 2.34647 136.628 2.34646 135.776 1.47558C135.095 0.778878 134.754 0.778882 133.392 0.778882C131.859 0.778882 131.689 0.778878 131.178 1.47558C130.837 1.99811 130.667 2.52064 130.667 3.39153C130.667 4.08823 130.497 4.95911 130.327 5.30746C129.816 6.35252 127.942 8.61681 125.558 10.7069L123.685 12.2745H119.938V7.92011C119.938 5.65582 119.768 3.21735 119.597 2.69482C119.257 1.30141 118.235 0.604702 116.702 0.604702C115.51 0.778878 115.34 0.778878 114.658 1.47558ZM147.187 1.12723C143.781 2.17229 141.907 4.78493 140.545 9.83604C139.864 12.1003 139.864 12.9712 139.693 19.5899C139.523 27.4278 139.693 28.2987 140.886 29.1696C141.737 29.8663 143.951 29.8663 144.632 29.1696C145.484 28.4729 145.824 27.602 145.824 24.9894V22.3767H159.108V25.3377C159.108 28.1246 159.108 28.2987 159.789 28.9954C160.471 29.6921 160.811 29.6921 162.003 29.6921C163.366 29.6921 163.536 29.6921 164.217 28.8213L164.899 27.9504V19.5899C164.728 11.752 164.728 11.0553 164.217 9.31352C163.025 5.13329 161.152 2.52064 158.768 1.47558C157.405 0.778878 157.065 0.778882 152.807 0.778882C149.571 0.778882 147.868 0.778877 147.187 1.12723ZM156.043 7.04923C157.405 7.57176 158.597 10.7069 158.938 14.713L159.108 16.4548H145.824L145.995 14.3646C146.335 10.7069 147.698 7.22341 149.06 6.87505C150.252 6.70088 155.191 6.87505 156.043 7.04923ZM173.073 1.12723C170.519 1.99811 169.156 3.21734 168.305 5.48164C167.794 6.70087 167.794 7.39758 167.794 9.4877C167.794 13.6679 168.986 16.1064 171.881 17.4998C173.073 18.0223 173.414 18.1965 178.523 18.1965C183.803 18.3707 183.973 18.3707 184.484 18.8932C185.165 19.5899 185.335 21.8542 184.654 22.8993L184.143 23.596H177.331C170.859 23.596 170.348 23.596 169.838 24.1185C168.475 25.3377 168.305 27.7762 169.667 28.9954L170.519 29.6921H178.012C182.1 29.6921 185.846 29.518 186.357 29.3438C187.72 28.9954 189.252 27.4279 190.274 25.5119C191.126 23.9443 191.126 23.596 191.126 20.8092C191.126 18.1965 191.126 17.8482 190.444 16.4548C189.593 14.5388 188.401 13.3196 187.209 12.6229C186.357 12.2745 185.506 12.1003 180.396 11.9262C173.584 11.752 173.755 11.9262 173.755 9.13934C173.755 6.35252 173.414 6.52669 181.589 6.35252L188.571 6.17834L189.252 5.48164C189.934 4.78493 189.934 4.61076 190.104 2.52064L190.274 0.256348H182.27C176.479 0.778877 173.755 0.953053 173.073 1.12723ZM198.449 1.12723C197.938 1.30141 197.086 1.64976 196.575 1.82394C193.34 3.5657 191.807 9.66187 193.851 13.8421C194.702 15.5839 195.554 16.6289 197.086 17.4998C198.279 18.1965 198.449 18.1965 203.558 18.3707C206.453 18.3707 209.008 18.5449 209.348 18.719C210.2 19.0674 210.711 20.4608 210.37 22.0284C210.03 23.9443 210.37 23.9443 202.536 23.9443H195.554L194.872 24.641C194.191 25.3377 194.191 25.6861 194.191 26.9053C194.191 28.1246 194.362 28.4729 194.872 29.1696L195.554 29.8663H203.217C211.903 29.8663 212.073 29.8663 213.776 28.1246C215.309 26.557 215.99 24.8152 216.161 21.68C216.331 18.1965 215.65 16.1064 213.776 14.1905C212.925 13.3196 212.073 12.797 211.392 12.6229C210.881 12.4487 208.327 12.2745 205.602 12.2745C202.877 12.2745 200.493 12.2745 199.982 12.1003C199.13 11.9262 198.619 11.0553 198.619 9.4877C198.619 7.92011 198.96 7.04923 199.982 6.87505C200.493 6.87505 203.558 6.70087 206.964 6.70087C214.969 6.70087 215.139 6.5267 215.139 2.69482V0.778882H207.134C201.855 0.778882 199.13 0.953053 198.449 1.12723ZM226.549 1.30141C225.868 1.64976 224.846 2.17229 224.335 2.52064C222.292 4.08823 220.418 8.26846 219.907 12.6229C219.567 15.5839 219.567 27.2537 219.907 28.2987C220.248 29.3438 221.27 29.8663 222.803 29.8663C223.654 29.8663 224.165 29.6921 224.846 29.1696L225.698 28.4729V25.5119L225.868 22.5509H238.811L238.982 25.5119V28.4729L239.833 29.1696C240.514 29.8663 240.855 29.8663 241.877 29.8663C242.899 29.8663 243.239 29.6921 243.921 29.1696L244.772 28.4729V20.2866C244.772 12.797 244.772 11.9262 244.261 10.0102C243.069 5.65581 241.366 3.04317 238.982 1.82394C237.449 1.12723 237.449 1.12723 232.68 0.953056C228.423 0.778879 227.741 0.778881 226.549 1.30141ZM236.768 7.74593C237.789 8.96517 238.641 11.5778 238.641 14.1905L238.811 16.2806H225.698V14.713C225.698 11.4036 227.06 7.57176 228.593 6.87505C228.934 6.70088 230.637 6.70087 232.68 6.70087H236.086L236.768 7.74593Z" fill="#D31223"/>
</svg>
