<svg width="71" height="72" viewBox="0 0 71 72" fill="none" xmlns="http://www.w3.org/2000/svg">
<path d="M39.6594 22.8174H31.3145V34.8355H39.6594C41.5328 34.8355 43.0655 34.313 44.0874 33.268C45.2795 32.2229 45.7904 30.6553 45.7904 28.9136C45.7904 27.1718 45.2795 25.7784 44.0874 24.5591C43.0655 23.5141 41.5328 22.8174 39.6594 22.8174Z" fill="#4FAD50"/>
<path d="M35.4018 0C16.1572 0 0.659424 15.85 0.659424 35.5319C0.659424 55.2139 16.1572 71.0639 35.4018 71.0639C54.6464 71.0639 70.1442 55.2139 70.1442 35.5319C69.9739 15.85 54.4761 0 35.4018 0ZM48.6857 37.2737C46.4717 39.3638 43.5765 40.5831 40.1704 40.5831H31.3145V43.7183H44.428C44.5983 43.7183 44.9389 43.7183 45.1093 43.8924C45.2796 44.0666 45.2796 44.2408 45.2796 44.5891V48.0727C45.2796 48.2468 45.2796 48.5952 45.1093 48.7694C44.9389 48.9435 44.7687 48.9435 44.428 48.9435H31.3145V53.9946C31.3145 54.1688 31.3145 54.5172 31.1442 54.6913C30.9738 54.8655 30.8036 54.8655 30.6333 54.8655H26.2053C26.035 54.8655 25.6944 54.8655 25.5241 54.6913C25.3538 54.5172 25.3538 54.343 25.3538 53.9946V48.9435H19.5634C19.3931 48.9435 19.0525 48.9435 18.8822 48.7694C18.7119 48.5952 18.7119 48.421 18.7119 48.0727V44.5891C18.7119 44.415 18.7119 44.0666 18.8822 43.8924C19.0525 43.7183 19.2228 43.7183 19.5634 43.7183H25.3538V40.5831H19.5634C19.3931 40.5831 19.0525 40.5831 18.8822 40.4089C18.7119 40.2347 18.7119 40.0606 18.7119 39.7122V35.7061C18.7119 35.532 18.7119 35.3578 18.8822 35.1836C19.0525 35.0094 19.2228 35.0094 19.5634 35.0094H25.3538V18.2885C25.3538 18.1143 25.3538 17.766 25.5241 17.5918C25.6944 17.4176 25.8647 17.4176 26.2053 17.4176H40.3407C43.7468 17.4176 46.642 18.4627 48.856 20.727C51.07 22.8171 52.0918 25.7781 52.0918 29.0875C52.0918 32.2226 50.8997 35.0094 48.6857 37.2737Z" fill="#4FAD50"/>
</svg>
