<svg width="60" height="60" viewBox="0 0 60 60" fill="none" xmlns="http://www.w3.org/2000/svg">
<path d="M23.408 9.07117C23.0349 9.07117 22.7324 9.37357 22.7324 9.74678V12.4492C22.7324 12.8224 23.0349 13.1248 23.408 13.1248C23.7812 13.1248 24.0836 12.8224 24.0836 12.4492V9.74678C24.0836 9.37357 23.7812 9.07117 23.408 9.07117Z" fill="#EE3F58"/>
<path d="M20.0641 13.9008L18.1532 11.9897C17.8894 11.726 17.4616 11.726 17.1979 11.9897C16.934 12.2537 16.934 12.6814 17.1979 12.9453L19.1088 14.8562C19.2406 14.9882 19.4136 15.0542 19.5864 15.0542C19.7594 15.0542 19.9323 14.9882 20.0641 14.8563C20.328 14.5923 20.328 14.1647 20.0641 13.9008Z" fill="#EE3F58"/>
<path d="M29.6188 11.9899C29.355 11.7261 28.9272 11.7261 28.6635 11.9899L26.7526 13.9008C26.4887 14.1647 26.4887 14.5925 26.7526 14.8563C26.8844 14.9882 27.0573 15.0541 27.2302 15.0541C27.4031 15.0541 27.5761 14.9882 27.7079 14.8563L29.6188 12.9453C29.8826 12.6815 29.8826 12.2538 29.6188 11.9899Z" fill="#EE3F58"/>
<path d="M39.6222 26.682C38.7642 26.682 37.9804 27.004 37.384 27.5329C36.9054 26.2483 35.6667 25.3307 34.2174 25.3307C33.3594 25.3307 32.5755 25.6528 31.9791 26.1817C31.5006 24.897 30.2618 23.9795 28.8125 23.9795C28.0526 23.9795 27.3507 24.2318 26.7857 24.657V17.854C26.7857 15.9913 25.2703 14.476 23.4076 14.476C21.545 14.476 20.0296 15.9913 20.0296 17.854V30.8036C18.4896 31.1175 17.3271 32.4823 17.3271 34.1137V38.1673C17.3271 44.7209 22.2328 50.2054 28.7383 50.9246C28.7635 50.9274 28.7885 50.9289 28.8133 50.9289C29.1531 50.9289 29.4458 50.673 29.4839 50.3274C29.5249 49.9566 29.2576 49.6227 28.8867 49.5817C23.067 48.9382 18.6784 44.0312 18.6784 38.1674V34.1138C18.6784 33.233 19.2433 32.482 20.0296 32.2031V36.8161C20.0296 37.1893 20.3321 37.4917 20.7052 37.4917C21.0783 37.4917 21.3808 37.1893 21.3808 36.8161V17.8541C21.3808 16.7365 22.29 15.8273 23.4076 15.8273C24.5253 15.8273 25.4345 16.7365 25.4345 17.8541V31.4113C25.4345 31.7845 25.7369 32.0869 26.1101 32.0869C26.4832 32.0869 26.7857 31.7845 26.7857 31.4113V27.3577C26.7857 26.2401 27.6949 25.3308 28.8125 25.3308C29.9302 25.3308 30.8393 26.2401 30.8393 27.3577V31.4113C30.8393 31.7845 31.1418 32.0869 31.5149 32.0869C31.8881 32.0869 32.1905 31.7845 32.1905 31.4113V28.7089C32.1905 27.5913 33.0997 26.682 34.2174 26.682C35.335 26.682 36.2442 27.5913 36.2442 28.7089V31.4113C36.2442 31.7845 36.5467 32.0869 36.9198 32.0869C37.2929 32.0869 37.5954 31.7845 37.5954 31.4113V30.0601C37.5954 28.9425 38.5046 28.0333 39.6222 28.0333C40.7399 28.0333 41.6491 28.9425 41.6491 30.0601V38.1674C41.6491 44.0312 37.2604 48.9382 31.4407 49.5817C31.0699 49.6227 30.8025 49.9566 30.8435 50.3274C30.8817 50.673 31.1743 50.9289 31.5141 50.9289C31.5389 50.9289 31.564 50.9274 31.5892 50.9247C38.0945 50.2054 43.0003 44.7209 43.0003 38.1673V30.06C43.0002 28.1973 41.4849 26.682 39.6222 26.682Z" fill="#EE3F58"/>
<circle cx="30" cy="30" r="29.5" stroke="#EE3F58"/>
</svg>
