<svg width="125" height="74" viewBox="0 0 125 74" fill="none" xmlns="http://www.w3.org/2000/svg">
<path d="M56.2173 43.4614L59.5209 21.8589H64.7124L61.4087 43.4614H56.2173Z" fill="#074784"/>
<path d="M40.879 21.8589H49.1382C54.3296 21.8589 55.7455 25.0502 55.0375 28.7324C54.5656 31.9237 52.4418 33.8876 49.6101 34.624L54.8016 43.4614H47.9583L43.9467 34.8695L42.7668 43.4614H37.3394L40.879 21.8589ZM45.5985 26.0321L44.6546 31.4327H46.3065C47.7223 31.4327 49.1382 30.2053 49.3741 28.7324C49.6101 27.2595 48.6662 26.0321 47.0144 26.0321H45.5985Z" fill="#074784"/>
<path d="M80.5225 43.4614L83.8261 21.8589H89.2535L85.9499 43.4614H80.5225Z" fill="#074784"/>
<path d="M97.9847 26.5231L97.2768 30.2053H103.412L102.704 34.8695H96.5689L96.0969 38.7972H102.468L101.76 43.4614H89.9616L93.2653 21.8589H105.064L104.356 26.5231H97.9847Z" fill="#074784"/>
<path d="M30.4962 26.5231L30.0242 30.2053H36.1595L35.4516 34.8695H29.3163L28.6084 38.7972H34.9797L34.2717 43.4614H22.473L25.7767 21.8589H37.5754L36.8675 26.5231H30.4962Z" fill="#074784"/>
<path d="M73.4434 26.5231L72.9715 30.2053H78.8709L78.1629 34.8695H72.2636L70.8477 43.4614H65.4203L68.7239 21.8589H80.7587L80.0507 26.5231H73.4434Z" fill="#074784"/>
<path d="M115.211 21.8589H108.132L104.828 43.4614H111.907C118.515 43.4614 123.942 38.7972 124.886 32.6602C125.358 28.4869 123.47 21.8589 115.211 21.8589ZM119.222 32.4147C118.515 36.3424 115.919 38.7972 112.379 38.7972C111.907 38.7972 111.435 38.7972 110.963 38.7972L112.851 26.5231C113.323 26.5231 113.559 26.5231 114.031 26.5231C118.043 26.5231 119.694 29.4689 119.222 32.4147Z" fill="#074784"/>
<path d="M0.763184 18.9131H10.6741L11.854 34.624C18.4613 22.8408 25.0686 11.5486 31.9119 0.256348H35.2155C28.1363 14.4944 21.057 28.9779 14.2138 43.4614H6.89853L5.01073 26.0321C4.53878 21.8589 3.83086 19.895 0.763184 19.6495V18.9131Z" fill="#074784"/>
<path d="M14.2135 23.5769L22.0007 9.82983V9.33887H4.53851V9.82983L13.0336 13.7576L13.7415 23.5769H14.2135Z" fill="#F09C11"/>
<path d="M45.1264 55.49C43.7106 55.49 42.5307 56.2264 41.5868 57.2084L42.7667 48.6165H39.2271L36.6313 67.5187H40.171L40.4069 66.0458C41.1149 67.0277 42.0588 67.7642 43.4746 67.7642C46.3063 67.7642 48.902 65.0638 49.374 61.6271C49.8459 58.1903 47.9581 55.49 45.1264 55.49ZM45.5984 61.6271C45.3624 63.1 44.1825 64.3274 43.0027 64.3274C41.8228 64.3274 40.8789 63.1 41.1149 61.6271C41.3508 60.1542 42.5307 58.9268 43.7106 58.9268C44.8905 58.9268 45.8344 60.1542 45.5984 61.6271Z" fill="#074784"/>
<path d="M59.2847 55.7354H63.2963L52.6774 73.4102H48.6658L53.1494 66.0457L49.6097 55.7354H53.6213L55.5091 61.8724L59.2847 55.7354Z" fill="#074784"/>
<path d="M87.1298 67.5187H82.1744L87.8378 48.6165H92.7932L87.1298 67.5187Z" fill="#074784"/>
<path d="M80.0508 48.6165L73.4435 60.8906L72.9715 48.6165H64.4764V49.3529C67.3081 49.3529 67.7801 49.8439 68.252 52.0532L69.9039 67.5187H75.0953L85.4782 48.6165H80.0508Z" fill="#074784"/>
<path d="M112.379 64.8183L111.199 67.5187H105.772L115.683 48.6165H122.29L123.942 67.5187H120.166H118.515L118.279 64.8183H112.379ZM114.031 61.1361H118.279L117.807 52.2987L114.031 61.1361Z" fill="#074784"/>
<path d="M97.9847 68.0099C94.4451 68.0099 92.0854 66.7825 90.4335 65.8006L92.7933 62.1183C94.2091 63.1002 95.389 64.0822 98.2207 64.0822C99.1646 64.0822 99.8725 63.8367 100.344 63.1002C101.052 61.8728 100.109 61.1364 98.2207 60.1544L97.2768 59.1725C94.4451 57.2086 93.0293 55.2448 94.4451 51.808C95.389 49.5986 97.5128 48.1257 101.288 48.1257C103.884 48.1257 106.244 49.3531 107.66 50.3351L104.828 53.5264C103.412 52.299 102.232 51.808 101.052 51.808C100.109 51.808 99.1646 52.299 98.9286 52.7899C98.4567 53.7719 99.1646 54.5083 100.58 55.4902L101.76 56.2267C105.3 58.436 106.008 60.8909 105.3 63.1002C104.12 67.2735 101.052 68.0099 97.9847 68.0099Z" fill="#074784"/>
</svg>
