<svg width="118" height="37" viewBox="0 0 118 37" fill="none" xmlns="http://www.w3.org/2000/svg">
<path d="M109.301 0.932373H101.978C99.764 0.932373 98.0609 1.62908 97.0391 3.89337L83.074 36.4643H92.9518C92.9518 36.4643 94.6548 32.1099 94.9954 31.0649C96.0173 31.0649 105.725 31.0649 107.087 31.0649C107.428 32.2841 108.279 36.2902 108.279 36.2902H117.135L109.301 0.932373ZM97.7203 23.7495C98.5718 21.6593 101.467 13.8214 101.467 13.8214C101.467 13.9956 102.319 11.7313 102.659 10.5121L103.34 13.6472C103.34 13.6472 105.214 22.1819 105.554 23.9236H97.7203V23.7495Z" fill="#3362AB"/>
<path d="M83.7552 24.7948C83.7552 32.1102 77.2836 36.9872 67.2356 36.9872C62.9779 36.9872 58.8906 36.1163 56.6766 35.0712L58.0391 27.0591L59.2312 27.5816C62.2967 28.975 64.3404 29.4976 68.0871 29.4976C70.812 29.4976 73.7072 28.4525 73.7072 26.0141C73.7072 24.4465 72.5151 23.4014 68.7683 21.6597C65.1919 19.9179 60.4234 17.1311 60.4234 12.08C60.4234 5.11291 67.0653 0.410156 76.4321 0.410156C80.0085 0.410156 83.074 1.10686 84.9474 1.97774L83.5849 9.64149L82.9037 8.94479C81.2007 8.24809 78.9867 7.55138 75.7509 7.55138C72.1745 7.72556 70.4714 9.29314 70.4714 10.6866C70.4714 12.2541 72.5151 13.4734 75.7509 15.041C81.2007 17.6536 83.7552 20.6146 83.7552 24.7948Z" fill="#3362AB"/>
<path d="M0.64624 1.28069L0.816546 0.583984H15.4628C17.5065 0.583984 19.0393 1.28069 19.5502 3.54498L22.786 19.2208C19.5502 10.8604 12.0567 4.06751 0.64624 1.28069Z" fill="#F9B50B"/>
<path d="M43.393 0.932721L28.5764 36.2905H18.5283L10.0131 6.68054C16.1441 10.6866 21.2532 16.9569 23.1266 21.3114L24.1484 24.9691L33.3449 0.758545H43.393V0.932721Z" fill="#3362AB"/>
<path d="M47.3098 0.758545H56.6766L50.7159 36.2905H41.3491L47.3098 0.758545Z" fill="#3362AB"/>
</svg>
