<svg width="150" height="43" viewBox="0 0 150 43" fill="none" xmlns="http://www.w3.org/2000/svg">
<path d="M21.2706 0.410156C10.0248 0.410156 0.912598 9.76888 0.912598 21.3189C0.912598 32.869 10.0248 42.2277 21.2706 42.2277C32.5164 42.2277 41.6138 32.869 41.6138 21.3189C41.6138 9.76888 32.5016 0.410156 21.2706 0.410156ZM28.3678 31.9103C27.7603 32.1994 27.1232 32.4429 26.4713 32.6103C23.9969 33.3103 21.5077 33.3407 19.0481 32.519C16.07 31.5298 14.0846 29.445 12.9141 26.5081C12.6918 25.945 12.5288 25.3515 12.3658 24.7581H10.01C9.60995 24.7581 9.2988 24.4385 9.2988 24.0276V22.4146C9.2988 22.0037 9.60995 21.6841 10.01 21.6841H11.9362C11.9362 21.2428 11.9362 20.8167 11.9362 20.3602H10.01C9.60995 20.3602 9.2988 20.0407 9.2988 19.6298V18.0167C9.2988 17.6059 9.60995 17.2863 10.01 17.2863H12.4696L12.5585 17.0428C13.2252 14.8819 14.3513 13.0406 16.1144 11.6406C17.5072 10.5298 19.1074 9.92106 20.8409 9.63193C23.3005 9.22106 25.6712 9.57105 27.9825 10.4993C28.1307 10.5602 28.2789 10.6363 28.4122 10.7124C28.9604 11.0471 29.1086 11.4732 28.8567 12.0819C28.59 12.7211 28.3381 13.3602 28.0566 13.9993C27.8196 14.5472 27.4788 14.7146 26.9157 14.5776C26.1453 14.395 25.3748 14.1515 24.5895 13.9841C22.9449 13.6341 21.3151 13.6189 19.7149 14.2732C18.3369 14.8363 17.5072 15.9015 16.9294 17.2559C16.9145 17.2711 16.9145 17.2863 16.9145 17.3015H21.7003C22.1004 17.3015 22.4115 17.6211 22.4115 18.032V19.645C22.4115 20.0559 22.1004 20.3754 21.7003 20.3754H16.2478C16.233 20.8015 16.2478 21.2428 16.2478 21.6994H21.7151C22.1152 21.6994 22.4263 22.0189 22.4263 22.4298V24.0428C22.4263 24.4537 22.1152 24.7733 21.7151 24.7733H16.7219C17.3294 26.5385 18.3073 27.9081 20.1446 28.5016C21.6114 28.9733 23.0931 28.9429 24.5895 28.6385C25.36 28.4711 26.1157 28.2276 26.8861 28.0602C27.4936 27.9233 27.8196 28.0907 28.0714 28.6537C28.353 29.2929 28.6197 29.932 28.8715 30.5863C29.1086 31.1646 28.9604 31.6363 28.3678 31.9103Z" fill="#0A6297"/>
<path d="M54.2821 29.5218L49.0074 12.6152H53.082L55.0822 19.7674C55.6452 21.7761 56.1638 23.7088 56.5491 25.8088H56.6231C57.038 23.7696 57.5566 21.7761 58.1196 19.8435L60.2235 12.6152H64.1796L58.6382 29.5218H54.2821Z" fill="#0A6297"/>
<path d="M76.5811 23.2523C76.5811 27.7414 73.4844 29.7958 70.284 29.7958C66.7873 29.7958 64.1055 27.4371 64.1055 23.4805C64.1055 19.524 66.6391 16.9827 70.4766 16.9827C74.1364 16.9827 76.5811 19.5696 76.5811 23.2523ZM67.9282 23.374C67.9282 25.474 68.7875 27.0566 70.3729 27.0566C71.8101 27.0566 72.7436 25.5805 72.7436 23.374C72.7436 21.5479 72.062 19.6914 70.3729 19.6914C68.5949 19.6914 67.9282 21.5783 67.9282 23.374Z" fill="#0A6297"/>
<path d="M78.8776 21.3041C78.8776 19.4932 78.8332 18.3215 78.7739 17.2715H81.9743L82.0928 19.5237H82.1965C82.804 17.7432 84.2708 16.9976 85.4265 16.9976C85.7673 16.9976 85.9451 16.9976 86.2118 17.0432V20.6345C85.9451 20.5889 85.6191 20.528 85.2043 20.528C83.8412 20.528 82.9077 21.2737 82.6707 22.4606C82.6262 22.7041 82.5966 23.0084 82.5966 23.3128V29.5367H78.8776V21.3041Z" fill="#0A6297"/>
<path d="M91.7977 22.43H91.8421C92.1088 21.9278 92.4052 21.4257 92.7015 20.9539L95.1166 17.2713H99.5912L95.3092 22.2322L100.199 29.5365H95.6352L92.7459 24.4996L91.7977 25.7018V29.5365H88.0787V11.7322H91.7977V22.43Z" fill="#0A6297"/>
<path d="M108.229 29.5212L108.007 28.2885H107.933C107.148 29.2625 105.933 29.7951 104.51 29.7951C102.095 29.7951 100.658 27.9842 100.658 26.0364C100.658 22.8559 103.443 21.319 107.666 21.3494V21.1668C107.666 20.5125 107.325 19.5842 105.488 19.5842C104.273 19.5842 102.969 20.0103 102.184 20.5125L101.503 18.0472C102.332 17.5755 103.962 16.9668 106.14 16.9668C110.126 16.9668 111.385 19.3712 111.385 22.2625V26.5233C111.385 27.6951 111.43 28.8364 111.563 29.5059H108.229V29.5212ZM107.785 23.7385C105.829 23.7081 104.318 24.1951 104.318 25.6712C104.318 26.6451 104.955 27.132 105.784 27.132C106.718 27.132 107.474 26.5081 107.711 25.732C107.755 25.5342 107.785 25.3059 107.785 25.0777V23.7385Z" fill="#0A6297"/>
<path d="M114.304 26.1892C114.986 26.6153 116.408 27.1175 117.504 27.1175C118.631 27.1175 119.09 26.7218 119.09 26.0827C119.09 25.4436 118.719 25.1544 117.327 24.6827C114.867 23.8305 113.904 22.4457 113.934 21.0001C113.934 18.7175 115.845 16.9827 118.794 16.9827C120.186 16.9827 121.431 17.3022 122.157 17.6827L121.49 20.3153C120.957 20.0109 119.934 19.6153 118.897 19.6153C117.993 19.6153 117.475 19.9957 117.475 20.6196C117.475 21.1979 117.934 21.5023 119.401 22.0196C121.668 22.8262 122.631 23.9979 122.646 25.8088C122.646 28.0914 120.883 29.7653 117.475 29.7653C115.919 29.7653 114.526 29.4153 113.623 28.9132L114.304 26.1892Z" fill="#0A6297"/>
<path d="M124.913 26.1892C125.594 26.6153 127.017 27.1175 128.113 27.1175C129.239 27.1175 129.699 26.7218 129.699 26.0827C129.699 25.4436 129.328 25.1544 127.935 24.6827C125.476 23.8305 124.513 22.4457 124.542 21.0001C124.542 18.7175 126.454 16.9827 129.402 16.9827C130.795 16.9827 132.04 17.3022 132.766 17.6827L132.099 20.3153C131.566 20.0109 130.543 19.6153 129.506 19.6153C128.602 19.6153 128.084 19.9957 128.084 20.6196C128.084 21.1979 128.543 21.5023 130.01 22.0196C132.277 22.8262 133.24 23.9979 133.255 25.8088C133.255 28.0914 131.491 29.7653 128.084 29.7653C126.528 29.7653 125.135 29.4153 124.231 28.9132L124.913 26.1892Z" fill="#0A6297"/>
<path d="M138.396 24.6066C138.514 26.1892 140.026 26.9349 141.759 26.9349C143.033 26.9349 144.056 26.7523 145.063 26.4327L145.552 29.0197C144.337 29.5219 142.841 29.7653 141.226 29.7653C137.166 29.7653 134.855 27.361 134.855 23.5262C134.855 20.4218 136.736 16.9827 140.885 16.9827C144.737 16.9827 146.204 20.0718 146.204 23.1001C146.204 23.7544 146.13 24.3327 146.086 24.6066H138.396ZM142.767 22.0044C142.767 21.0762 142.381 19.524 140.663 19.524C139.107 19.524 138.47 20.9849 138.366 22.0044H142.767Z" fill="#0A6297"/>
</svg>
