<svg width="72" height="73" viewBox="0 0 72 73" fill="none" xmlns="http://www.w3.org/2000/svg">
<path d="M45.7378 34.6611L38.0741 26.1264L29.5588 33.7902L37.2225 42.499L45.7378 34.6611Z" fill="#137ABE"/>
<path d="M23.4278 19.1594L31.0915 27.694L39.6068 20.0303L31.9431 11.4956L23.4278 19.1594Z" fill="#137ABE"/>
<path d="M51.6985 49.4661L44.0348 40.9314L35.5195 48.7694L43.1832 57.304L51.6985 49.4661Z" fill="#137ABE"/>
<path d="M42.8426 63.7485L28.8776 47.8985L32.7946 44.415L22.9169 33.2677L26.8339 29.7841L16.9562 18.6369L32.454 4.52858L37.3929 9.92805L45.9081 2.43847L50.847 7.66376L54.0828 4.70276C53.4016 4.35441 52.5501 3.83188 51.8688 3.48353C46.93 1.39341 41.6505 0 36.0304 0C16.4453 0 0.436523 16.1984 0.436523 36.0545C0.436523 55.9106 16.4453 72.109 36.2007 72.109C42.6723 72.109 48.633 70.3672 53.7422 67.4062C55.4453 66.3612 56.978 65.3161 58.5108 64.271L51.3579 56.0848L42.8426 63.7485Z" fill="#137ABE"/>
<path d="M39.0959 14.9792L44.716 21.4237L51.1876 15.6759L45.3972 9.23134L39.0959 14.9792Z" fill="#137ABE"/>
<path d="M56.978 28.5649L51.1876 22.1204L44.8863 28.0424L50.6767 34.3127L56.978 28.5649Z" fill="#137ABE"/>
<path d="M62.4278 42.1507L56.6374 35.7061L50.3361 41.454L56.1265 48.0727L62.4278 42.1507Z" fill="#137ABE"/>
<path d="M62.7684 20.9012L58.5108 24.733L62.4278 29.0874L66.5151 25.2556L62.7684 20.9012Z" fill="#137ABE"/>
<path d="M63.9605 37.4479L67.7073 41.8023L71.9649 37.9704L68.0479 33.616L63.9605 37.4479Z" fill="#137ABE"/>
<path d="M53.061 12.0182L56.978 16.3726L61.0653 12.5407L57.3186 8.18629L53.061 12.0182Z" fill="#137ABE"/>
<path d="M55.9562 54.5172L61.7466 60.9617L68.0479 55.2139L62.2575 48.7694L55.9562 54.5172Z" fill="#137ABE"/>
</svg>
