<svg width="178" height="54" viewBox="0 0 178 54" fill="none" xmlns="http://www.w3.org/2000/svg">
<path d="M177.427 53.0318H0.820068V0.256348H177.427V53.0318Z" fill="#13110C"/>
<path d="M63.4924 10.3582C59.4051 10.3582 57.0208 12.0999 57.0208 15.0609C57.0208 16.9768 57.8723 18.3703 59.916 18.8928L63.833 20.112C64.3439 20.2862 64.8548 20.6345 64.8548 21.1571C64.8548 21.8538 64.3439 22.3763 63.4924 22.3763C62.9815 22.3763 62.6409 22.2021 62.4706 21.8538C62.3003 21.5054 62.1299 21.1571 62.1299 20.8087H56.6802C56.6802 24.6406 59.916 25.6857 63.3221 25.6857C67.4094 25.6857 70.1343 24.1181 70.1343 20.6345C70.1343 18.8928 69.2828 17.4994 67.5797 16.8027C66.2173 16.106 64.1736 15.7576 63.1518 15.4093C62.6409 15.2351 62.3002 15.0609 62.3002 14.5384C62.3002 14.0159 62.6409 13.6675 63.6627 13.6675C64.3439 13.6675 64.8548 14.0159 64.8548 14.8867H69.964C69.6234 11.4032 67.0688 10.3582 63.4924 10.3582ZM141.152 10.3582V42.5807H142.855V10.3582H141.152ZM159.034 10.5323C158.012 10.5323 157.161 11.4032 157.161 12.4483C157.161 13.4933 158.012 14.3642 159.034 14.3642C160.056 14.3642 160.907 13.4933 160.907 12.4483C161.078 11.4032 160.226 10.5323 159.034 10.5323ZM17.6802 10.7065L20.7457 25.3373H26.8767L28.2391 15.9318L29.6016 25.3373H35.7325L38.7981 10.7065H33.6889L32.4967 19.7637L31.1343 10.7065H25.3439L23.9815 19.7637L22.619 10.7065H17.6802ZM42.0339 10.7065V25.3373H52.9334V21.5054H47.3134V19.9378H52.2522V16.106H47.3134V14.5384H52.7631V10.7065H42.0339ZM73.3701 10.7065V14.5384H76.9465V25.1631H82.5666V14.5384H86.143V10.7065H73.3701ZM89.7195 10.7065V25.3373H100.789V21.5054H95.1693V19.9378H100.108V16.106H95.1693V14.5384H100.619V10.7065H89.7195ZM104.877 10.7065V25.3373H110.326V20.112H111.008C111.859 20.112 112.2 20.4604 112.37 21.1571C112.54 22.3763 112.711 24.2922 113.051 25.3373H118.501C117.82 23.073 117.99 21.1571 117.65 19.7637C117.309 18.7186 116.628 18.0219 115.265 17.8477C117.309 17.3252 118.161 16.106 118.161 14.3642C118.161 11.5774 116.287 10.7065 113.392 10.7065H104.877ZM122.588 10.7065V25.3373H127.187V16.4543L130.252 25.3373H137.064V10.7065H132.466V19.4153L129.401 10.7065H122.588ZM153.925 10.7065V42.5807H155.628V10.7065H153.925ZM159.034 10.7065C159.885 10.7065 160.567 11.4032 160.567 12.4483C160.567 13.3191 159.885 14.19 159.034 14.19C158.182 14.19 157.501 13.4933 157.501 12.4483C157.501 11.5774 158.182 10.7065 159.034 10.7065ZM158.353 11.4032V13.4933H158.693V12.6224H159.204L159.715 13.6675H160.056L159.374 12.6224C159.715 12.6224 160.056 12.4483 160.056 12.0999C160.056 11.7516 159.885 11.5774 159.374 11.5774H158.353V11.4032ZM158.693 11.5774H159.204C159.545 11.5774 159.715 11.5774 159.715 11.9257C159.715 12.4483 159.204 12.2741 159.034 12.2741H158.693V11.5774ZM110.497 14.0159H111.008C112.03 14.0159 112.881 14.19 112.881 15.2351C112.881 16.2801 112.03 16.8027 111.008 16.8027H110.497V14.0159ZM111.008 27.7758C106.069 27.7758 103.685 30.9109 103.685 35.4395C103.685 39.9681 106.069 43.1033 111.008 43.1033C115.947 43.1033 118.331 39.9681 118.331 35.4395C118.331 30.9109 115.947 27.7758 111.008 27.7758ZM56.5099 28.1241V37.878C56.5099 41.3615 58.8941 43.1033 63.3221 43.1033C67.5797 43.1033 70.1343 41.3615 70.1343 37.878V28.1241H64.5142V37.5296C64.5142 38.7489 64.0033 39.0972 63.3221 39.0972C62.6409 39.0972 62.1299 38.5747 62.1299 37.5296V28.1241H56.5099ZM74.7326 28.1241V42.7549H79.3308V33.8719L82.3963 42.7549H89.2086V28.1241H84.6103V37.0071L81.5448 28.1241H74.7326ZM93.8068 28.1241V42.7549H99.4269V28.1241H93.8068ZM122.588 28.1241V42.7549H127.187V33.8719L130.252 42.7549H137.064V28.1241H132.466V37.0071L129.401 28.1241H122.588ZM111.008 31.6076C111.859 31.6076 112.54 32.1302 112.54 35.4395C112.54 38.7489 111.859 39.2714 111.008 39.2714C110.156 39.2714 109.475 38.7489 109.475 35.4395C109.475 32.1302 110.156 31.6076 111.008 31.6076Z" fill="#FFDF27"/>
</svg>
