<svg width="66" height="63" viewBox="0 0 66 63" fill="none" xmlns="http://www.w3.org/2000/svg">
<path d="M65.8429 25.4816C65.5023 23.3915 63.6289 21.9981 61.0743 21.9981C60.2228 21.9981 59.5416 21.9981 58.6901 21.9981C57.1573 21.8239 56.8167 22.3464 56.8167 23.5657C56.8167 29.6618 56.8167 35.5838 56.8167 41.68C56.8167 44.8152 53.7512 48.1245 50.1748 48.8212C38.9346 51.4339 27.6944 53.8723 16.4542 56.485C15.2621 56.8333 13.8997 56.8333 12.5372 56.8333C12.0263 56.8333 11.1748 56.485 11.0045 55.9624C10.8342 55.6141 11.3451 54.9174 11.6857 54.569C12.1966 54.2207 12.8778 53.8723 13.5591 53.524C15.6027 52.8273 17.8167 52.1306 19.8603 51.4339C28.2053 48.647 36.5503 45.8602 44.8953 42.8992C48.642 41.68 50.6857 39.0674 50.6857 35.758C50.856 25.3074 50.6857 14.6827 50.6857 4.23209C50.6857 2.49033 49.8341 1.09692 47.9608 0.400217C45.7468 -0.470665 43.7031 0.22603 41.8298 1.09691C29.9084 6.84473 18.1573 12.5926 6.23588 18.3404C2.82977 20.0821 0.786133 22.5206 0.786133 26.0041C0.786133 35.9322 0.786133 45.8602 0.786133 55.7883C0.786133 56.3108 0.786091 56.8333 0.956397 57.1817C2.14854 60.491 5.21408 62.5811 9.30142 62.5811C17.6464 62.5811 25.9913 62.5811 34.3363 62.5811C42.6813 62.5811 50.856 62.5811 59.2009 62.5811C61.0743 62.5811 62.607 62.2328 63.9695 61.0136C65.6725 59.6202 65.6725 57.7042 65.6725 55.9624C65.6725 46.2086 65.6725 36.6289 65.6725 26.875C66.0132 26.7008 66.0132 26.0041 65.8429 25.4816ZM31.1005 22.3464C31.952 20.0821 33.8254 18.6887 36.5503 18.3404C38.4237 18.1662 39.9564 19.2113 40.297 20.953C40.6376 23.5657 37.5721 26.7008 34.3363 26.7008C31.7817 26.7008 30.249 24.7849 31.1005 22.3464Z" fill="#E47418"/>
</svg>
